<svg width="483" height="255" viewBox="0 0 483 255" fill="none" xmlns="http://www.w3.org/2000/svg">
<path d="M134.876 169.143C133.618 169.135 132.591 170.147 132.583 171.405C132.575 172.664 133.586 173.692 134.844 173.7C136.102 173.708 137.13 172.696 137.138 171.437C137.146 170.187 136.134 169.159 134.876 169.143Z" fill="#12BEF0"/>
<path d="M134.876 169.143C133.618 169.135 132.591 170.147 132.583 171.405C132.575 172.664 133.586 173.692 134.844 173.7C136.102 173.708 137.13 172.696 137.138 171.437C137.146 170.187 136.134 169.159 134.876 169.143Z" fill="url(#paint0_linear)"/>
<path d="M136.27 106.213C136.978 106.221 137.552 105.648 137.56 104.946C137.568 104.237 136.994 103.664 136.293 103.656C135.585 103.648 135.011 104.222 135.003 104.923C134.995 105.624 135.561 106.205 136.27 106.213Z" fill="#12BEF0"/>
<path d="M136.27 106.213C136.978 106.221 137.552 105.648 137.56 104.946C137.568 104.237 136.994 103.664 136.293 103.656C135.585 103.648 135.011 104.222 135.003 104.923C134.995 105.624 135.561 106.205 136.27 106.213Z" fill="url(#paint1_linear)"/>
<path d="M320.245 192.358C320.245 194.668 322.117 196.541 324.426 196.541C326.735 196.541 328.607 194.668 328.607 192.358C328.607 190.048 326.735 188.176 324.426 188.176C322.125 188.176 320.245 190.048 320.245 192.358Z" fill="#12BEF0"/>
<path d="M320.245 192.358C320.245 194.668 322.117 196.541 324.426 196.541C326.735 196.541 328.607 194.668 328.607 192.358C328.607 190.048 326.735 188.176 324.426 188.176C322.125 188.176 320.245 190.048 320.245 192.358Z" fill="url(#paint2_linear)"/>
<path d="M237.196 93.3867C234.887 93.3867 233.015 95.2589 233.015 97.5692C233.015 99.8796 234.887 101.752 237.196 101.752C239.506 101.752 241.377 99.8796 241.377 97.5692C241.377 95.2589 239.506 93.3867 237.196 93.3867Z" fill="#12BEF0"/>
<path d="M237.196 93.3867C234.887 93.3867 233.015 95.2589 233.015 97.5692C233.015 99.8796 234.887 101.752 237.196 101.752C239.506 101.752 241.377 99.8796 241.377 97.5692C241.377 95.2589 239.506 93.3867 237.196 93.3867Z" fill="url(#paint3_linear)"/>
<path d="M167.302 45.2195C167.302 43.9368 166.267 42.9011 164.985 42.9011C163.703 42.9011 162.668 43.9368 162.668 45.2195C162.668 46.5021 163.703 47.5378 164.985 47.5378C166.267 47.5378 167.302 46.5021 167.302 45.2195Z" fill="#12BEF0"/>
<path d="M167.302 45.2195C167.302 43.9368 166.267 42.9011 164.985 42.9011C163.703 42.9011 162.668 43.9368 162.668 45.2195C162.668 46.5021 163.703 47.5378 164.985 47.5378C166.267 47.5378 167.302 46.5021 167.302 45.2195Z" fill="url(#paint4_linear)"/>
<path d="M174.159 192.358C174.159 191.075 173.124 190.04 171.842 190.04C170.559 190.04 169.524 191.075 169.524 192.358C169.524 193.641 170.559 194.676 171.842 194.676C173.124 194.676 174.159 193.641 174.159 192.358Z" fill="#12BEF0"/>
<path d="M174.159 192.358C174.159 191.075 173.124 190.04 171.842 190.04C170.559 190.04 169.524 191.075 169.524 192.358C169.524 193.641 170.559 194.676 171.842 194.676C173.124 194.676 174.159 193.641 174.159 192.358Z" fill="url(#paint5_linear)"/>
<path d="M7.98114 187.721C6.69905 187.721 5.66382 188.757 5.66382 190.04C5.66382 191.322 6.69905 192.358 7.98114 192.358C9.26323 192.358 10.2985 191.322 10.2985 190.04C10.2985 188.765 9.26323 187.721 7.98114 187.721Z" fill="#12BEF0"/>
<path d="M7.98114 187.721C6.69905 187.721 5.66382 188.757 5.66382 190.04C5.66382 191.322 6.69905 192.358 7.98114 192.358C9.26323 192.358 10.2985 191.322 10.2985 190.04C10.2985 188.765 9.26323 187.721 7.98114 187.721Z" fill="url(#paint6_linear)"/>
<path d="M169.62 4.63667C170.902 4.63667 171.937 3.60099 171.937 2.31834C171.937 1.03568 170.902 0 169.62 0C168.338 0 167.302 1.03568 167.302 2.31834C167.302 3.60099 168.346 4.63667 169.62 4.63667Z" fill="#12BEF0"/>
<path d="M169.62 4.63667C170.902 4.63667 171.937 3.60099 171.937 2.31834C171.937 1.03568 170.902 0 169.62 0C168.338 0 167.302 1.03568 167.302 2.31834C167.302 3.60099 168.346 4.63667 169.62 4.63667Z" fill="url(#paint7_linear)"/>
<path d="M322.563 159.129C322.563 157.846 321.527 156.81 320.245 156.81C318.963 156.81 317.928 157.846 317.928 159.129C317.928 160.411 318.963 161.447 320.245 161.447C321.527 161.447 322.563 160.411 322.563 159.129Z" fill="#12BEF0"/>
<path d="M322.563 159.129C322.563 157.846 321.527 156.81 320.245 156.81C318.963 156.81 317.928 157.846 317.928 159.129C317.928 160.411 318.963 161.447 320.245 161.447C321.527 161.447 322.563 160.411 322.563 159.129Z" fill="url(#paint8_linear)"/>
<path d="M234.879 117.717C233.597 117.717 232.562 118.753 232.562 120.036C232.562 121.318 233.597 122.354 234.879 122.354C236.161 122.354 237.196 121.318 237.196 120.036C237.196 118.761 236.161 117.717 234.879 117.717Z" fill="#12BEF0"/>
<path d="M234.879 117.717C233.597 117.717 232.562 118.753 232.562 120.036C232.562 121.318 233.597 122.354 234.879 122.354C236.161 122.354 237.196 121.318 237.196 120.036C237.196 118.761 236.161 117.717 234.879 117.717Z" fill="url(#paint9_linear)"/>
<path d="M445.524 90.7815C450.278 90.7815 454.14 86.9256 454.14 82.1615C454.14 77.4053 450.286 73.5414 445.524 73.5414C440.77 73.5414 436.907 77.3973 436.907 82.1615C436.915 86.9256 440.77 90.7815 445.524 90.7815Z" fill="#12BEF0"/>
<path d="M445.524 90.7815C450.278 90.7815 454.14 86.9256 454.14 82.1615C454.14 77.4053 450.286 73.5414 445.524 73.5414C440.77 73.5414 436.907 77.3973 436.907 82.1615C436.915 86.9256 440.77 90.7815 445.524 90.7815Z" fill="url(#paint10_linear)"/>
<path d="M424.867 80.0025C424.867 81.5958 426.157 82.8865 427.75 82.8865C429.342 82.8865 430.632 81.5958 430.632 80.0025C430.632 78.4091 429.342 77.1185 427.75 77.1185C426.157 77.1185 424.867 78.4091 424.867 80.0025Z" fill="#12BEF0"/>
<path d="M424.867 80.0025C424.867 81.5958 426.157 82.8865 427.75 82.8865C429.342 82.8865 430.632 81.5958 430.632 80.0025C430.632 78.4091 429.342 77.1185 427.75 77.1185C426.157 77.1185 424.867 78.4091 424.867 80.0025Z" fill="url(#paint11_linear)"/>
<path d="M479.678 154.197C478.022 153.361 476.166 153.361 474.59 154.038C472.623 153.345 471.229 151.393 471.078 149.09C471.428 148.612 471.643 148.023 471.643 147.378C471.643 145.784 470.353 144.494 468.76 144.494C467.168 144.494 465.878 145.784 465.878 147.378C465.878 148.971 467.168 150.262 468.76 150.262C468.912 150.262 469.063 150.246 469.214 150.222C470.99 151.21 472.121 153.329 471.898 155.679C471.874 155.966 471.826 156.237 471.763 156.508C471.691 156.627 471.619 156.747 471.556 156.866C471.333 157.312 471.173 157.774 471.07 158.236C471.014 158.483 470.966 158.738 470.942 158.993C470.703 161.407 471.938 163.829 474.231 164.992C477.209 166.498 480.849 165.303 482.346 162.315C483.859 159.336 482.656 155.695 479.678 154.197Z" fill="#12BEF0"/>
<path d="M479.678 154.197C478.022 153.361 476.166 153.361 474.59 154.038C472.623 153.345 471.229 151.393 471.078 149.09C471.428 148.612 471.643 148.023 471.643 147.378C471.643 145.784 470.353 144.494 468.76 144.494C467.168 144.494 465.878 145.784 465.878 147.378C465.878 148.971 467.168 150.262 468.76 150.262C468.912 150.262 469.063 150.246 469.214 150.222C470.99 151.21 472.121 153.329 471.898 155.679C471.874 155.966 471.826 156.237 471.763 156.508C471.691 156.627 471.619 156.747 471.556 156.866C471.333 157.312 471.173 157.774 471.07 158.236C471.014 158.483 470.966 158.738 470.942 158.993C470.703 161.407 471.938 163.829 474.231 164.992C477.209 166.498 480.849 165.303 482.346 162.315C483.859 159.336 482.656 155.695 479.678 154.197Z" fill="url(#paint12_linear)"/>
<path d="M439.392 228.464C437.799 228.464 436.509 229.754 436.509 231.348C436.509 232.941 437.799 234.232 439.392 234.232C440.984 234.232 442.275 232.941 442.275 231.348C442.275 229.754 440.984 228.464 439.392 228.464Z" fill="#12BEF0"/>
<path d="M439.392 228.464C437.799 228.464 436.509 229.754 436.509 231.348C436.509 232.941 437.799 234.232 439.392 234.232C440.984 234.232 442.275 232.941 442.275 231.348C442.275 229.754 440.984 228.464 439.392 228.464Z" fill="url(#paint13_linear)"/>
<path d="M15.379 121.207C16.9711 121.207 18.2617 119.915 18.2617 118.323C18.2617 116.73 16.9711 115.439 15.379 115.439C13.787 115.439 12.4963 116.73 12.4963 118.323C12.4963 119.915 13.787 121.207 15.379 121.207Z" fill="#12BEF0"/>
<path d="M15.379 121.207C16.9711 121.207 18.2617 119.915 18.2617 118.323C18.2617 116.73 16.9711 115.439 15.379 115.439C13.787 115.439 12.4963 116.73 12.4963 118.323C12.4963 119.915 13.787 121.207 15.379 121.207Z" fill="url(#paint14_linear)"/>
<path d="M91.7545 16.2967C94.1615 13.8886 94.1615 9.9844 91.7545 7.57633C89.3475 5.16827 85.445 5.16827 83.038 7.57633C80.631 9.9844 80.631 13.8886 83.038 16.2967C85.445 18.7048 89.3475 18.7048 91.7545 16.2967Z" fill="#12BEF0"/>
<path d="M91.7545 16.2967C94.1615 13.8886 94.1615 9.9844 91.7545 7.57633C89.3475 5.16827 85.445 5.16827 83.038 7.57633C80.631 9.9844 80.631 13.8886 83.038 16.2967C85.445 18.7048 89.3475 18.7048 91.7545 16.2967Z" fill="url(#paint15_linear)"/>
<path d="M452.149 141.888C448.605 140.956 445.89 140 443.811 139.06C436.509 138.909 430.632 132.942 430.632 125.596C430.632 119.709 434.407 114.714 439.663 112.873V102.262C439.663 93.6097 431.978 87.1248 423.091 87.1248C413.726 87.1248 406.519 93.6097 406.519 102.262V139.028H400.236C399.599 139.953 398.946 141.554 398.349 144.223C398.413 145.896 397.609 147.481 396.135 148.254C394.025 149.361 391.333 148.381 390.123 146.079C389.685 145.25 389.51 144.358 389.55 143.514C389.359 142.741 388.586 140.725 385.576 139.036H376.49C387.933 112.587 397.593 90.8373 408.399 66.0686C410.509 67.2158 413.185 67.0325 415.144 65.4073C416.569 64.2203 417.31 62.5233 417.326 60.8025C418.751 59.2729 421.092 58.771 423.258 59.5517C423.553 60.0696 424.015 60.4998 424.604 60.7547C426.061 61.3921 427.757 60.7229 428.395 59.2649C429.032 57.807 428.363 56.1101 426.905 55.4727C425.448 54.8354 423.752 55.5046 423.115 56.9625C423.051 57.1059 423.003 57.2493 422.972 57.3927C421.363 58.6276 418.966 58.8188 416.896 57.6795C416.649 57.5441 416.41 57.3848 416.187 57.2254C416.107 57.1139 416.028 57.0024 415.94 56.8908C415.621 56.5084 415.263 56.1818 414.881 55.895C414.674 55.7436 414.459 55.6002 414.236 55.4807C413.909 55.2975 413.559 55.1461 413.209 55.0346C413.806 53.6643 414.403 52.286 415.008 50.8839C415.183 50.4855 415.351 50.0952 415.526 49.6968C415.566 49.5933 415.613 49.4976 415.653 49.402C416.617 47.243 416.617 45.5541 416.617 44.1121C416.617 43.3314 416.545 42.5665 416.41 41.8177C416.951 40.9015 417.525 40.4155 417.795 40.2323C418.329 39.8977 418.815 39.4675 419.221 38.9337C420.909 36.6632 420.431 33.4605 418.17 31.7795C416.896 30.8315 415.335 30.5686 413.909 30.9191C411.974 31.3015 410.453 31.4608 409.259 31.4768C408.12 30.712 406.894 30.0667 405.628 29.5807C405.428 29.509 405.229 29.4373 405.03 29.3656C403.414 28.8159 401.733 28.5052 400.061 28.5052C393.818 28.5052 387.567 32.1141 385.17 37.8741L367.372 78.8393C359.592 80.4407 351.565 76.1944 348.626 68.4984C348.244 67.4946 347.432 65.7101 346.707 63.9016C346.532 62.1569 346.038 60.5077 345.282 59.002C342.957 54.3574 338.155 51.1627 332.604 51.1627C324.944 51.1627 318.708 57.2334 318.438 64.8337C318.422 64.8257 318.414 64.8178 318.398 64.8098C318.366 65.1763 318.334 65.5507 318.27 65.9252C317.347 71.7808 312.919 76.2103 307.464 77.4212C293.425 50.3421 265.155 31.8432 232.562 31.8432C217.814 31.8432 203.957 35.6354 191.901 42.2877C190.316 42.9011 188.596 43.2517 186.797 43.2517C179.048 43.2517 172.773 37.0137 172.773 29.3178C172.773 28.4335 172.861 27.5731 173.02 26.7286C173.458 25.5495 173.697 24.2668 173.697 22.9364C173.697 16.8737 168.784 11.9581 162.724 11.9581C156.664 11.9581 151.75 16.8737 151.75 22.9364C151.75 28.8318 156.393 33.6437 162.222 33.8987C162.214 33.9226 162.198 33.9385 162.19 33.9624C162.548 33.9305 162.907 33.9146 163.273 33.9146C170.759 33.9146 176.835 39.9853 176.835 47.4821C176.835 50.2386 176.014 52.8039 174.597 54.939C159.642 69.1039 149.871 88.6863 148.414 110.555C146.502 113.28 142.855 114.276 139.821 112.738C139.423 112.539 139.065 112.308 138.722 112.045C138.308 111.607 137.822 111.232 137.249 110.945C134.908 109.766 132.121 110.475 130.592 112.491C130.568 112.459 130.544 112.435 130.52 112.403C130.448 112.587 130.369 112.77 130.273 112.953C130.249 113.001 130.217 113.041 130.194 113.089C128.306 116.634 123.52 117.861 119.236 115.957V96.7168C119.236 88.0649 111.552 81.5799 102.665 81.5799C100.578 81.5799 98.6033 81.9065 96.7876 82.4961C90.9267 80.6 86.1168 76.3139 83.4969 70.753C87.2635 62.1489 91.1257 53.2978 95.2189 43.8412C96.1824 41.6822 96.1824 39.9933 96.1824 38.5513C96.1824 35.7629 95.2587 33.11 93.7218 30.8076C94.9163 30.7199 95.8639 29.7161 95.8639 28.4972C95.8639 27.2145 94.8287 26.1789 93.5466 26.1789C92.4636 26.1789 91.5637 26.9198 91.3089 27.9156C88.1475 24.8723 83.8473 22.9284 79.6108 22.9284C73.3676 22.9284 67.1165 26.5374 64.7195 32.2974L56.5333 51.2105C53.4754 52.3976 51.3253 51.9594 50.5927 51.7283C49.7167 51.3858 48.7611 51.1946 47.7577 51.2025C43.577 51.2344 40.2085 54.5805 40.2404 58.6913C40.2563 61.0017 41.3473 63.0571 43.0355 64.4115C45.4086 66.5067 47.0331 68.2435 48.1161 69.6935C52.257 70.5459 55.3786 74.2106 55.3786 78.6083C55.3786 83.6353 51.3093 87.7064 46.2845 87.7064C44.4689 87.7064 42.7727 87.1726 41.3552 86.2484L24.704 124.68C23.5573 124.887 22.753 124.704 22.4265 124.601C21.901 124.385 21.3356 124.274 20.7303 124.274C18.2299 124.274 16.1992 126.305 16.1992 128.807C16.1992 130.209 16.8363 131.46 17.8317 132.288C18.8908 133.252 19.6872 134.089 20.3003 134.822L18.5962 138.75C17.1548 141.873 16.1913 146.199 16.1913 147.162C16.1913 151.377 17.8476 155.352 20.6985 158.332C19.8624 162.602 16.3426 166.004 11.8194 166.466C11.1824 166.53 10.5533 166.53 9.93214 166.474C9.04822 166.251 8.10855 166.171 7.14499 166.267C2.77315 166.713 -0.404195 170.617 0.0417483 174.99C0.487692 179.364 4.3897 182.543 8.76154 182.097C13.0139 181.659 16.1355 177.954 15.8966 173.732C15.9126 173.74 15.9285 173.748 15.9444 173.748C15.8966 173.493 15.8568 173.23 15.8329 172.967C15.2835 167.565 19.2094 162.738 24.6164 162.18C25.1977 162.124 25.7791 162.116 26.3445 162.156C27.523 162.642 28.7892 163 30.1191 163.224C30.3022 163.319 30.4933 163.415 30.6685 163.526C30.6765 163.455 30.6765 163.383 30.6765 163.311C31.5047 163.423 32.3647 163.486 33.2407 163.486H86.1089V183.196C86.1089 191.848 93.3156 198.333 102.68 198.333C112.045 198.333 119.252 191.848 119.252 183.196V163.486H122.374C126.26 163.486 129.756 162.26 132.487 160.212C132.917 161.893 134.43 163.144 136.238 163.16C138.396 163.176 140.164 161.439 140.18 159.28C140.195 157.248 138.667 155.567 136.692 155.352C137.822 153.257 138.459 150.883 138.459 148.342C138.459 147.003 138.252 145.689 137.878 144.43C140.195 143.793 142.616 143.458 145.109 143.458C147.888 143.458 150.58 143.88 153.144 144.669C160.629 165.558 176.118 182.631 195.907 192.199C194.68 199.385 189.807 205.734 182.52 208.459C181.278 208.921 180.012 209.256 178.754 209.471C176.835 209.479 174.884 209.813 172.98 210.522C172.59 210.666 172.208 210.833 171.826 211.008C167.987 210.22 165.113 206.818 165.144 202.779C165.152 202.237 165.208 201.703 165.312 201.185C165.566 200.492 165.718 199.743 165.726 198.963C165.758 195.338 162.843 192.374 159.22 192.342C155.596 192.31 152.634 195.226 152.602 198.851C152.57 202.38 155.326 205.272 158.814 205.455C158.806 205.471 158.798 205.487 158.79 205.495C159.005 205.479 159.22 205.471 159.435 205.471C163.91 205.511 167.517 209.176 167.478 213.653C167.478 213.741 167.47 213.829 167.462 213.916C162.684 218.362 160.789 225.412 163.209 231.905C166.419 240.509 175.99 244.875 184.583 241.665C192.944 238.542 197.3 229.404 194.585 220.991C194.617 220.991 194.656 220.999 194.688 221.007C194.457 220.513 194.242 220.011 194.043 219.493C190.587 210.228 194.242 200.046 202.277 194.955C211.666 198.564 221.859 200.548 232.522 200.548C245.844 200.548 258.442 197.449 269.647 191.944C275.269 190.988 278.119 193.019 278.876 193.681C278.948 193.752 279.019 193.816 279.091 193.88C279.457 194.222 279.863 194.533 280.301 194.812C281.512 202.484 271.797 203.241 263.658 204.603C246.609 207.471 234.21 199.56 222.289 213C217.153 218.792 209.627 239.776 215.504 247.217C224.71 258.873 239.346 247.895 249.842 244.317C267.074 238.438 279.824 237.793 297.574 242.979C311.804 247.138 339.047 263.167 352.688 249.743C363.072 239.521 352.919 232.805 350.92 221.373C347.934 204.284 355.22 201.098 335.025 199.608C317.275 198.293 300.042 200.126 291.554 186.765C291.418 186.232 291.219 185.722 290.964 185.228C289.849 182.75 289.125 180.743 288.687 179.101C304.335 165.112 314.727 145.37 316.558 123.19C325.397 124.832 333.377 130.504 337.605 139.22C338.29 140.63 338.847 142.072 339.293 143.53L338.959 144.294C337.518 147.417 336.554 151.743 336.554 152.707C336.554 155.209 337.143 157.631 338.218 159.814C336.984 164.275 332.819 167.462 328.025 167.239C327.38 167.207 326.759 167.111 326.162 166.968C325.318 166.617 324.402 166.402 323.439 166.354C319.051 166.155 315.332 169.549 315.133 173.939C314.934 178.329 318.326 182.049 322.714 182.256C326.982 182.447 330.613 179.245 330.996 175.03C331.012 175.038 331.028 175.046 331.036 175.054C331.028 174.791 331.028 174.528 331.036 174.266C331.282 168.84 335.877 164.642 341.308 164.889C341.619 164.905 341.929 164.936 342.24 164.976C345.162 167.478 349.072 169.039 353.611 169.039H406.456V188.749C406.456 197.401 413.662 203.886 423.027 203.886C424.206 203.886 425.345 203.782 426.444 203.591C430.608 204.882 433.22 209.112 432.376 213.462C432.273 214.012 432.105 214.538 431.906 215.04C431.516 215.693 431.221 216.426 431.062 217.222C430.346 220.895 432.742 224.456 436.422 225.173C440.101 225.89 443.652 223.492 444.369 219.812C445.062 216.235 442.808 212.777 439.304 211.932C439.312 211.917 439.328 211.909 439.336 211.893C439.113 211.869 438.898 211.837 438.675 211.789C434.136 210.905 431.166 206.507 432.05 201.958C432.082 201.799 432.121 201.655 432.161 201.496C436.692 198.859 439.607 194.23 439.607 188.733V174.433C443.31 163.821 449.282 161.981 450.947 161.67C452.213 161.551 453.471 161.192 454.673 160.571C459.587 158.005 461.49 151.935 458.918 147.019C457.524 144.302 454.976 142.494 452.149 141.888ZM86.1089 96.6929V133.46H56.0873C65.2132 112.364 73.2084 94.2471 81.5618 75.2065C85.209 78.7995 87.6697 83.6114 88.2908 88.997C86.8972 91.2277 86.1089 93.8408 86.1089 96.6929ZM133.1 137.268C130.289 134.926 126.562 133.46 122.39 133.46H121.545C120.908 133.587 120.247 133.595 119.587 133.46H119.26V133.38C118.766 133.245 118.265 133.021 117.771 132.703C113.646 130.026 115.629 123.031 119.276 121.159C121.545 117.924 126.379 116.976 130.6 119.103C130.711 119.159 130.823 119.223 130.934 119.287C131.356 119.749 131.866 120.147 132.455 120.442C135.011 121.733 138.109 120.761 139.503 118.291C139.511 118.299 139.519 118.315 139.527 118.323C139.59 118.163 139.662 117.996 139.742 117.845C141.326 114.706 145.069 113.391 148.246 114.77C148.238 115.248 148.23 115.726 148.23 116.204C148.23 118.347 148.31 120.474 148.469 122.585C144.989 129.245 139.582 134.471 133.1 137.268ZM177.71 120.012C176.444 120.012 175.417 118.984 175.417 117.717C175.417 116.451 176.444 115.423 177.71 115.423C178.977 115.423 180.004 116.451 180.004 117.717C180.004 118.984 178.977 120.012 177.71 120.012ZM213.267 55.7436C215.831 55.7436 217.901 57.8229 217.901 60.3803C217.901 62.9456 215.823 65.0169 213.267 65.0169C210.702 65.0169 208.632 62.9376 208.632 60.3803C208.632 57.8229 210.71 55.7436 213.267 55.7436ZM224.439 175.54C221.493 175.54 219.096 173.15 219.096 170.194C219.096 167.247 221.485 164.849 224.439 164.849C227.385 164.849 229.774 167.239 229.774 170.194C229.774 173.15 227.385 175.54 224.439 175.54ZM264.988 178.161C263.722 178.161 262.695 177.134 262.695 175.867C262.695 174.6 263.722 173.572 264.988 173.572C266.254 173.572 267.281 174.6 267.281 175.867C267.281 177.134 266.254 178.161 264.988 178.161ZM272.37 144.828C271.478 148.836 267.441 151.345 263.364 150.429C262.384 150.214 261.5 149.815 260.72 149.282C259.939 148.836 257.327 147.648 253.003 148.828C250.535 150.485 247.851 151.855 245.008 152.883C244.467 153.201 244.164 153.297 244.061 153.209C242.643 153.679 241.194 154.062 239.705 154.349C239.283 158.898 242.086 163.271 246.625 164.658C246.88 164.737 247.134 164.801 247.389 164.857C247.381 164.865 247.365 164.881 247.357 164.889C251.347 166.299 253.553 170.617 252.303 174.712C251.02 178.918 246.577 181.284 242.372 180.002C238.168 178.719 235.803 174.273 237.085 170.067C237.363 169.143 237.801 168.306 238.351 167.581C238.638 167.032 238.884 166.45 239.076 165.837C240.326 161.726 238.813 157.432 235.604 154.922C234.6 155.002 233.589 155.05 232.562 155.05C212.287 155.05 195.859 138.606 195.859 118.331C195.859 98.0472 212.295 81.6118 232.562 81.6118C252.836 81.6118 269.264 98.0552 269.264 118.331C269.264 122.983 268.396 127.429 266.82 131.516C267.496 133.3 268.771 135.611 270.929 138.638C272.282 140.327 272.88 142.574 272.37 144.828ZM275.189 131.731C275.189 129.197 277.244 127.142 279.776 127.142C282.308 127.142 284.363 129.197 284.363 131.731C284.363 134.264 282.308 136.32 279.776 136.32C277.244 136.32 275.189 134.264 275.189 131.731ZM349.144 123.525C348.77 123.525 348.403 123.509 348.037 123.493L348.021 123.541C336.658 126.775 324.474 123.071 316.885 114.284C316.614 102.214 313.811 90.7815 308.985 80.4725C312.131 77.2778 316.694 75.5889 321.448 76.3378C322.77 76.5449 324.012 76.9273 325.174 77.4611C325.174 77.4451 325.174 77.4372 325.174 77.4212C327.341 78.7597 329.889 79.5324 332.62 79.5324C335.447 79.5324 338.083 78.6959 340.297 77.2699C348.802 74.6727 357.975 79.0465 361.192 87.4594C361.599 88.519 361.877 89.6025 362.06 90.678C365.779 94.1435 368.113 99.075 368.113 104.564C368.097 115.032 359.608 123.525 349.144 123.525ZM397.178 156.747C395.896 156.747 394.861 155.711 394.861 154.428C394.861 153.146 395.896 152.11 397.178 152.11C398.461 152.11 399.496 153.146 399.496 154.428C399.488 155.703 398.453 156.747 397.178 156.747Z" fill="#12BEF0"/>
<path d="M452.149 141.888C448.605 140.956 445.89 140 443.811 139.06C436.509 138.909 430.632 132.942 430.632 125.596C430.632 119.709 434.407 114.714 439.663 112.873V102.262C439.663 93.6097 431.978 87.1248 423.091 87.1248C413.726 87.1248 406.519 93.6097 406.519 102.262V139.028H400.236C399.599 139.953 398.946 141.554 398.349 144.223C398.413 145.896 397.609 147.481 396.135 148.254C394.025 149.361 391.333 148.381 390.123 146.079C389.685 145.25 389.51 144.358 389.55 143.514C389.359 142.741 388.586 140.725 385.576 139.036H376.49C387.933 112.587 397.593 90.8373 408.399 66.0686C410.509 67.2158 413.185 67.0325 415.144 65.4073C416.569 64.2203 417.31 62.5233 417.326 60.8025C418.751 59.2729 421.092 58.771 423.258 59.5517C423.553 60.0696 424.015 60.4998 424.604 60.7547C426.061 61.3921 427.757 60.7229 428.395 59.2649C429.032 57.807 428.363 56.1101 426.905 55.4727C425.448 54.8354 423.752 55.5046 423.115 56.9625C423.051 57.1059 423.003 57.2493 422.972 57.3927C421.363 58.6276 418.966 58.8188 416.896 57.6795C416.649 57.5441 416.41 57.3848 416.187 57.2254C416.107 57.1139 416.028 57.0024 415.94 56.8908C415.621 56.5084 415.263 56.1818 414.881 55.895C414.674 55.7436 414.459 55.6002 414.236 55.4807C413.909 55.2975 413.559 55.1461 413.209 55.0346C413.806 53.6643 414.403 52.286 415.008 50.8839C415.183 50.4855 415.351 50.0952 415.526 49.6968C415.566 49.5933 415.613 49.4976 415.653 49.402C416.617 47.243 416.617 45.5541 416.617 44.1121C416.617 43.3314 416.545 42.5665 416.41 41.8177C416.951 40.9015 417.525 40.4155 417.795 40.2323C418.329 39.8977 418.815 39.4675 419.221 38.9337C420.909 36.6632 420.431 33.4605 418.17 31.7795C416.896 30.8315 415.335 30.5686 413.909 30.9191C411.974 31.3015 410.453 31.4608 409.259 31.4768C408.12 30.712 406.894 30.0667 405.628 29.5807C405.428 29.509 405.229 29.4373 405.03 29.3656C403.414 28.8159 401.733 28.5052 400.061 28.5052C393.818 28.5052 387.567 32.1141 385.17 37.8741L367.372 78.8393C359.592 80.4407 351.565 76.1944 348.626 68.4984C348.244 67.4946 347.432 65.7101 346.707 63.9016C346.532 62.1569 346.038 60.5077 345.282 59.002C342.957 54.3574 338.155 51.1627 332.604 51.1627C324.944 51.1627 318.708 57.2334 318.438 64.8337C318.422 64.8257 318.414 64.8178 318.398 64.8098C318.366 65.1763 318.334 65.5507 318.27 65.9252C317.347 71.7808 312.919 76.2103 307.464 77.4212C293.425 50.3421 265.155 31.8432 232.562 31.8432C217.814 31.8432 203.957 35.6354 191.901 42.2877C190.316 42.9011 188.596 43.2517 186.797 43.2517C179.048 43.2517 172.773 37.0137 172.773 29.3178C172.773 28.4335 172.861 27.5731 173.02 26.7286C173.458 25.5495 173.697 24.2668 173.697 22.9364C173.697 16.8737 168.784 11.9581 162.724 11.9581C156.664 11.9581 151.75 16.8737 151.75 22.9364C151.75 28.8318 156.393 33.6437 162.222 33.8987C162.214 33.9226 162.198 33.9385 162.19 33.9624C162.548 33.9305 162.907 33.9146 163.273 33.9146C170.759 33.9146 176.835 39.9853 176.835 47.4821C176.835 50.2386 176.014 52.8039 174.597 54.939C159.642 69.1039 149.871 88.6863 148.414 110.555C146.502 113.28 142.855 114.276 139.821 112.738C139.423 112.539 139.065 112.308 138.722 112.045C138.308 111.607 137.822 111.232 137.249 110.945C134.908 109.766 132.121 110.475 130.592 112.491C130.568 112.459 130.544 112.435 130.52 112.403C130.448 112.587 130.369 112.77 130.273 112.953C130.249 113.001 130.217 113.041 130.194 113.089C128.306 116.634 123.52 117.861 119.236 115.957V96.7168C119.236 88.0649 111.552 81.5799 102.665 81.5799C100.578 81.5799 98.6033 81.9065 96.7876 82.4961C90.9267 80.6 86.1168 76.3139 83.4969 70.753C87.2635 62.1489 91.1257 53.2978 95.2189 43.8412C96.1824 41.6822 96.1824 39.9933 96.1824 38.5513C96.1824 35.7629 95.2587 33.11 93.7218 30.8076C94.9163 30.7199 95.8639 29.7161 95.8639 28.4972C95.8639 27.2145 94.8287 26.1789 93.5466 26.1789C92.4636 26.1789 91.5637 26.9198 91.3089 27.9156C88.1475 24.8723 83.8473 22.9284 79.6108 22.9284C73.3676 22.9284 67.1165 26.5374 64.7195 32.2974L56.5333 51.2105C53.4754 52.3976 51.3253 51.9594 50.5927 51.7283C49.7167 51.3858 48.7611 51.1946 47.7577 51.2025C43.577 51.2344 40.2085 54.5805 40.2404 58.6913C40.2563 61.0017 41.3473 63.0571 43.0355 64.4115C45.4086 66.5067 47.0331 68.2435 48.1161 69.6935C52.257 70.5459 55.3786 74.2106 55.3786 78.6083C55.3786 83.6353 51.3093 87.7064 46.2845 87.7064C44.4689 87.7064 42.7727 87.1726 41.3552 86.2484L24.704 124.68C23.5573 124.887 22.753 124.704 22.4265 124.601C21.901 124.385 21.3356 124.274 20.7303 124.274C18.2299 124.274 16.1992 126.305 16.1992 128.807C16.1992 130.209 16.8363 131.46 17.8317 132.288C18.8908 133.252 19.6872 134.089 20.3003 134.822L18.5962 138.75C17.1548 141.873 16.1913 146.199 16.1913 147.162C16.1913 151.377 17.8476 155.352 20.6985 158.332C19.8624 162.602 16.3426 166.004 11.8194 166.466C11.1824 166.53 10.5533 166.53 9.93214 166.474C9.04822 166.251 8.10855 166.171 7.14499 166.267C2.77315 166.713 -0.404195 170.617 0.0417483 174.99C0.487692 179.364 4.3897 182.543 8.76154 182.097C13.0139 181.659 16.1355 177.954 15.8966 173.732C15.9126 173.74 15.9285 173.748 15.9444 173.748C15.8966 173.493 15.8568 173.23 15.8329 172.967C15.2835 167.565 19.2094 162.738 24.6164 162.18C25.1977 162.124 25.7791 162.116 26.3445 162.156C27.523 162.642 28.7892 163 30.1191 163.224C30.3022 163.319 30.4933 163.415 30.6685 163.526C30.6765 163.455 30.6765 163.383 30.6765 163.311C31.5047 163.423 32.3647 163.486 33.2407 163.486H86.1089V183.196C86.1089 191.848 93.3156 198.333 102.68 198.333C112.045 198.333 119.252 191.848 119.252 183.196V163.486H122.374C126.26 163.486 129.756 162.26 132.487 160.212C132.917 161.893 134.43 163.144 136.238 163.16C138.396 163.176 140.164 161.439 140.18 159.28C140.195 157.248 138.667 155.567 136.692 155.352C137.822 153.257 138.459 150.883 138.459 148.342C138.459 147.003 138.252 145.689 137.878 144.43C140.195 143.793 142.616 143.458 145.109 143.458C147.888 143.458 150.58 143.88 153.144 144.669C160.629 165.558 176.118 182.631 195.907 192.199C194.68 199.385 189.807 205.734 182.52 208.459C181.278 208.921 180.012 209.256 178.754 209.471C176.835 209.479 174.884 209.813 172.98 210.522C172.59 210.666 172.208 210.833 171.826 211.008C167.987 210.22 165.113 206.818 165.144 202.779C165.152 202.237 165.208 201.703 165.312 201.185C165.566 200.492 165.718 199.743 165.726 198.963C165.758 195.338 162.843 192.374 159.22 192.342C155.596 192.31 152.634 195.226 152.602 198.851C152.57 202.38 155.326 205.272 158.814 205.455C158.806 205.471 158.798 205.487 158.79 205.495C159.005 205.479 159.22 205.471 159.435 205.471C163.91 205.511 167.517 209.176 167.478 213.653C167.478 213.741 167.47 213.829 167.462 213.916C162.684 218.362 160.789 225.412 163.209 231.905C166.419 240.509 175.99 244.875 184.583 241.665C192.944 238.542 197.3 229.404 194.585 220.991C194.617 220.991 194.656 220.999 194.688 221.007C194.457 220.513 194.242 220.011 194.043 219.493C190.587 210.228 194.242 200.046 202.277 194.955C211.666 198.564 221.859 200.548 232.522 200.548C245.844 200.548 258.442 197.449 269.647 191.944C275.269 190.988 278.119 193.019 278.876 193.681C278.948 193.752 279.019 193.816 279.091 193.88C279.457 194.222 279.863 194.533 280.301 194.812C281.512 202.484 271.797 203.241 263.658 204.603C246.609 207.471 234.21 199.56 222.289 213C217.153 218.792 209.627 239.776 215.504 247.217C224.71 258.873 239.346 247.895 249.842 244.317C267.074 238.438 279.824 237.793 297.574 242.979C311.804 247.138 339.047 263.167 352.688 249.743C363.072 239.521 352.919 232.805 350.92 221.373C347.934 204.284 355.22 201.098 335.025 199.608C317.275 198.293 300.042 200.126 291.554 186.765C291.418 186.232 291.219 185.722 290.964 185.228C289.849 182.75 289.125 180.743 288.687 179.101C304.335 165.112 314.727 145.37 316.558 123.19C325.397 124.832 333.377 130.504 337.605 139.22C338.29 140.63 338.847 142.072 339.293 143.53L338.959 144.294C337.518 147.417 336.554 151.743 336.554 152.707C336.554 155.209 337.143 157.631 338.218 159.814C336.984 164.275 332.819 167.462 328.025 167.239C327.38 167.207 326.759 167.111 326.162 166.968C325.318 166.617 324.402 166.402 323.439 166.354C319.051 166.155 315.332 169.549 315.133 173.939C314.934 178.329 318.326 182.049 322.714 182.256C326.982 182.447 330.613 179.245 330.996 175.03C331.012 175.038 331.028 175.046 331.036 175.054C331.028 174.791 331.028 174.528 331.036 174.266C331.282 168.84 335.877 164.642 341.308 164.889C341.619 164.905 341.929 164.936 342.24 164.976C345.162 167.478 349.072 169.039 353.611 169.039H406.456V188.749C406.456 197.401 413.662 203.886 423.027 203.886C424.206 203.886 425.345 203.782 426.444 203.591C430.608 204.882 433.22 209.112 432.376 213.462C432.273 214.012 432.105 214.538 431.906 215.04C431.516 215.693 431.221 216.426 431.062 217.222C430.346 220.895 432.742 224.456 436.422 225.173C440.101 225.89 443.652 223.492 444.369 219.812C445.062 216.235 442.808 212.777 439.304 211.932C439.312 211.917 439.328 211.909 439.336 211.893C439.113 211.869 438.898 211.837 438.675 211.789C434.136 210.905 431.166 206.507 432.05 201.958C432.082 201.799 432.121 201.655 432.161 201.496C436.692 198.859 439.607 194.23 439.607 188.733V174.433C443.31 163.821 449.282 161.981 450.947 161.67C452.213 161.551 453.471 161.192 454.673 160.571C459.587 158.005 461.49 151.935 458.918 147.019C457.524 144.302 454.976 142.494 452.149 141.888ZM86.1089 96.6929V133.46H56.0873C65.2132 112.364 73.2084 94.2471 81.5618 75.2065C85.209 78.7995 87.6697 83.6114 88.2908 88.997C86.8972 91.2277 86.1089 93.8408 86.1089 96.6929ZM133.1 137.268C130.289 134.926 126.562 133.46 122.39 133.46H121.545C120.908 133.587 120.247 133.595 119.587 133.46H119.26V133.38C118.766 133.245 118.265 133.021 117.771 132.703C113.646 130.026 115.629 123.031 119.276 121.159C121.545 117.924 126.379 116.976 130.6 119.103C130.711 119.159 130.823 119.223 130.934 119.287C131.356 119.749 131.866 120.147 132.455 120.442C135.011 121.733 138.109 120.761 139.503 118.291C139.511 118.299 139.519 118.315 139.527 118.323C139.59 118.163 139.662 117.996 139.742 117.845C141.326 114.706 145.069 113.391 148.246 114.77C148.238 115.248 148.23 115.726 148.23 116.204C148.23 118.347 148.31 120.474 148.469 122.585C144.989 129.245 139.582 134.471 133.1 137.268ZM177.71 120.012C176.444 120.012 175.417 118.984 175.417 117.717C175.417 116.451 176.444 115.423 177.71 115.423C178.977 115.423 180.004 116.451 180.004 117.717C180.004 118.984 178.977 120.012 177.71 120.012ZM213.267 55.7436C215.831 55.7436 217.901 57.8229 217.901 60.3803C217.901 62.9456 215.823 65.0169 213.267 65.0169C210.702 65.0169 208.632 62.9376 208.632 60.3803C208.632 57.8229 210.71 55.7436 213.267 55.7436ZM224.439 175.54C221.493 175.54 219.096 173.15 219.096 170.194C219.096 167.247 221.485 164.849 224.439 164.849C227.385 164.849 229.774 167.239 229.774 170.194C229.774 173.15 227.385 175.54 224.439 175.54ZM264.988 178.161C263.722 178.161 262.695 177.134 262.695 175.867C262.695 174.6 263.722 173.572 264.988 173.572C266.254 173.572 267.281 174.6 267.281 175.867C267.281 177.134 266.254 178.161 264.988 178.161ZM272.37 144.828C271.478 148.836 267.441 151.345 263.364 150.429C262.384 150.214 261.5 149.815 260.72 149.282C259.939 148.836 257.327 147.648 253.003 148.828C250.535 150.485 247.851 151.855 245.008 152.883C244.467 153.201 244.164 153.297 244.061 153.209C242.643 153.679 241.194 154.062 239.705 154.349C239.283 158.898 242.086 163.271 246.625 164.658C246.88 164.737 247.134 164.801 247.389 164.857C247.381 164.865 247.365 164.881 247.357 164.889C251.347 166.299 253.553 170.617 252.303 174.712C251.02 178.918 246.577 181.284 242.372 180.002C238.168 178.719 235.803 174.273 237.085 170.067C237.363 169.143 237.801 168.306 238.351 167.581C238.638 167.032 238.884 166.45 239.076 165.837C240.326 161.726 238.813 157.432 235.604 154.922C234.6 155.002 233.589 155.05 232.562 155.05C212.287 155.05 195.859 138.606 195.859 118.331C195.859 98.0472 212.295 81.6118 232.562 81.6118C252.836 81.6118 269.264 98.0552 269.264 118.331C269.264 122.983 268.396 127.429 266.82 131.516C267.496 133.3 268.771 135.611 270.929 138.638C272.282 140.327 272.88 142.574 272.37 144.828ZM275.189 131.731C275.189 129.197 277.244 127.142 279.776 127.142C282.308 127.142 284.363 129.197 284.363 131.731C284.363 134.264 282.308 136.32 279.776 136.32C277.244 136.32 275.189 134.264 275.189 131.731ZM349.144 123.525C348.77 123.525 348.403 123.509 348.037 123.493L348.021 123.541C336.658 126.775 324.474 123.071 316.885 114.284C316.614 102.214 313.811 90.7815 308.985 80.4725C312.131 77.2778 316.694 75.5889 321.448 76.3378C322.77 76.5449 324.012 76.9273 325.174 77.4611C325.174 77.4451 325.174 77.4372 325.174 77.4212C327.341 78.7597 329.889 79.5324 332.62 79.5324C335.447 79.5324 338.083 78.6959 340.297 77.2699C348.802 74.6727 357.975 79.0465 361.192 87.4594C361.599 88.519 361.877 89.6025 362.06 90.678C365.779 94.1435 368.113 99.075 368.113 104.564C368.097 115.032 359.608 123.525 349.144 123.525ZM397.178 156.747C395.896 156.747 394.861 155.711 394.861 154.428C394.861 153.146 395.896 152.11 397.178 152.11C398.461 152.11 399.496 153.146 399.496 154.428C399.488 155.703 398.453 156.747 397.178 156.747Z" fill="url(#paint16_linear)"/>
<path d="M457.564 128.034C458.846 128.034 459.881 126.999 459.881 125.716C459.881 124.433 458.846 123.398 457.564 123.398C456.282 123.398 455.247 124.433 455.247 125.716C455.247 126.999 456.282 128.034 457.564 128.034Z" fill="#12BEF0"/>
<path d="M457.564 128.034C458.846 128.034 459.881 126.999 459.881 125.716C459.881 124.433 458.846 123.398 457.564 123.398C456.282 123.398 455.247 124.433 455.247 125.716C455.247 126.999 456.282 128.034 457.564 128.034Z" fill="url(#paint17_linear)"/>
<path d="M245.668 230.308C250.09 230.308 253.676 226.832 253.676 222.3C253.676 217.768 250.09 214.292 245.668 214.292C241.246 214.292 237.66 217.768 237.66 222.3C237.66 226.832 241.246 230.308 245.668 230.308ZM245.668 226.876C243.16 226.876 241.18 225.05 241.18 222.3C241.18 219.55 243.16 217.724 245.668 217.724C248.176 217.724 250.156 219.55 250.156 222.3C250.156 225.05 248.176 226.876 245.668 226.876ZM270.178 214.6V226.612H266.438V214.6H262.918V226.612H259.178V214.6H255.658V230H273.698V214.6H270.178ZM284.927 230H288.447V214.6H285.807L279.867 222.96V214.6H276.347V230H278.987L284.927 221.64V230ZM297.026 220.32H294.606V217.988H300.986V214.6H291.086V230H297.026C300.172 230 302.306 228.086 302.306 225.16C302.306 222.234 300.172 220.32 297.026 220.32ZM297.026 226.7H294.606V223.62H297.026C297.994 223.62 298.786 224.038 298.786 225.16C298.786 226.282 297.994 226.7 297.026 226.7ZM316.407 230L310.995 222.102L316.187 214.6H312.183L307.475 221.288V214.6H303.955V230H307.475V222.872L312.403 230H316.407ZM327.946 230H331.796L326.56 214.6H322.072L316.836 230H320.686L321.456 227.58H327.176L327.946 230ZM322.512 224.28L324.316 218.626L326.12 224.28H322.512Z" fill="white"/>
<defs>
<linearGradient id="paint0_linear" x1="241.5" y1="0" x2="241.5" y2="255" gradientUnits="userSpaceOnUse">
<stop stop-color="#12BEF0"/>
<stop offset="1" stop-color="#A9F012"/>
</linearGradient>
<linearGradient id="paint1_linear" x1="241.5" y1="0" x2="241.5" y2="255" gradientUnits="userSpaceOnUse">
<stop stop-color="#12BEF0"/>
<stop offset="1" stop-color="#A9F012"/>
</linearGradient>
<linearGradient id="paint2_linear" x1="241.5" y1="0" x2="241.5" y2="255" gradientUnits="userSpaceOnUse">
<stop stop-color="#12BEF0"/>
<stop offset="1" stop-color="#A9F012"/>
</linearGradient>
<linearGradient id="paint3_linear" x1="241.5" y1="0" x2="241.5" y2="255" gradientUnits="userSpaceOnUse">
<stop stop-color="#12BEF0"/>
<stop offset="1" stop-color="#A9F012"/>
</linearGradient>
<linearGradient id="paint4_linear" x1="241.5" y1="0" x2="241.5" y2="255" gradientUnits="userSpaceOnUse">
<stop stop-color="#12BEF0"/>
<stop offset="1" stop-color="#A9F012"/>
</linearGradient>
<linearGradient id="paint5_linear" x1="241.5" y1="0" x2="241.5" y2="255" gradientUnits="userSpaceOnUse">
<stop stop-color="#12BEF0"/>
<stop offset="1" stop-color="#A9F012"/>
</linearGradient>
<linearGradient id="paint6_linear" x1="241.5" y1="0" x2="241.5" y2="255" gradientUnits="userSpaceOnUse">
<stop stop-color="#12BEF0"/>
<stop offset="1" stop-color="#A9F012"/>
</linearGradient>
<linearGradient id="paint7_linear" x1="241.5" y1="0" x2="241.5" y2="255" gradientUnits="userSpaceOnUse">
<stop stop-color="#12BEF0"/>
<stop offset="1" stop-color="#A9F012"/>
</linearGradient>
<linearGradient id="paint8_linear" x1="241.5" y1="0" x2="241.5" y2="255" gradientUnits="userSpaceOnUse">
<stop stop-color="#12BEF0"/>
<stop offset="1" stop-color="#A9F012"/>
</linearGradient>
<linearGradient id="paint9_linear" x1="241.5" y1="0" x2="241.5" y2="255" gradientUnits="userSpaceOnUse">
<stop stop-color="#12BEF0"/>
<stop offset="1" stop-color="#A9F012"/>
</linearGradient>
<linearGradient id="paint10_linear" x1="241.5" y1="0" x2="241.5" y2="255" gradientUnits="userSpaceOnUse">
<stop stop-color="#12BEF0"/>
<stop offset="1" stop-color="#A9F012"/>
</linearGradient>
<linearGradient id="paint11_linear" x1="241.5" y1="0" x2="241.5" y2="255" gradientUnits="userSpaceOnUse">
<stop stop-color="#12BEF0"/>
<stop offset="1" stop-color="#A9F012"/>
</linearGradient>
<linearGradient id="paint12_linear" x1="241.5" y1="0" x2="241.5" y2="255" gradientUnits="userSpaceOnUse">
<stop stop-color="#12BEF0"/>
<stop offset="1" stop-color="#A9F012"/>
</linearGradient>
<linearGradient id="paint13_linear" x1="241.5" y1="0" x2="241.5" y2="255" gradientUnits="userSpaceOnUse">
<stop stop-color="#12BEF0"/>
<stop offset="1" stop-color="#A9F012"/>
</linearGradient>
<linearGradient id="paint14_linear" x1="241.5" y1="0" x2="241.5" y2="255" gradientUnits="userSpaceOnUse">
<stop stop-color="#12BEF0"/>
<stop offset="1" stop-color="#A9F012"/>
</linearGradient>
<linearGradient id="paint15_linear" x1="241.5" y1="0" x2="241.5" y2="255" gradientUnits="userSpaceOnUse">
<stop stop-color="#12BEF0"/>
<stop offset="1" stop-color="#A9F012"/>
</linearGradient>
<linearGradient id="paint16_linear" x1="241.5" y1="0" x2="241.5" y2="255" gradientUnits="userSpaceOnUse">
<stop stop-color="#12BEF0"/>
<stop offset="1" stop-color="#A9F012"/>
</linearGradient>
<linearGradient id="paint17_linear" x1="241.5" y1="0" x2="241.5" y2="255" gradientUnits="userSpaceOnUse">
<stop stop-color="#12BEF0"/>
<stop offset="1" stop-color="#A9F012"/>
</linearGradient>
</defs>
</svg>
