<svg width="77" height="73" viewBox="0 0 77 73" fill="none" xmlns="http://www.w3.org/2000/svg">
<path d="M9.8655 19.352C7.82219 19.352 6.15938 21.0007 6.15938 23.0266C6.15938 25.0525 7.82219 26.7012 9.8655 26.7012C11.9088 26.7012 13.5716 25.0525 13.5716 23.0266C13.5716 21.0007 11.9088 19.352 9.8655 19.352ZM9.8655 24.2514C9.18481 24.2514 8.63013 23.7015 8.63013 23.0266C8.63013 22.3517 9.18481 21.8017 9.8655 21.8017C10.5462 21.8017 11.1009 22.3517 11.1009 23.0266C11.1009 23.7015 10.5462 24.2514 9.8655 24.2514Z" fill="#A9F012"/>
<path d="M76.2136 30.0168L74.4668 28.2849L56.7887 45.8126C56.7219 45.7378 56.6688 45.6533 56.5972 45.5811L46.2027 35.2751L47.8001 33.6914L46.0533 31.9595L42.3854 35.5961C40.42 37.5436 37.3772 37.813 35.1128 36.4032L44.0903 27.572C44.0915 27.5708 44.0915 27.5696 44.0927 27.5684L67.5648 4.29612L65.818 2.56418L43.2206 24.9692L41.6232 23.3855C41.3922 23.1552 41.0772 23.0266 40.7498 23.0266H36.3198L16.9158 3.78781L15.169 5.51975L26.6493 16.9023L10.8489 32.5682L2.05301 24.5736L0.382782 26.3802L14.807 39.4886V42.6243C14.807 42.9488 14.9367 43.2612 15.169 43.4902L20.5119 48.7877C20.024 49.4406 19.7485 50.222 19.7485 51.05C19.7485 53.1127 21.4064 54.7871 23.4682 54.8593C23.5398 56.8583 25.1582 58.4628 27.1743 58.5339C27.246 60.5329 28.8643 62.1374 30.8804 62.2085C30.9533 64.2527 32.6433 65.8965 34.7224 65.8965C35.2475 65.8965 35.7564 65.7899 36.2259 65.5927L36.3198 65.6858C37.2525 66.6118 38.494 67.1213 39.8146 67.1213C41.1353 67.1213 42.3756 66.6118 43.3083 65.6858L56.5972 52.5101C57.5311 51.5841 58.045 50.3543 58.045 49.0462C58.045 48.7326 58.0117 48.4239 57.9536 48.1214L76.2136 30.0168ZM12.6723 34.2254L28.3961 18.6343L31.5908 21.8017L16.0053 37.2545L12.6723 34.2254ZM24.5837 52.0213C24.3218 52.2798 23.9747 52.4231 23.6041 52.4231C22.8406 52.4231 22.2192 51.807 22.2192 51.05C22.2192 50.6826 22.3638 50.3384 22.6244 50.0787L28.5023 44.2509C28.7642 43.9924 29.1114 43.8491 29.482 43.8491C30.2454 43.8491 30.8668 44.4652 30.8668 45.2222C30.8668 45.5896 30.7223 45.9338 30.4616 46.1935L24.5837 52.0213ZM28.2898 55.6959C28.0279 55.9543 27.6808 56.0977 27.3102 56.0977C26.5467 56.0977 25.9253 55.4816 25.9253 54.7246C25.9253 54.3571 26.0699 54.013 26.3305 53.7533L32.2084 47.9254C32.4703 47.667 32.8175 47.5237 33.1881 47.5237C33.9516 47.5237 34.5729 48.1398 34.5729 48.8967C34.5729 49.2642 34.4284 49.6084 34.1677 49.868L28.2898 55.6959ZM31.996 59.3705C31.7341 59.6289 31.3869 59.7722 31.0163 59.7722C30.2529 59.7722 29.6315 59.1561 29.6315 58.3992C29.6315 58.0317 29.776 57.6875 30.0367 57.4278L35.9146 51.6C36.1765 51.3415 36.5236 51.1982 36.8942 51.1982C37.6577 51.1982 38.2791 51.8143 38.2791 52.5713C38.2791 52.9388 38.1345 53.2829 37.8739 53.5426L31.996 59.3705ZM35.7021 63.045C35.4402 63.3035 35.093 63.4468 34.7224 63.4468C33.959 63.4468 33.3376 62.8307 33.3376 62.0737C33.3376 61.7063 33.4821 61.3621 33.7428 61.1024L39.6207 55.2746C39.8826 55.0161 40.2297 54.8728 40.6003 54.8728C41.3638 54.8728 41.9852 55.4889 41.9852 56.2459C41.9852 56.6133 41.8406 56.9575 41.58 57.2172L35.7021 63.045ZM54.8504 50.7781L41.5615 63.9539C40.6633 64.8443 39.1315 64.8688 38.1852 64.0482L43.328 58.9491C44.0544 58.2277 44.4559 57.2674 44.4559 56.2459C44.4559 54.1832 42.7981 52.5088 40.7362 52.4366C40.6646 50.4376 39.0462 48.833 37.0301 48.762C36.9585 46.763 35.3401 45.1585 33.324 45.0874C33.2511 43.0432 31.5611 41.3994 29.482 41.3994C28.4517 41.3994 27.4831 41.7975 26.7555 42.5189L22.2192 47.0166L17.2777 42.1172V39.4568L33.3376 23.5337L34.9349 25.1174C35.1659 25.3477 35.4809 25.4763 35.8083 25.4763H40.2384L41.47 26.6975L32.39 35.6303C32.1566 35.8606 32.0244 36.1754 32.0256 36.5024C32.0268 36.8295 32.159 37.143 32.3938 37.3721C35.6415 40.5445 40.9092 40.5249 44.1323 37.3268L44.4559 37.0071L54.8504 47.313C55.3173 47.776 55.5743 48.3909 55.5743 49.0462C55.5743 49.7015 55.3173 50.3151 54.8504 50.7781Z" fill="#A9F012"/>
<path d="M8.99703 52.3484L6.82896 53.5242C7.23539 54.2604 7.67519 54.9941 8.13598 55.7033L10.2139 54.378C9.78397 53.7165 9.37506 53.0343 8.99703 52.3484Z" fill="#A9F012"/>
<path d="M26.6246 67.4962L25.7586 69.7903C26.5504 70.0843 27.367 70.3537 28.1873 70.5914L28.8816 68.2409C28.1194 68.0192 27.3608 67.7693 26.6246 67.4962Z" fill="#A9F012"/>
<path d="M18.2883 62.9752L16.8046 64.935C17.484 65.4408 18.1919 65.9283 18.906 66.384L20.2426 64.3238C19.578 63.8988 18.9195 63.4456 18.2883 62.9752Z" fill="#A9F012"/>
<path d="M22.2921 65.5327L21.1062 67.6811C21.8498 68.0841 22.6195 68.4675 23.3941 68.819L24.4231 66.5922C23.7017 66.2639 22.9852 65.9075 22.2921 65.5327Z" fill="#A9F012"/>
<path d="M14.6896 59.8812L12.9416 61.6119C13.542 62.2085 14.172 62.7903 14.8132 63.3414L16.4327 61.4907C15.8348 60.9775 15.2493 60.4349 14.6896 59.8812Z" fill="#A9F012"/>
<path d="M11.5703 56.3145L9.59372 57.7843C10.1052 58.4604 10.645 59.1243 11.1985 59.7575L13.0651 58.1517C12.5512 57.5626 12.0484 56.944 11.5703 56.3145Z" fill="#A9F012"/>
<path d="M5.00802 38.8652L2.54345 39.0391C2.60275 39.8781 2.69416 40.7257 2.81399 41.5599L5.26003 41.2145C5.14885 40.4367 5.06361 39.6466 5.00802 38.8652Z" fill="#A9F012"/>
<path d="M2.54345 33.9694C2.48292 34.8023 2.45327 35.6536 2.45327 36.5V36.5037L4.92401 36.5C4.92401 35.7112 4.95242 34.9175 5.00802 34.1434L2.54345 33.9694Z" fill="#A9F012"/>
<path d="M5.68006 43.5356L3.26614 44.0561C3.44651 44.8804 3.65899 45.7072 3.89742 46.5132L6.2681 45.8248C6.04696 45.074 5.84931 44.3035 5.68006 43.5356Z" fill="#A9F012"/>
<path d="M7.0192 48.0626L4.70411 48.92C5.0006 49.7064 5.32921 50.4939 5.68253 51.2595L7.92967 50.2416C7.60106 49.5275 7.29469 48.7951 7.0192 48.0626Z" fill="#A9F012"/>
<path d="M68.6285 50.2404C68.2974 50.9557 67.9379 51.6661 67.5586 52.3533L69.7267 53.5291C70.1331 52.7918 70.5198 52.0287 70.8744 51.2607L68.6285 50.2404Z" fill="#A9F012"/>
<path d="M66.3418 54.3841C65.9119 55.0455 65.4536 55.6971 64.9804 56.323L66.957 57.7941C67.466 57.1229 67.9577 56.421 68.4197 55.7106L66.3418 54.3841Z" fill="#A9F012"/>
<path d="M63.4831 58.1603C62.9655 58.7531 62.4195 59.3349 61.8599 59.8886L63.6054 61.6217C64.2071 61.0265 64.7939 60.4018 65.3498 59.7661L63.4831 58.1603Z" fill="#A9F012"/>
<path d="M70.2925 45.8187C70.0689 46.572 69.8169 47.3252 69.5414 48.0577L71.8553 48.9151C72.153 48.1275 72.4235 47.3167 72.6632 46.507L70.2925 45.8187Z" fill="#A9F012"/>
<path d="M71.2993 41.2083C71.1869 41.9873 71.0448 42.7688 70.8781 43.5319L73.2932 44.05C73.4724 43.2306 73.6243 42.3915 73.7441 41.5537L71.2993 41.2083Z" fill="#A9F012"/>
<path d="M60.1155 61.4993C59.5201 62.0113 58.8962 62.5098 58.2612 62.9826L59.7437 64.9423C60.4244 64.4365 61.0939 63.9012 61.7338 63.3512L60.1155 61.4993Z" fill="#A9F012"/>
<path d="M31.1893 68.8239L30.6667 71.2173C31.4932 71.3949 32.3394 71.5455 33.1844 71.6643L33.5328 69.2403C32.7471 69.1289 31.9589 68.988 31.1893 68.8239Z" fill="#A9F012"/>
<path d="M71.6341 36.5C71.6341 37.2876 71.6069 38.0825 71.5514 38.8603L74.0159 39.033C74.0752 38.1964 74.1049 37.3439 74.1049 36.5H71.6341Z" fill="#A9F012"/>
<path d="M43.0315 69.2379C42.2483 69.3481 41.4515 69.4326 40.6621 69.4878L40.8375 71.9313C41.6838 71.8726 42.5386 71.7819 43.3799 71.6631L43.0315 69.2379Z" fill="#A9F012"/>
<path d="M38.2791 69.5711C37.4847 69.5711 36.6854 69.5441 35.901 69.489L35.7268 71.9326C36.5693 71.9914 37.4291 72.0208 38.2803 72.0208L38.2791 69.5711Z" fill="#A9F012"/>
<path d="M56.3081 64.3287C55.6459 64.7513 54.9578 65.1567 54.2623 65.5339L55.4483 67.6836C56.1944 67.2781 56.9332 66.8433 57.6448 66.3889L56.3081 64.3287Z" fill="#A9F012"/>
<path d="M52.1362 66.591C51.416 66.9168 50.6773 67.2218 49.9398 67.4937L50.8033 69.7891C51.5964 69.4951 52.3907 69.1693 53.1628 68.819L52.1362 66.591Z" fill="#A9F012"/>
<path d="M47.6815 68.2396C46.9242 68.4589 46.1484 68.6549 45.3726 68.8227L45.8976 71.216C46.729 71.0372 47.5629 70.8265 48.3758 70.5901L47.6815 68.2396Z" fill="#A9F012"/>
<path d="M52.6897 4.08545L51.6013 6.28529C52.287 6.61845 52.9924 6.99448 53.6978 7.40235L54.943 5.28581C54.1857 4.84853 53.4272 4.44433 52.6897 4.08545Z" fill="#A9F012"/>
<path d="M38.2791 0.979218L37.7627 0.982892L37.7985 3.4326L38.2791 3.42893C38.9313 3.42893 39.5688 3.44362 40.1914 3.47302L40.3075 1.02576C39.6466 0.995141 38.9721 0.979218 38.2791 0.979218Z" fill="#A9F012"/>
<path d="M47.8952 2.23224L47.2022 4.58396C47.9496 4.80076 48.7007 5.05431 49.4345 5.33847L50.3351 3.0578C49.5333 2.74668 48.713 2.46987 47.8952 2.23224Z" fill="#A9F012"/>
<path d="M42.8537 1.23031L42.567 3.66287C43.3651 3.75596 44.1533 3.87845 44.9093 4.02788L45.3911 1.62472C44.5721 1.46303 43.7184 1.33075 42.8537 1.23031Z" fill="#A9F012"/>
<path d="M25.2718 3.39218C24.48 3.69839 23.6906 4.03645 22.9246 4.39779L23.9833 6.6111C24.6974 6.27549 25.4337 5.95947 26.1712 5.67408L25.2718 3.39218Z" fill="#A9F012"/>
<path d="M30.1577 1.89663C29.3288 2.08771 28.4974 2.30941 27.6882 2.55805L28.4183 4.89875C29.1707 4.66725 29.944 4.46025 30.7161 4.28265L30.1577 1.89663Z" fill="#A9F012"/>
<path d="M35.2092 1.10783C34.3605 1.18009 33.5056 1.28176 32.6692 1.41282L33.0547 3.83313C33.8317 3.71064 34.6273 3.6151 35.4179 3.54896L35.2092 1.10783Z" fill="#A9F012"/>
</svg>
