<svg width="12" height="16" viewBox="0 0 12 16" fill="none" xmlns="http://www.w3.org/2000/svg">
<path d="M6 0C9.30842 0 12 2.59944 12 5.79457C12 9.75982 6.63059 15.581 6.40198 15.8269C6.18725 16.0579 5.81236 16.0575 5.59802 15.8269C5.36941 15.581 -9.53674e-07 9.75982 -9.53674e-07 5.79457C6.38962e-05 2.59944 2.69161 0 6 0ZM6 8.70998C7.66455 8.70998 9.01872 7.40213 9.01872 5.79457C9.01872 4.187 7.66451 2.87919 6 2.87919C4.33548 2.87919 2.98131 4.18704 2.98131 5.7946C2.98131 7.40217 4.33548 8.70998 6 8.70998Z" fill="#12BEF0"/>
</svg>
