<svg width="19" height="14" viewBox="0 0 19 14" fill="none" xmlns="http://www.w3.org/2000/svg">
<path d="M19 11.6666C19 12.0758 18.8828 12.4552 18.6952 12.789L12.6961 6.1946L18.6301 1.09393C18.8609 1.45383 19 1.87659 19 2.33344V11.6666ZM9.50002 7.39195L17.757 0.293997C17.4182 0.111759 17.0366 0 16.6251 0H2.37499C1.96288 0 1.58121 0.111759 1.24374 0.293997L9.50002 7.39195ZM11.802 6.96253L9.89074 8.60656C9.77894 8.70224 9.63974 8.75002 9.50002 8.75002C9.36022 8.75002 9.22102 8.70224 9.10922 8.60656L7.19752 6.96245L1.12255 13.6411C1.48668 13.8655 1.91343 14 2.37495 14H16.6251C17.0865 14 17.5134 13.8655 17.8775 13.6411L11.802 6.96253ZM0.369967 1.09389C0.139168 1.45379 0 1.87655 0 2.33344V11.6666C0 12.0759 0.116613 12.4552 0.305003 12.789L6.30338 6.19349L0.369967 1.09389Z" fill="#A9F012"/>
</svg>
