<svg width="61" height="61" viewBox="0 0 61 61" fill="none" xmlns="http://www.w3.org/2000/svg">
<path d="M50.9922 0C45.4738 0 40.9844 4.48958 40.9844 10.0078C40.9844 15.526 45.4738 20.0156 50.9922 20.0156C56.5105 20.0156 61 15.526 61 10.0078C61 4.48958 56.5105 0 50.9922 0ZM50.9922 17.6328C46.7877 17.6328 43.3672 14.2123 43.3672 10.0078C43.3672 5.80334 46.7877 2.38281 50.9922 2.38281C55.1967 2.38281 58.6172 5.80334 58.6172 10.0078C58.6172 14.2123 55.1967 17.6328 50.9922 17.6328Z" fill="#85E3FE"/>
<path d="M37.6568 17.9819C37.4352 17.7603 37.1278 17.6328 36.8145 17.6328C36.5011 17.6328 36.1937 17.7602 35.9721 17.9819C35.7505 18.2035 35.623 18.5109 35.623 18.8242C35.623 19.1376 35.7505 19.4449 35.9721 19.6664C36.1937 19.888 36.5011 20.0156 36.8145 20.0156C37.1278 20.0156 37.4352 19.8881 37.6568 19.6664C37.8784 19.4449 38.0059 19.1376 38.0059 18.8242C38.0059 18.5109 37.8784 18.2035 37.6568 17.9819Z" fill="#85E3FE"/>
<path d="M47.6562 23.4906C46.9982 23.4906 46.4648 24.0241 46.4648 24.682V30.0234H16.4414V20.0156H30.5C31.158 20.0156 31.6914 19.4821 31.6914 18.8242C31.6914 18.1663 31.158 17.6328 30.5 17.6328H15.25C14.592 17.6328 14.0586 18.1663 14.0586 18.8242V31.2148C14.0586 31.8727 14.592 32.4062 15.25 32.4062H47.6562C48.3143 32.4062 48.8477 31.8727 48.8477 31.2148V24.682C48.8477 24.0241 48.3143 23.4906 47.6562 23.4906Z" fill="#85E3FE"/>
<path d="M47.6562 42.4141H34.3401C33.6821 42.4141 33.1487 42.9476 33.1487 43.6055C33.1487 44.2634 33.6821 44.7969 34.3401 44.7969H47.6562C48.3143 44.7969 48.8477 44.2634 48.8477 43.6055C48.8477 42.9476 48.3143 42.4141 47.6562 42.4141Z" fill="#85E3FE"/>
<path d="M47.6562 36.2188H34.3401C33.6821 36.2188 33.1487 36.7523 33.1487 37.4102C33.1487 38.0681 33.6821 38.6016 34.3401 38.6016H47.6562C48.3143 38.6016 48.8477 38.0681 48.8477 37.4102C48.8477 36.7523 48.3143 36.2188 47.6562 36.2188Z" fill="#85E3FE"/>
<path d="M47.6562 48.6094H34.3401C33.6821 48.6094 33.1487 49.1429 33.1487 49.8008C33.1487 50.4587 33.6821 50.9922 34.3401 50.9922H47.6562C48.3143 50.9922 48.8477 50.4587 48.8477 49.8008C48.8477 49.1429 48.3143 48.6094 47.6562 48.6094Z" fill="#85E3FE"/>
<path d="M28.5661 36.2188H21.9081C21.25 36.2188 20.7166 36.7523 20.7166 37.4102C20.7166 38.0681 21.25 38.6016 21.9081 38.6016H27.3747V48.6094H15.25C14.592 48.6094 14.0586 49.1429 14.0586 49.8008C14.0586 50.4587 14.592 50.9922 15.25 50.9922H28.5661C29.2241 50.9922 29.7575 50.4587 29.7575 49.8008V37.4102C29.7575 36.7523 29.2241 36.2188 28.5661 36.2188Z" fill="#85E3FE"/>
<path d="M53.375 24.0068C52.717 24.0068 52.1836 24.5403 52.1836 25.1982V35.4809C52.1836 36.1388 52.717 36.6723 53.375 36.6723C54.033 36.6723 54.5664 36.1388 54.5664 35.4809V25.1982C54.5664 24.5403 54.033 24.0068 53.375 24.0068Z" fill="#85E3FE"/>
<path d="M54.2173 39.4272C53.9957 39.2056 53.6883 39.0781 53.375 39.0781C53.0617 39.0781 52.7543 39.2055 52.5327 39.4272C52.3111 39.6488 52.1836 39.9562 52.1836 40.2695C52.1836 40.5829 52.3111 40.8903 52.5327 41.1117C52.7543 41.3333 53.0617 41.4609 53.375 41.4609C53.6883 41.4609 53.9957 41.3335 54.2173 41.1117C54.4389 40.8903 54.5664 40.5829 54.5664 40.2695C54.5664 39.9562 54.4389 39.6488 54.2173 39.4272Z" fill="#85E3FE"/>
<path d="M53.375 44.4024C52.717 44.4024 52.1836 44.9359 52.1836 45.5938V57.4258C52.1836 58.0827 51.6491 58.6172 50.9922 58.6172H11.9141C11.2571 58.6172 10.7227 58.0827 10.7227 57.4258V50.3837L17.9311 44.7796C19.2268 43.7725 19.8257 42.1484 19.4945 40.5412C19.2496 39.3523 18.5074 38.3202 17.4585 37.7093C16.4096 37.0988 15.1456 36.9627 13.991 37.3362L9.16453 38.8976C8.53845 39.1002 8.19521 39.7719 8.39763 40.398C8.60017 41.024 9.272 41.3674 9.89797 41.1649L14.7245 39.6034C15.2432 39.4357 15.7883 39.4943 16.2595 39.7687C16.7307 40.043 17.0508 40.4882 17.1608 41.0221C17.3073 41.7337 17.0422 42.4525 16.4687 42.8985L8.79996 48.8603C8.50962 49.0859 8.33984 49.433 8.33984 49.8008V57.7994C8.33984 57.8955 8.35152 57.9245 8.37308 57.9063C8.60862 59.6506 10.1062 61 11.9141 61H50.9922C52.963 61 54.5664 59.3966 54.5664 57.4258V45.5938C54.5664 44.9359 54.033 44.4024 53.375 44.4024Z" fill="#85E3FE"/>
<path d="M36.2584 8.10156H11.9141C9.94324 8.10156 8.33984 9.70496 8.33984 11.6758V26.2507L0.196463 38.6103C0.0683867 38.8049 0 39.0327 0 39.2658V59.8086C0 60.4665 0.533393 61 1.19141 61C1.84942 61 2.38281 60.4665 2.38281 59.8086V39.623L8.33984 30.5817V35.4809C8.33984 36.1388 8.87324 36.6723 9.53125 36.6723C10.1893 36.6723 10.7227 36.1388 10.7227 35.4809V11.6758C10.7227 11.0188 11.2571 10.4844 11.9141 10.4844H36.2584C36.9164 10.4844 37.4498 9.95086 37.4498 9.29297C37.4498 8.63507 36.9164 8.10156 36.2584 8.10156Z" fill="#85E3FE"/>
<path d="M55.5075 7.24053C55.0421 6.77553 54.2879 6.77541 53.8225 7.24053L50.7539 10.3092L49.6408 9.19611C49.1755 8.73098 48.4211 8.73098 47.9559 9.19611C47.4906 9.66147 47.4906 10.4158 47.9559 10.8811L49.9115 12.8366C50.1441 13.0691 50.449 13.1855 50.7539 13.1855C51.0588 13.1855 51.3638 13.0691 51.5964 12.8366L55.5075 8.92554C55.9727 8.46029 55.9729 7.7059 55.5075 7.24053Z" fill="#85E3FE"/>
</svg>
