<svg width="167" height="167" viewBox="0 0 167 167" fill="none" xmlns="http://www.w3.org/2000/svg">
<circle cx="83.5" cy="83.5" r="53.5" stroke="#8CE5FF" stroke-opacity="0.5" stroke-width="2"/>
<circle cx="83.5" cy="83.5" r="82.5" stroke="#8CE5FF" stroke-opacity="0.2" stroke-width="2"/>
<path d="M102.992 53C97.4738 53 92.9844 57.4896 92.9844 63.0078C92.9844 68.526 97.4738 73.0156 102.992 73.0156C108.511 73.0156 113 68.526 113 63.0078C113 57.4896 108.511 53 102.992 53ZM102.992 70.6328C98.7877 70.6328 95.3672 67.2123 95.3672 63.0078C95.3672 58.8033 98.7877 55.3828 102.992 55.3828C107.197 55.3828 110.617 58.8033 110.617 63.0078C110.617 67.2123 107.197 70.6328 102.992 70.6328Z" fill="#85E3FE"/>
<path d="M89.6568 70.9819C89.4352 70.7603 89.1278 70.6328 88.8145 70.6328C88.5011 70.6328 88.1937 70.7602 87.9721 70.9819C87.7505 71.2035 87.623 71.5109 87.623 71.8242C87.623 72.1376 87.7505 72.4449 87.9721 72.6664C88.1937 72.888 88.5011 73.0156 88.8145 73.0156C89.1278 73.0156 89.4352 72.8881 89.6568 72.6664C89.8784 72.4449 90.0059 72.1376 90.0059 71.8242C90.0059 71.5109 89.8784 71.2035 89.6568 70.9819Z" fill="#85E3FE"/>
<path d="M99.6562 76.4906C98.9982 76.4906 98.4648 77.0241 98.4648 77.682V83.0234H68.4414V73.0156H82.5C83.158 73.0156 83.6914 72.4821 83.6914 71.8242C83.6914 71.1663 83.158 70.6328 82.5 70.6328H67.25C66.592 70.6328 66.0586 71.1663 66.0586 71.8242V84.2148C66.0586 84.8727 66.592 85.4062 67.25 85.4062H99.6562C100.314 85.4062 100.848 84.8727 100.848 84.2148V77.682C100.848 77.0241 100.314 76.4906 99.6562 76.4906Z" fill="#85E3FE"/>
<path d="M99.6562 95.4141H86.3401C85.6821 95.4141 85.1487 95.9476 85.1487 96.6055C85.1487 97.2634 85.6821 97.7969 86.3401 97.7969H99.6562C100.314 97.7969 100.848 97.2634 100.848 96.6055C100.848 95.9476 100.314 95.4141 99.6562 95.4141Z" fill="#85E3FE"/>
<path d="M99.6562 89.2188H86.3401C85.6821 89.2188 85.1487 89.7523 85.1487 90.4102C85.1487 91.0681 85.6821 91.6016 86.3401 91.6016H99.6562C100.314 91.6016 100.848 91.0681 100.848 90.4102C100.848 89.7523 100.314 89.2188 99.6562 89.2188Z" fill="#85E3FE"/>
<path d="M99.6562 101.609H86.3401C85.6821 101.609 85.1487 102.143 85.1487 102.801C85.1487 103.459 85.6821 103.992 86.3401 103.992H99.6562C100.314 103.992 100.848 103.459 100.848 102.801C100.848 102.143 100.314 101.609 99.6562 101.609Z" fill="#85E3FE"/>
<path d="M80.5661 89.2188H73.9081C73.25 89.2188 72.7166 89.7523 72.7166 90.4102C72.7166 91.0681 73.25 91.6016 73.9081 91.6016H79.3747V101.609H67.25C66.592 101.609 66.0586 102.143 66.0586 102.801C66.0586 103.459 66.592 103.992 67.25 103.992H80.5661C81.2241 103.992 81.7575 103.459 81.7575 102.801V90.4102C81.7575 89.7523 81.2241 89.2188 80.5661 89.2188Z" fill="#85E3FE"/>
<path d="M105.375 77.0068C104.717 77.0068 104.184 77.5403 104.184 78.1982V88.4809C104.184 89.1388 104.717 89.6723 105.375 89.6723C106.033 89.6723 106.566 89.1388 106.566 88.4809V78.1982C106.566 77.5403 106.033 77.0068 105.375 77.0068Z" fill="#85E3FE"/>
<path d="M106.217 92.4272C105.996 92.2056 105.688 92.0781 105.375 92.0781C105.062 92.0781 104.754 92.2055 104.533 92.4272C104.311 92.6488 104.184 92.9562 104.184 93.2695C104.184 93.5829 104.311 93.8903 104.533 94.1117C104.754 94.3333 105.062 94.4609 105.375 94.4609C105.688 94.4609 105.996 94.3335 106.217 94.1117C106.439 93.8903 106.566 93.5829 106.566 93.2695C106.566 92.9562 106.439 92.6488 106.217 92.4272Z" fill="#85E3FE"/>
<path d="M105.375 97.4024C104.717 97.4024 104.184 97.9359 104.184 98.5938V110.426C104.184 111.083 103.649 111.617 102.992 111.617H63.9141C63.2571 111.617 62.7227 111.083 62.7227 110.426V103.384L69.9311 97.7796C71.2268 96.7725 71.8257 95.1484 71.4945 93.5412C71.2496 92.3523 70.5074 91.3202 69.4585 90.7093C68.4096 90.0988 67.1456 89.9627 65.991 90.3362L61.1645 91.8976C60.5385 92.1002 60.1952 92.7719 60.3976 93.398C60.6002 94.024 61.272 94.3674 61.898 94.1649L66.7245 92.6034C67.2432 92.4357 67.7883 92.4943 68.2595 92.7687C68.7307 93.043 69.0508 93.4882 69.1608 94.0221C69.3073 94.7337 69.0422 95.4525 68.4687 95.8985L60.8 101.86C60.5096 102.086 60.3398 102.433 60.3398 102.801V110.799C60.3398 110.896 60.3515 110.925 60.3731 110.906C60.6086 112.651 62.1062 114 63.9141 114H102.992C104.963 114 106.566 112.397 106.566 110.426V98.5938C106.566 97.9359 106.033 97.4024 105.375 97.4024Z" fill="#85E3FE"/>
<path d="M88.2584 61.1016H63.9141C61.9432 61.1016 60.3398 62.705 60.3398 64.6758V79.2507L52.1965 91.6103C52.0684 91.8049 52 92.0327 52 92.2658V112.809C52 113.466 52.5334 114 53.1914 114C53.8494 114 54.3828 113.466 54.3828 112.809V92.623L60.3398 83.5817V88.4809C60.3398 89.1388 60.8732 89.6723 61.5312 89.6723C62.1893 89.6723 62.7227 89.1388 62.7227 88.4809V64.6758C62.7227 64.0188 63.2571 63.4844 63.9141 63.4844H88.2584C88.9164 63.4844 89.4498 62.9509 89.4498 62.293C89.4498 61.6351 88.9164 61.1016 88.2584 61.1016Z" fill="#85E3FE"/>
<path d="M107.507 60.2405C107.042 59.7755 106.288 59.7754 105.822 60.2405L102.754 63.3092L101.641 62.1961C101.176 61.731 100.421 61.731 99.9559 62.1961C99.4906 62.6615 99.4906 63.4158 99.9559 63.8811L101.911 65.8366C102.144 66.0691 102.449 66.1855 102.754 66.1855C103.059 66.1855 103.364 66.0691 103.596 65.8366L107.507 61.9255C107.973 61.4603 107.973 60.7059 107.507 60.2405Z" fill="#85E3FE"/>
</svg>
