<svg width="68" height="68" viewBox="0 0 68 68" fill="none" xmlns="http://www.w3.org/2000/svg">
<g clip-path="url(#clip0)">
<path d="M67.8689 37.141C67.2584 31 64.5148 25.2104 60.1434 20.8388C56.4075 17.1032 51.835 14.7025 47.0237 13.6351V10.2606C48.9888 9.77167 50.4495 7.99289 50.4495 5.87861C50.4495 3.3886 48.4238 1.36292 45.9338 1.36292H36.3711C33.8811 1.36292 31.8554 3.3886 31.8554 5.87861C31.8554 7.99275 33.3161 9.77154 35.2811 10.2606V13.6445C30.4845 14.7165 25.9271 17.1138 22.2019 20.839C21.3867 21.6542 20.635 22.5094 19.9469 23.3982C19.9136 23.3957 19.8802 23.3931 19.8462 23.3931H10.3817C9.64831 23.3931 9.05357 23.9877 9.05357 24.7213C9.05357 25.4548 9.64831 26.0494 10.3817 26.0494H18.1397C17.1659 27.6797 16.3807 29.3918 15.783 31.1543H1.32815C0.594744 31.1543 0 31.7489 0 32.4824C0 33.216 0.594744 33.8106 1.32815 33.8106H15.0325C14.6497 35.4908 14.43 37.2008 14.3733 38.9156H8.50013C7.76673 38.9156 7.17199 39.5102 7.17199 40.2437C7.17199 40.9772 7.76673 41.5719 8.50013 41.5719H14.4157C14.5278 43.291 14.8042 45.0011 15.245 46.6769H6.64073C5.90733 46.6769 5.31258 47.2715 5.31258 48.005C5.31258 48.7385 5.90733 49.3331 6.64073 49.3331H16.0926C17.3955 52.7798 19.4317 56.0103 22.2019 58.7805C26.5777 63.1562 32.3732 65.9004 38.5206 66.5078C39.398 66.5944 40.276 66.6373 41.1529 66.6373C46.3355 66.6373 51.4524 65.1374 55.7941 62.3101C56.4087 61.9098 56.5826 61.087 56.1823 60.4723C55.782 59.8576 54.9592 59.6838 54.3445 60.0841C44.8407 66.2729 32.1127 64.9347 24.0802 56.9022C14.6554 47.4775 14.6554 32.1423 24.0802 22.7174C33.5049 13.2927 48.84 13.2927 58.265 22.7174C66.2868 30.7394 67.6322 43.4565 61.4639 52.9557C61.0644 53.5709 61.2393 54.3935 61.8544 54.7929C62.4699 55.1924 63.2923 55.0175 63.6916 54.4023C66.9873 49.3268 68.4708 43.1967 67.8689 37.141ZM34.5117 5.87874C34.5117 4.85341 35.3458 4.01934 36.3711 4.01934H45.9338C46.9591 4.01934 47.7932 4.85341 47.7932 5.87874C47.7932 6.90407 46.9591 7.73815 45.9338 7.73815H45.6955H36.6093H36.3711C35.3458 7.73815 34.5117 6.90394 34.5117 5.87874ZM37.9374 13.1879V10.3944H44.3674V13.1831C42.2322 12.9292 40.0721 12.9308 37.9374 13.1879Z" fill="#164883"/>
<path d="M59.2047 56.5126C58.8541 56.5126 58.5128 56.6547 58.2659 56.9017C58.0175 57.1488 57.8766 57.4914 57.8766 57.8407C57.8766 58.19 58.0175 58.5327 58.2659 58.7797C58.5128 59.0281 58.8542 59.1689 59.2047 59.1689C59.554 59.1689 59.8954 59.0281 60.1437 58.7797C60.3907 58.5327 60.5329 58.19 60.5329 57.8407C60.5329 57.4914 60.3909 57.1488 60.1437 56.9017C59.8954 56.6547 59.5539 56.5126 59.2047 56.5126Z" fill="#164883"/>
<path d="M41.1727 19.2062C29.812 19.2062 20.5693 28.4487 20.5693 39.8096C20.5693 51.1704 29.812 60.413 41.1727 60.413C52.5333 60.413 61.776 51.1704 61.776 39.8096C61.776 28.4487 52.5333 19.2062 41.1727 19.2062ZM41.1727 57.7567C31.2765 57.7567 23.2256 49.7056 23.2256 39.8096C23.2256 29.9136 31.2765 21.8625 41.1727 21.8625C51.0688 21.8625 59.1198 29.9136 59.1198 39.8096C59.1198 49.7056 51.0688 57.7567 41.1727 57.7567Z" fill="#A9F012"/>
<path d="M49.574 29.53L42.9957 36.1082C42.4455 35.8362 41.8268 35.6825 41.1726 35.6825C40.5184 35.6825 39.8997 35.8362 39.3496 36.1082L36.4055 33.1641C35.8868 32.6454 35.046 32.6454 34.5271 33.1641C34.0085 33.6827 34.0085 34.5237 34.5271 35.0423L37.4712 37.9864C37.1991 38.5366 37.0456 39.1553 37.0456 39.8095C37.0456 42.0851 38.8969 43.9365 41.1726 43.9365C43.4484 43.9365 45.2997 42.0851 45.2997 39.8095C45.2997 39.1553 45.1461 38.5366 44.874 37.9864L51.2592 31.6012L51.4522 31.4083C51.9709 30.8896 51.9709 30.0486 51.4522 29.53C50.9336 29.0114 50.0929 29.0114 49.574 29.53ZM41.1726 41.2804C40.3617 41.2804 39.7019 40.6206 39.7019 39.8096C39.7019 38.9986 40.3617 38.3388 41.1726 38.3388C41.9836 38.3388 42.6434 38.9986 42.6434 39.8096C42.6434 40.6206 41.9836 41.2804 41.1726 41.2804Z" fill="#164883"/>
<path d="M55.373 38.4976H54.1425C53.4091 38.4976 52.8144 39.0922 52.8144 39.8257C52.8144 40.5593 53.4091 41.1539 54.1425 41.1539H55.373C56.1064 41.1539 56.7011 40.5593 56.7011 39.8257C56.7011 39.0922 56.1064 38.4976 55.373 38.4976Z" fill="#A9F012"/>
<path d="M28.2026 38.4652H26.9722C26.2388 38.4652 25.6441 39.0598 25.6441 39.7933C25.6441 40.5269 26.2388 41.1215 26.9722 41.1215H28.2026C28.936 41.1215 29.5307 40.5269 29.5307 39.7933C29.5307 39.0598 28.936 38.4652 28.2026 38.4652Z" fill="#A9F012"/>
<path d="M41.1888 28.1676C41.9222 28.1676 42.517 27.573 42.517 26.8395V25.6091C42.517 24.8756 41.9222 24.281 41.1888 24.281C40.4555 24.281 39.8607 24.8756 39.8607 25.6091V26.8395C39.8607 27.573 40.4555 28.1676 41.1888 28.1676Z" fill="#A9F012"/>
<path d="M41.1564 51.4514C40.423 51.4514 39.8283 52.046 39.8283 52.7795V54.0099C39.8283 54.7434 40.423 55.338 41.1564 55.338C41.8898 55.338 42.4846 54.7434 42.4846 54.0099V52.7795C42.4846 52.046 41.8898 51.4514 41.1564 51.4514Z" fill="#A9F012"/>
<path d="M1.32812 46.6764C0.978828 46.6764 0.636172 46.8185 0.389141 47.0655C0.142109 47.3125 0 47.6552 0 48.0045C0 48.3551 0.141977 48.6964 0.389141 48.9435C0.636305 49.1905 0.978828 49.3326 1.32812 49.3326C1.67742 49.3326 2.02008 49.1905 2.26698 48.9435C2.51401 48.6964 2.65625 48.3538 2.65625 48.0045C2.65625 47.6552 2.51414 47.3125 2.26698 47.0655C2.02008 46.8185 1.67742 46.6764 1.32812 46.6764Z" fill="#164883"/>
</g>
<defs>
<clipPath id="clip0">
<rect width="68" height="68" fill="white"/>
</clipPath>
</defs>
</svg>
