<svg width="33" height="43" viewBox="0 0 33 43" fill="none" xmlns="http://www.w3.org/2000/svg">
<path d="M27.9125 8.23085C30.1455 8.23085 31.9598 6.38509 31.9598 4.11542C31.9598 1.84576 30.1455 0 27.9125 0C25.6795 0 23.8652 1.85459 23.8652 4.11542C23.8652 6.37626 25.6795 8.23085 27.9125 8.23085ZM27.9125 2.12836C28.9854 2.12836 29.8664 3.02033 29.8664 4.12426C29.8664 5.22818 28.9941 6.12015 27.9125 6.12015C26.8309 6.12015 25.9586 5.21935 25.9586 4.11542C25.9586 3.0115 26.8309 2.12836 27.9125 2.12836Z" fill="#A9F012"/>
<path d="M4.04731 34.7692C1.81431 34.7692 0 36.6149 0 38.8846C0 41.1542 1.81431 43 4.04731 43C6.28031 43 8.09463 41.1542 8.09463 38.8846C8.09463 36.6149 6.27159 34.7692 4.04731 34.7692ZM4.04731 40.8805C2.97443 40.8805 2.09344 39.9885 2.09344 38.8846C2.09344 37.7895 2.9657 36.8887 4.04731 36.8887C5.12892 36.8887 6.00119 37.7807 6.00119 38.8846C5.99247 39.9797 5.1202 40.8805 4.04731 40.8805Z" fill="#A9F012"/>
<path d="M14.0522 18.2368C14.2528 18.4399 14.5232 18.5459 14.7936 18.5459C15.064 18.5459 15.3257 18.4399 15.5351 18.2368C15.945 17.8217 15.945 17.1505 15.5351 16.7355L13.3544 14.5276L15.5351 12.3198C15.945 11.9047 15.945 11.2335 15.5351 10.8184C15.1251 10.4034 14.4622 10.4034 14.0522 10.8184L11.8715 13.0263L9.69088 10.8184C9.28091 10.4034 8.61799 10.4034 8.20802 10.8184C7.79806 11.2335 7.79806 11.9047 8.20802 12.3198L10.3887 14.5276L8.20802 16.7355C7.79806 17.1505 7.79806 17.8217 8.20802 18.2368C8.40864 18.4399 8.67905 18.5459 8.94945 18.5459C9.21985 18.5459 9.48153 18.4399 9.69088 18.2368L11.8715 16.029L14.0522 18.2368Z" fill="#A9F012"/>
<path d="M31.576 27.8189C31.1661 27.4038 30.5031 27.4038 30.0932 27.8189L27.9125 30.0267L25.7318 27.8189C25.3219 27.4038 24.659 27.4038 24.249 27.8189C23.839 28.2339 23.839 28.9051 24.249 29.3202L26.4297 31.528L24.249 33.7359C23.839 34.151 23.839 34.8221 24.249 35.2372C24.4496 35.4403 24.72 35.5463 24.9904 35.5463C25.2608 35.5463 25.5225 35.4403 25.7318 35.2372L27.9125 33.0294L30.0932 35.2372C30.2938 35.4403 30.5642 35.5463 30.8346 35.5463C31.105 35.5463 31.3667 35.4403 31.576 35.2372C31.986 34.8221 31.986 34.151 31.576 33.7359L29.3954 31.528L31.576 29.3202C31.986 28.8963 31.986 28.2339 31.576 27.8189Z" fill="#A9F012"/>
<path d="M19.1724 33.2855C18.7624 32.8704 18.0995 32.8704 17.6896 33.2855L15.5089 35.4933L13.3282 33.2855C12.9183 32.8704 12.2553 32.8704 11.8454 33.2855C11.4354 33.7006 11.4354 34.3717 11.8454 34.7868L14.026 36.9947L11.8454 39.2025C11.4354 39.6176 11.4354 40.2888 11.8454 40.7038C12.046 40.907 12.3164 41.0129 12.5868 41.0129C12.8572 41.0129 13.1189 40.907 13.3282 40.7038L15.5089 38.496L17.6896 40.7038C17.8902 40.907 18.1606 41.0129 18.431 41.0129C18.7014 41.0129 18.9631 40.907 19.1724 40.7038C19.5824 40.2888 19.5824 39.6176 19.1724 39.2025L16.9917 36.9947L19.1724 34.7868C19.5736 34.3717 19.5736 33.7006 19.1724 33.2855Z" fill="#A9F012"/>
<path d="M12.3949 25.3196C12.9706 25.3196 13.4416 24.8427 13.4416 24.2598C13.4416 23.6769 12.9706 23.2 12.3949 23.2C11.8192 23.2 11.3482 23.6769 11.3482 24.2598C11.3482 24.8427 11.8105 25.3196 12.3949 25.3196Z" fill="#A9F012"/>
<path d="M4.64045 28.4459C4.81491 28.5607 5.01553 28.6225 5.21615 28.6225C5.55633 28.6225 5.88779 28.4547 6.08842 28.1456C6.40243 27.6599 6.27159 26.9975 5.79185 26.6796C5.3121 26.3617 4.6579 26.4941 4.34388 26.9799C4.02115 27.4656 4.15199 28.128 4.64045 28.4459Z" fill="#A9F012"/>
<path d="M7.91145 23.9154C7.37937 24.1538 7.14386 24.7809 7.37937 25.3107C7.55382 25.7082 7.93762 25.9378 8.33886 25.9378C8.47843 25.9378 8.62671 25.9113 8.76627 25.8495C9.29835 25.611 9.53387 24.984 9.29835 24.4541C9.05403 23.9154 8.43481 23.6769 7.91145 23.9154Z" fill="#A9F012"/>
<path d="M16.5382 25.3196C17.1162 25.3196 17.5849 24.8451 17.5849 24.2598C17.5849 23.6745 17.1162 23.2 16.5382 23.2C15.9601 23.2 15.4914 23.6745 15.4914 24.2598C15.4914 24.8451 15.9601 25.3196 16.5382 25.3196Z" fill="#A9F012"/>
<path d="M4.04731 32.5878C4.32644 32.5878 4.59684 32.473 4.78874 32.2787C4.98064 32.0844 5.09403 31.8106 5.09403 31.528C5.09403 31.2454 4.98064 30.9717 4.78874 30.7774C4.59684 30.5831 4.32644 30.4683 4.04731 30.4683C3.76819 30.4683 3.49779 30.5831 3.30589 30.7774C3.11399 30.9717 3.0006 31.2454 3.0006 31.528C3.0006 31.8106 3.11399 32.0844 3.30589 32.2787C3.49779 32.473 3.76819 32.5878 4.04731 32.5878Z" fill="#A9F012"/>
<path d="M32.6925 15.031L28.6452 10.9333C28.2352 10.5182 27.5723 10.5182 27.1624 10.9333L23.115 15.031C22.7051 15.4461 22.7051 16.1173 23.115 16.5323C23.525 16.9474 24.1879 16.9474 24.5979 16.5323L26.8571 14.245V16.9827C26.8571 20.4093 24.0833 23.1912 20.6727 23.1912C20.097 23.1912 19.626 23.6681 19.626 24.251C19.626 24.8338 20.097 25.3107 20.6727 25.3107C25.2347 25.3107 28.9505 21.5751 28.9505 16.9827V14.2362L31.2097 16.5235C31.4103 16.7266 31.6807 16.8326 31.9511 16.8326C32.2215 16.8326 32.4832 16.7266 32.6925 16.5235C33.1025 16.1173 33.1025 15.4461 32.6925 15.031Z" fill="#A9F012"/>
</svg>
