<svg width="47" height="46" viewBox="0 0 47 46" fill="none" xmlns="http://www.w3.org/2000/svg">
<path d="M46.9094 25.2135C46.4874 20.8857 44.5911 16.8058 41.5696 13.725C38.9875 11.0924 35.8271 9.40067 32.5016 8.64843V6.27033C33.8599 5.9258 34.8695 4.67226 34.8695 3.18229C34.8695 1.42754 33.4694 0 31.7483 0H25.1389C23.4178 0 22.0177 1.42754 22.0177 3.18229C22.0177 4.67216 23.0273 5.9257 24.3855 6.27033V8.65508C21.0702 9.4105 17.9202 11.0999 15.3455 13.7251C14.782 14.2996 14.2624 14.9023 13.7868 15.5286C13.7638 15.5269 13.7407 15.5251 13.7172 15.5251H7.17559C6.66868 15.5251 6.25761 15.9441 6.25761 16.4611C6.25761 16.978 6.66868 17.397 7.17559 17.397H12.5377C11.8646 18.5459 11.3219 19.7525 10.9088 20.9945H0.917983C0.411073 20.9945 0 21.4135 0 21.9305C0 22.4474 0.411073 22.8664 0.917983 22.8664H10.3901C10.1255 24.0505 9.9737 25.2556 9.9345 26.464H5.87509C5.36818 26.464 4.95711 26.8831 4.95711 27.4C4.95711 27.9169 5.36818 28.336 5.87509 28.336H9.96378C10.0413 29.5475 10.2323 30.7526 10.537 31.9335H4.58991C4.083 31.9335 3.67193 32.3526 3.67193 32.8695C3.67193 33.3864 4.083 33.8055 4.58991 33.8055H11.1228C12.0234 36.2344 13.4307 38.5109 15.3455 40.4632C18.3698 43.5468 22.3755 45.4807 26.6245 45.9087C27.2309 45.9698 27.8378 46 28.4439 46C32.026 46 35.5626 44.943 38.5635 42.9505C38.9884 42.6684 39.1085 42.0886 38.8319 41.6554C38.5552 41.2223 37.9865 41.0997 37.5616 41.3818C30.9928 45.7432 22.1955 44.8002 16.6437 39.1395C10.1295 32.4977 10.1295 21.6908 16.6437 15.0489C23.1578 8.40714 33.7571 8.40714 40.2713 15.0489C45.8159 20.7021 46.7458 29.6641 42.4824 36.3583C42.2063 36.7919 42.3272 37.3716 42.7523 37.653C43.1777 37.9346 43.7461 37.8113 44.0221 37.3778C46.3 33.801 47.3254 29.481 46.9094 25.2135ZM23.8537 3.18238C23.8537 2.45982 24.4302 1.87203 25.1389 1.87203H31.7483C32.457 1.87203 33.0335 2.45982 33.0335 3.18238C33.0335 3.90495 32.457 4.49274 31.7483 4.49274H25.1389C24.4302 4.49274 23.8537 3.90486 23.8537 3.18238ZM26.2214 8.33329V6.36467H30.6657V8.32992C29.1899 8.15097 27.6969 8.15209 26.2214 8.33329Z" fill="#A9F012"/>
<path d="M40.9209 38.8649C40.6786 38.8649 40.4426 38.9651 40.272 39.1392C40.1003 39.3133 40.0029 39.5547 40.0029 39.8009C40.0029 40.0471 40.1003 40.2885 40.272 40.4626C40.4426 40.6376 40.6786 40.7369 40.9209 40.7369C41.1623 40.7369 41.3982 40.6376 41.5699 40.4626C41.7406 40.2885 41.8389 40.0471 41.8389 39.8009C41.8389 39.5547 41.7407 39.3133 41.5699 39.1392C41.3982 38.9651 41.1622 38.8649 40.9209 38.8649Z" fill="#A9F012"/>
<path d="M28.4576 12.5745C20.6053 12.5745 14.217 19.0879 14.217 27.094C14.217 35.1002 20.6053 41.6136 28.4576 41.6136C36.3098 41.6136 42.6981 35.1002 42.6981 27.094C42.6981 19.0879 36.3098 12.5745 28.4576 12.5745ZM28.4576 39.7417C21.6176 39.7417 16.0529 34.0679 16.0529 27.094C16.0529 20.1201 21.6176 14.4464 28.4576 14.4464C35.2975 14.4464 40.8622 20.1201 40.8622 27.094C40.8622 34.0679 35.2975 39.7417 28.4576 39.7417Z" fill="#A9F012"/>
<path d="M34.2643 19.8498L29.7176 24.4856C29.3373 24.2939 28.9097 24.1856 28.4576 24.1856C28.0054 24.1856 27.5778 24.2939 27.1975 24.4856L25.1626 22.4108C24.8041 22.0453 24.223 22.0453 23.8643 22.4108C23.5059 22.7763 23.5059 23.369 23.8643 23.7345L25.8992 25.8092C25.7111 26.1969 25.605 26.633 25.605 27.0939C25.605 28.6976 26.8846 30.0024 28.4576 30.0024C30.0305 30.0024 31.3101 28.6976 31.3101 27.0939C31.3101 26.633 31.2039 26.1969 31.0159 25.8092L35.5626 21.1735C35.921 20.808 35.921 20.2153 35.5626 19.8498C35.2041 19.4843 34.623 19.4843 34.2643 19.8498ZM28.4576 28.1305C27.897 28.1305 27.441 27.6655 27.441 27.094C27.441 26.5225 27.897 26.0575 28.4576 26.0575C29.0181 26.0575 29.4741 26.5225 29.4741 27.094C29.4741 27.6655 29.0181 28.1305 28.4576 28.1305Z" fill="#A9F012"/>
<path d="M38.2725 26.1695H37.422C36.9151 26.1695 36.504 26.5885 36.504 27.1054C36.504 27.6224 36.9151 28.0414 37.422 28.0414H38.2725C38.7794 28.0414 39.1905 27.6224 39.1905 27.1054C39.1905 26.5885 38.7794 26.1695 38.2725 26.1695Z" fill="#A9F012"/>
<path d="M19.493 26.1466H18.6426C18.1357 26.1466 17.7246 26.5657 17.7246 27.0826C17.7246 27.5995 18.1357 28.0186 18.6426 28.0186H19.493C19.9999 28.0186 20.4109 27.5995 20.4109 27.0826C20.4109 26.5657 19.9999 26.1466 19.493 26.1466Z" fill="#A9F012"/>
<path d="M28.4687 18.8898C28.9756 18.8898 29.3867 18.4707 29.3867 17.9538V17.0867C29.3867 16.5698 28.9756 16.1508 28.4687 16.1508C27.9618 16.1508 27.5508 16.5698 27.5508 17.0867V17.9538C27.5508 18.4707 27.9618 18.8898 28.4687 18.8898Z" fill="#A9F012"/>
<path d="M28.4463 35.2983C27.9394 35.2983 27.5284 35.7173 27.5284 36.2342V37.1013C27.5284 37.6182 27.9394 38.0372 28.4463 38.0372C28.9532 38.0372 29.3643 37.6182 29.3643 37.1013V36.2342C29.3643 35.7173 28.9532 35.2983 28.4463 35.2983Z" fill="#A9F012"/>
<path d="M0.917968 31.9332C0.676543 31.9332 0.439707 32.0333 0.268965 32.2074C0.0982228 32.3815 2.07436e-07 32.623 2.07436e-07 32.8691C2.07436e-07 33.1162 0.098131 33.3568 0.268965 33.5308C0.439799 33.7049 0.676543 33.8051 0.917968 33.8051C1.15939 33.8051 1.39623 33.7049 1.56688 33.5308C1.73762 33.3568 1.83594 33.1153 1.83594 32.8691C1.83594 32.623 1.73771 32.3815 1.56688 32.2074C1.39623 32.0333 1.15939 31.9332 0.917968 31.9332Z" fill="#A9F012"/>
</svg>
