<svg width="22" height="46" viewBox="0 0 22 46" fill="none" xmlns="http://www.w3.org/2000/svg">
<path d="M21.741 2.82577L19.2889 0.283008C19.1144 0.102152 18.8741 0 18.6226 0H7.01016C6.49911 0 6.0849 0.41391 6.0849 0.924582V1.38692H3.30903C2.79799 1.38692 2.38377 1.80083 2.38377 2.3115V6.01001C2.38377 6.52068 2.79799 6.93459 3.30903 6.93459H6.0849V7.39693C6.0849 7.9076 6.49911 8.32151 7.01016 8.32151H10.7907L9.43781 9.67339C9.07646 10.0345 9.07646 10.6199 9.43781 10.9811C9.61853 11.1616 9.85526 11.2519 10.0921 11.2519C10.3289 11.2519 10.5657 11.1616 10.7464 10.9811L12.0992 9.62918V11.1275C11.704 11.2327 11.4124 11.5918 11.4124 12.0199V15.7184C11.4124 16.1226 11.6724 16.4654 12.0341 16.5911C11.7283 17.8053 11.6774 19.087 11.8909 20.3597C12.1418 21.852 11.4029 23.3537 10.0525 24.0963C9.31436 24.502 8.59922 24.8694 7.90773 25.2247C5.83954 26.2872 4.0533 27.2049 2.66438 28.6116C1.10508 30.1909 0.277012 32.182 0.0585312 34.8779C0.0585312 34.878 0.0585312 34.8782 0.0585312 34.8782C0.0585312 34.8783 0.0585312 34.8785 0.0585312 34.8787C0.0585312 34.8788 0.0585312 34.8788 0.0585312 34.8789C0.0196903 35.355 0 35.867 0 36.4006V43.0162C0 44.6615 1.33947 46 2.98599 46H17.6002C19.0437 46 20.2791 44.9696 20.5379 43.5497C20.9019 41.5488 21.3804 38.4434 21.5937 35.0125C21.5937 35.0122 21.5938 35.0119 21.5938 35.0117C21.6751 33.7169 21.7124 32.4464 21.7049 31.2355C21.8742 25.1011 20.8511 18.7583 20.387 16.3793C20.5585 16.2115 20.6654 15.9777 20.6654 15.7189V12.0204C20.6654 11.5464 20.3081 11.1563 19.8483 11.1026L21.9641 3.72232C22.0552 3.40481 21.9701 3.06331 21.741 2.82577ZM6.08481 5.08543H4.2342V3.23617H6.08481V5.08543ZM8.75396 26.8695C9.45678 26.5084 10.1836 26.1349 10.9447 25.7167C12.9831 24.5957 14.0969 22.3199 13.7161 20.0538C13.5213 18.8929 13.5997 17.7257 13.9416 16.6433H15.4936C15.5054 19.2192 15.2931 26.9928 12.5899 34.0289H2.02252C2.67481 29.9924 5.14669 28.7227 8.75396 26.8695ZM13.263 14.7939V12.9447H18.8148V14.7939H13.263ZM18.7172 43.2185C18.6187 43.7587 18.1489 44.1507 17.6002 44.1507H2.98599C2.35995 44.1507 1.85061 43.6419 1.85061 43.0162C1.85061 43.0162 1.85304 36.0489 1.85771 35.8781H11.8105C11.3562 36.8633 10.8473 37.8229 10.275 38.7383C10.0043 39.1715 10.1362 39.7418 10.5697 40.0124C10.7222 40.1075 10.8916 40.1529 11.0591 40.1529C11.3675 40.1529 11.6692 39.9987 11.8447 39.7179C12.6104 38.4928 13.2675 37.1982 13.8328 35.8782H19.678C19.4479 38.8267 19.0371 41.4597 18.7172 43.2185ZM19.8546 31.1997C19.8543 31.2103 19.8541 31.221 19.8542 31.2316C19.8601 32.134 19.8402 33.0717 19.7946 34.0289H14.5611C15.8556 30.4486 16.5346 26.8278 16.8895 24.0042C17.3046 20.7023 17.3554 18.0086 17.3464 16.6433H18.5554C18.985 18.7976 20.0253 25.0894 19.8546 31.1997ZM17.9253 11.0954H13.9498V7.39702C13.9498 6.88634 13.5355 6.47243 13.0246 6.47243H7.93542V1.84925H18.2293L20.0382 3.7251L17.9253 11.0954Z" fill="#A9F012"/>
<path d="M9.79978 40.9851C9.40211 40.6644 8.8195 40.7266 8.49861 41.1239L8.46652 41.1634C8.14419 41.5597 8.20578 42.1402 8.60237 42.4623C8.77347 42.6013 8.97945 42.6688 9.18435 42.6688C9.45426 42.6688 9.72219 42.5515 9.90543 42.3263L9.9387 42.2852C10.2597 41.888 10.1975 41.3058 9.79978 40.9851Z" fill="#A9F012"/>
</svg>
