<svg width="52" height="38" viewBox="0 0 52 38" fill="none" xmlns="http://www.w3.org/2000/svg">
<path d="M45.8778 17.1054C44.1084 16.2249 40.7909 16.2147 40.6505 16.2147C40.2298 16.2147 39.8888 16.5541 39.8888 16.9729C39.8888 17.3917 40.2298 17.7311 40.6505 17.7311C41.5066 17.7312 43.9921 17.8625 45.1965 18.4619C45.3059 18.5164 45.4221 18.5421 45.5366 18.5421C45.816 18.5421 46.085 18.3884 46.2185 18.1228C46.4067 17.7482 46.2541 17.2928 45.8778 17.1054Z" fill="#A9F012"/>
<path d="M49.6754 27.901L46.5295 27.0062C46.3937 26.9676 46.2989 26.8424 46.2989 26.7018V25.6565C46.5548 25.48 46.799 25.2825 47.0272 25.062C48.1332 23.9936 48.7423 22.5605 48.7423 21.0266V19.5842L49.0465 18.9787C49.3803 18.314 49.5567 17.5698 49.5567 16.8267V12.9192C49.5567 12.5005 49.2157 12.161 48.795 12.161H41.4649C38.7995 12.161 36.631 14.3196 36.631 16.9729V17.0181C36.631 17.636 36.7777 18.2548 37.0553 18.8075L37.4454 19.5841V20.8226C37.4454 22.7853 38.417 24.5464 39.8888 25.6061L39.889 26.7016C39.889 26.8706 39.889 26.9405 39.26 27.1195L37.725 27.556L33.2846 25.9487C33.3005 25.7402 33.2298 25.5281 33.077 25.3682L31.658 23.8843V21.3932C31.8081 21.2701 31.9559 21.1438 32.0992 21.0101C33.8893 19.3399 34.9159 16.9819 34.9159 14.5406V12.5512C35.4564 11.3804 35.7303 10.1414 35.7303 8.86542V0.758247C35.7303 0.339492 35.3893 0 34.9686 0H23.5663C19.5535 0 16.289 3.24974 16.289 7.24409V8.86562C16.289 10.1416 16.5629 11.3806 17.1034 12.5514V14.2631C17.1034 17.0976 18.3695 19.6511 20.3612 21.3346V23.8844L18.9423 25.3683C18.7895 25.5281 18.7188 25.7403 18.7347 25.9488L14.0481 27.6452C13.7085 27.7681 13.3929 27.9346 13.1064 28.1363L12.3705 27.77C14.5612 26.8208 15.2552 25.4858 15.2885 25.4195C15.3958 25.206 15.3958 24.9547 15.2885 24.7413C14.7394 23.648 14.6728 21.6441 14.6194 20.034C14.6016 19.498 14.5848 18.9916 14.5526 18.5407C14.2929 14.9037 11.5154 12.161 8.09169 12.161C4.66802 12.161 1.89038 14.9036 1.63079 18.5407C1.59859 18.9917 1.58173 19.4981 1.56396 20.0342C1.51054 21.6442 1.44391 23.6479 0.894867 24.7412C0.787617 24.9546 0.787617 25.2059 0.894867 25.4194C0.92818 25.4857 1.62073 26.818 3.8158 27.7683L1.77166 28.7857C0.678844 29.33 0 30.4234 0 31.6395V37.2413C0 37.6601 0.341047 37.9996 0.761719 37.9996C1.18239 37.9996 1.52344 37.6601 1.52344 37.2413V31.6395C1.52344 31.0014 1.87962 30.4276 2.45294 30.1422L4.9984 28.8754L5.88382 29.713C6.50295 30.2986 7.29716 30.5913 8.09169 30.5913C8.88601 30.5913 9.68063 30.2984 10.2996 29.713L11.1849 28.8755L12.0148 29.2885C11.624 29.911 11.4022 30.641 11.4022 31.4056V37.2416C11.4022 37.6603 11.7433 37.9998 12.1639 37.9998C12.5846 37.9998 12.9257 37.6603 12.9257 37.2416V31.4056C12.9257 30.3647 13.5859 29.4262 14.5687 29.0705L19.51 27.2819L21.5669 30.3534C21.8298 30.7461 22.2512 30.9979 22.723 31.0444C22.7756 31.0496 22.8279 31.0521 22.8801 31.0521C23.2963 31.0521 23.6949 30.8891 23.9929 30.5925L25.2478 29.3433V37.2416C25.2478 37.6604 25.5889 37.9999 26.0095 37.9999C26.4302 37.9999 26.7713 37.6604 26.7713 37.2416V29.3433L28.0262 30.5925C28.3241 30.8892 28.7227 31.0522 29.139 31.0522C29.1911 31.0522 29.2435 31.0497 29.296 31.0445C29.7679 30.998 30.1893 30.7462 30.4522 30.3535L32.5092 27.2821L37.4504 29.0707C38.4331 29.4264 39.0934 30.3649 39.0934 31.4058V37.2418C39.0934 37.6605 39.4345 38 39.8552 38C40.2758 38 40.6169 37.6605 40.6169 37.2418V31.4058C40.6169 30.3515 40.1961 29.3628 39.4902 28.6315L39.6784 28.578C39.8683 28.524 40.1272 28.4501 40.3872 28.3232L42.3321 30.2592V37.2418C42.3321 37.6605 42.6731 38 43.0938 38C43.5145 38 43.8555 37.6605 43.8555 37.2418V30.2592L45.7868 28.3367C45.8895 28.3887 45.9974 28.4325 46.1109 28.4648L49.2569 29.3595C49.9749 29.5637 50.4766 30.2256 50.4766 30.9691V37.2418C50.4766 37.6605 50.8176 38 51.2383 38C51.659 38 52 37.6605 52 37.2418V30.9691C52 29.5519 51.0441 28.2903 49.6754 27.901ZM4.88668 26.5617C3.46186 26.0513 2.74716 25.3709 2.44207 24.9994C2.65007 24.4581 2.78495 23.8382 2.87625 23.1838C3.29631 24.1864 3.99984 25.0423 4.88668 25.6529V26.5617ZM9.25031 28.6138C8.60062 29.2283 7.58286 29.2282 6.93337 28.6137L6.22497 27.9436C6.34451 27.7207 6.41022 27.4679 6.41022 27.2032V26.395C6.94159 26.5603 7.50648 26.6494 8.09189 26.6494C8.67659 26.6494 9.24117 26.5599 9.77346 26.3955L9.77336 27.2031C9.77336 27.4679 9.83897 27.7208 9.95861 27.9438L9.25031 28.6138ZM8.09209 25.133C5.8175 25.133 3.96713 23.2909 3.96713 21.0268C3.96713 20.608 3.62609 20.2685 3.20541 20.2685C3.16276 20.2685 3.12112 20.2729 3.08039 20.2797C3.08262 20.2145 3.08476 20.1491 3.08699 20.0845C3.10395 19.5632 3.1203 19.0707 3.15047 18.6483C3.24777 17.2859 3.79468 16.0305 4.69046 15.1131C5.59427 14.1874 6.80225 13.6777 8.09189 13.6777C9.38153 13.6777 10.5894 14.1874 11.4933 15.1131C12.3891 16.0305 12.936 17.2859 13.0333 18.6483C13.0634 19.0706 13.0798 19.563 13.0971 20.0842C13.0986 20.129 13.1001 20.1744 13.1017 20.2195C12.2729 18.9485 10.993 18.0118 9.33928 17.4828C7.81148 16.9942 6.49746 17.0245 6.44201 17.0259C6.24254 17.0314 6.05323 17.1145 5.9148 17.2575L4.54045 18.6763C4.24846 18.9778 4.25719 19.4578 4.56005 19.7485C4.86291 20.0392 5.34513 20.0304 5.63713 19.729L6.78072 18.5484C7.76557 18.5964 10.934 18.9631 12.1663 21.6642C11.8562 23.6547 10.1376 25.133 8.09209 25.133ZM11.2967 26.5642L11.2968 25.6599C12.1829 25.0526 12.8875 24.1983 13.3078 23.1881C13.3991 23.841 13.5339 24.4595 13.7415 24.9996C13.4381 25.3676 12.7201 26.0541 11.2967 26.5642ZM18.6269 14.263V12.3818C18.6269 12.2676 18.601 12.1549 18.5511 12.0521C18.061 11.0417 17.8124 9.96963 17.8124 8.86562V7.24419C17.8124 4.08594 20.3936 1.51659 23.5663 1.51659H34.2069V8.86573C34.2069 9.96973 33.9583 11.0418 33.4682 12.0522C33.4183 12.155 33.3924 12.2677 33.3924 12.3819V14.5408C33.3924 16.5943 32.5632 18.4989 31.0574 19.9039C30.8694 20.0792 30.6743 20.2436 30.4726 20.3967C30.4681 20.3998 30.4639 20.4031 30.4595 20.4062C29.0489 21.4723 27.3211 21.9905 25.5168 21.8741C21.6532 21.6251 18.6269 18.2819 18.6269 14.263ZM22.9158 29.5201C22.9105 29.5253 22.8982 29.5378 22.8733 29.5351C22.8485 29.5327 22.8388 29.5182 22.8346 29.512L20.4657 25.9747L21.228 25.1773L24.8218 27.6226L22.9158 29.5201ZM26.0096 26.5939L21.8847 23.7872V22.3718C22.952 22.9462 24.1471 23.3054 25.4181 23.3873C25.6189 23.4002 25.8185 23.4066 26.0175 23.4066C27.474 23.4066 28.8757 23.06 30.1346 22.4022V23.7872L26.0096 26.5939ZM29.1847 29.5122C29.1805 29.5184 29.1708 29.5329 29.146 29.5353C29.1211 29.5385 29.1089 29.5254 29.1035 29.5203L27.1975 27.6229L30.7913 25.1775L31.5537 25.9749L29.1847 29.5122ZM43.0938 28.8724L41.3652 27.1518C41.3954 27.0154 41.4124 26.8661 41.4123 26.7014L41.4122 26.3814C41.8919 26.5381 42.3975 26.6311 42.9206 26.6467C42.9793 26.6485 43.0375 26.6493 43.096 26.6493C43.6741 26.6493 44.2384 26.5624 44.7755 26.3965V26.7018C44.7755 26.8531 44.7945 27.0013 44.8305 27.1437L43.0938 28.8724ZM45.9663 23.9737C45.159 24.7536 44.0924 25.1655 42.9664 25.1309C40.7621 25.0651 38.9688 23.1324 38.9688 20.8228V19.4053C38.9688 19.2875 38.9413 19.1714 38.8884 19.0662L38.4178 18.1294C38.2455 17.7861 38.1544 17.402 38.1544 17.0182V16.973C38.1544 15.1558 39.6395 13.6776 41.4649 13.6776H48.0333V16.8268C48.0333 17.3357 47.9124 17.8454 47.6838 18.3006L47.2993 19.0662C47.2464 19.1715 47.2188 19.2875 47.2188 19.4053V21.0267C47.2188 22.1469 46.774 23.1935 45.9663 23.9737Z" fill="#A9F012"/>
<path d="M47.9805 31.6187C47.5598 31.6187 47.2187 31.9582 47.2187 32.3769V37.2413C47.2187 37.6601 47.5598 37.9996 47.9805 37.9996C48.4011 37.9996 48.7422 37.6601 48.7422 37.2413V32.3769C48.7422 31.9583 48.4011 31.6187 47.9805 31.6187Z" fill="#A9F012"/>
<path d="M4.01954 32.621C3.59887 32.621 3.25782 32.9605 3.25782 33.3792V37.2413C3.25782 37.6601 3.59887 37.9996 4.01954 37.9996C4.44021 37.9996 4.78126 37.6601 4.78126 37.2413V33.3792C4.78126 32.9606 4.44021 32.621 4.01954 32.621Z" fill="#A9F012"/>
<path d="M32.2493 9.14031C29.3684 6.27252 23.3408 6.82078 20.8828 7.18959C20.1086 7.30576 19.5467 7.95795 19.5467 8.74036V10.4872C19.5467 10.9059 19.8878 11.2454 20.3084 11.2454C20.7291 11.2454 21.0702 10.9059 21.0702 10.4872V8.74026C21.0702 8.71448 21.0872 8.69244 21.11 8.689C22.0918 8.5417 24.04 8.31443 26.0586 8.44839C28.4339 8.6058 30.1544 9.19935 31.1722 10.2126C31.4696 10.5087 31.952 10.5087 32.2493 10.2126C32.5468 9.91645 32.5468 9.43633 32.2493 9.14031Z" fill="#A9F012"/>
<path d="M17.0507 33.2402C16.63 33.2402 16.289 33.5797 16.289 33.9985V37.2414C16.289 37.6602 16.63 37.9997 17.0507 37.9997C17.4714 37.9997 17.8124 37.6602 17.8124 37.2414V33.9985C17.8124 33.5798 17.4714 33.2402 17.0507 33.2402Z" fill="#A9F012"/>
<path d="M34.9686 33.2402C34.5479 33.2402 34.2069 33.5797 34.2069 33.9985V37.2414C34.2069 37.6602 34.5479 37.9997 34.9686 37.9997C35.3893 37.9997 35.7303 37.6602 35.7303 37.2414V33.9985C35.7303 33.5798 35.3893 33.2402 34.9686 33.2402Z" fill="#A9F012"/>
</svg>
