<svg width="49" height="49" viewBox="0 0 49 49" fill="none" xmlns="http://www.w3.org/2000/svg">
<path d="M48.1833 47.3667H43.2833V20.4167C43.2833 19.9657 42.9177 19.6 42.4667 19.6H31.0333V0.816667C31.0333 0.365662 30.6677 0 30.2167 0H8.98333C8.53233 0 8.16667 0.365662 8.16667 0.816667V47.3667H0.816667C0.365662 47.3667 0 47.7323 0 48.1833C0 48.6343 0.365662 49 0.816667 49H48.1833C48.6343 49 49 48.6343 49 48.1833C49 47.7323 48.6343 47.3667 48.1833 47.3667ZM17.15 47.3667H13.8833V40.0167C13.8833 39.5657 14.249 39.2 14.7 39.2H16.3333C16.7843 39.2 17.15 39.5657 17.15 40.0167V47.3667ZM20.4167 20.4167V47.3667H18.7833V40.0167C18.7833 38.6636 17.6864 37.5667 16.3333 37.5667H14.7C13.3469 37.5667 12.25 38.6636 12.25 40.0167V47.3667H9.8V1.63333H29.4V19.6H21.2333C20.7823 19.6 20.4167 19.9657 20.4167 20.4167ZM41.65 47.3667H22.05V21.2333H41.65V47.3667Z" fill="#A9F012"/>
<path d="M26.1333 11.4333H21.2333C20.7823 11.4333 20.4167 11.799 20.4167 12.25V17.15C20.4167 17.601 20.7823 17.9667 21.2333 17.9667H26.1333C26.5843 17.9667 26.95 17.601 26.95 17.15V12.25C26.95 11.799 26.5843 11.4333 26.1333 11.4333ZM25.3167 16.3333H22.05V13.0667H25.3167V16.3333Z" fill="#A9F012"/>
<path d="M26.1333 3.26667H21.2333C20.7823 3.26667 20.4167 3.63233 20.4167 4.08333V8.98333C20.4167 9.43434 20.7823 9.8 21.2333 9.8H26.1333C26.5843 9.8 26.95 9.43434 26.95 8.98333V4.08333C26.95 3.63233 26.5843 3.26667 26.1333 3.26667ZM25.3167 8.16667H22.05V4.9H25.3167V8.16667Z" fill="#A9F012"/>
<path d="M17.9667 11.4333H13.0667C12.6157 11.4333 12.25 11.799 12.25 12.25V17.15C12.25 17.601 12.6157 17.9667 13.0667 17.9667H17.9667C18.4177 17.9667 18.7833 17.601 18.7833 17.15V12.25C18.7833 11.799 18.4177 11.4333 17.9667 11.4333ZM17.15 16.3333H13.8833V13.0667H17.15V16.3333Z" fill="#A9F012"/>
<path d="M17.9667 3.26667H13.0667C12.6157 3.26667 12.25 3.63233 12.25 4.08333V8.98333C12.25 9.43434 12.6157 9.8 13.0667 9.8H17.9667C18.4177 9.8 18.7833 9.43434 18.7833 8.98333V4.08333C18.7833 3.63233 18.4177 3.26667 17.9667 3.26667ZM17.15 8.16667H13.8833V4.9H17.15V8.16667Z" fill="#A9F012"/>
<path d="M17.9667 19.6H13.0667C12.6157 19.6 12.25 19.9657 12.25 20.4167V25.3167C12.25 25.7677 12.6157 26.1333 13.0667 26.1333H17.9667C18.4177 26.1333 18.7833 25.7677 18.7833 25.3167V20.4167C18.7833 19.9657 18.4177 19.6 17.9667 19.6ZM17.15 24.5H13.8833V21.2333H17.15V24.5Z" fill="#A9F012"/>
<path d="M17.9667 27.7667H13.0667C12.6157 27.7667 12.25 28.1323 12.25 28.5833V33.4833C12.25 33.9343 12.6157 34.3 13.0667 34.3H17.9667C18.4177 34.3 18.7833 33.9343 18.7833 33.4833V28.5833C18.7833 28.1323 18.4177 27.7667 17.9667 27.7667ZM17.15 32.6667H13.8833V29.4H17.15V32.6667Z" fill="#A9F012"/>
<path d="M33.4833 37.5667H38.3833C38.8343 37.5667 39.2 37.201 39.2 36.75V31.85C39.2 31.399 38.8343 31.0333 38.3833 31.0333H33.4833C33.0323 31.0333 32.6667 31.399 32.6667 31.85V36.75C32.6667 37.201 33.0323 37.5667 33.4833 37.5667ZM34.3 32.6667H37.5667V35.9333H34.3V32.6667Z" fill="#A9F012"/>
<path d="M33.4833 29.4H38.3833C38.8343 29.4 39.2 29.0343 39.2 28.5833V23.6833C39.2 23.2323 38.8343 22.8667 38.3833 22.8667H33.4833C33.0323 22.8667 32.6667 23.2323 32.6667 23.6833V28.5833C32.6667 29.0343 33.0323 29.4 33.4833 29.4ZM34.3 24.5H37.5667V27.7667H34.3V24.5Z" fill="#A9F012"/>
<path d="M33.4833 45.7333H38.3833C38.8343 45.7333 39.2 45.3677 39.2 44.9167V40.0167C39.2 39.5657 38.8343 39.2 38.3833 39.2H33.4833C33.0323 39.2 32.6667 39.5657 32.6667 40.0167V44.9167C32.6667 45.3677 33.0323 45.7333 33.4833 45.7333ZM34.3 40.8333H37.5667V44.1H34.3V40.8333Z" fill="#A9F012"/>
<path d="M25.3167 37.5667H30.2167C30.6677 37.5667 31.0333 37.201 31.0333 36.75V31.85C31.0333 31.399 30.6677 31.0333 30.2167 31.0333H25.3167C24.8657 31.0333 24.5 31.399 24.5 31.85V36.75C24.5 37.201 24.8657 37.5667 25.3167 37.5667ZM26.1333 32.6667H29.4V35.9333H26.1333V32.6667Z" fill="#A9F012"/>
<path d="M25.3167 29.4H30.2167C30.6677 29.4 31.0333 29.0343 31.0333 28.5833V23.6833C31.0333 23.2323 30.6677 22.8667 30.2167 22.8667H25.3167C24.8657 22.8667 24.5 23.2323 24.5 23.6833V28.5833C24.5 29.0343 24.8657 29.4 25.3167 29.4ZM26.1333 24.5H29.4V27.7667H26.1333V24.5Z" fill="#A9F012"/>
<path d="M25.3167 45.7333H30.2167C30.6677 45.7333 31.0333 45.3677 31.0333 44.9167V40.0167C31.0333 39.5657 30.6677 39.2 30.2167 39.2H25.3167C24.8657 39.2 24.5 39.5657 24.5 40.0167V44.9167C24.5 45.3677 24.8657 45.7333 25.3167 45.7333ZM26.1333 40.8333H29.4V44.1H26.1333V40.8333Z" fill="#A9F012"/>
</svg>
