<svg width="66" height="66" viewBox="0 0 66 66" fill="none" xmlns="http://www.w3.org/2000/svg">
<path d="M22.4678 26.9096C22.4678 26.0103 21.732 25.2746 20.8328 25.2746H7.72544C6.82618 25.2746 6.09042 26.0103 6.09042 26.9096C6.09042 27.8088 6.82618 28.5446 7.72544 28.5446H20.8328C21.732 28.5446 22.4678 27.8088 22.4678 26.9096Z" fill="#A9F012"/>
<path d="M58.2746 25.2746H45.1672C44.268 25.2746 43.5322 26.0103 43.5322 26.9096C43.5322 27.8088 44.268 28.5446 45.1672 28.5446H58.2746C59.1738 28.5446 59.9096 27.8088 59.9096 26.9096C59.9096 26.0103 59.1874 25.2746 58.2746 25.2746Z" fill="#A9F012"/>
<path d="M33 16.3774C33.8993 16.3774 34.635 15.6416 34.635 14.7424V1.63501C34.635 0.735756 33.8993 0 33 0C32.1007 0 31.365 0.735756 31.365 1.63501V14.7424C31.365 15.6416 32.1007 16.3774 33 16.3774Z" fill="#A9F012"/>
<path d="M41.5974 19.9471C42.0198 19.9471 42.4286 19.7836 42.7556 19.4703L52.0343 10.1916C52.6746 9.55119 52.6746 8.51568 52.0343 7.8753C51.3939 7.23492 50.3584 7.23492 49.718 7.8753L40.4393 17.154C39.7989 17.7944 39.7989 18.8299 40.4393 19.4703C40.7663 19.7836 41.1887 19.9471 41.5974 19.9471Z" fill="#A9F012"/>
<path d="M23.2444 19.4703C23.5578 19.7836 23.9802 19.9471 24.4026 19.9471C24.8249 19.9471 25.2337 19.7836 25.5607 19.4703C26.2011 18.8299 26.2011 17.7944 25.5607 17.154L16.282 7.8753C15.6416 7.23492 14.6061 7.23492 13.9657 7.8753C13.3253 8.51568 13.3253 9.55119 13.9657 10.1916L23.2444 19.4703Z" fill="#A9F012"/>
<path d="M52.6474 37.2238C51.4075 36.161 49.8406 35.5751 48.2465 35.5751H46.7613H41.4203H38.886V28.967C38.886 25.806 37.9459 23.5033 36.0793 22.1272C33.1362 19.9744 29.1441 21.187 28.967 21.2415C28.2857 21.4595 27.8225 22.0863 27.8225 22.7948V30.7655C27.8225 33.1908 26.6643 35.2481 24.3617 36.8968C22.6177 38.1503 20.8328 38.7225 20.6012 38.7907L20.4377 38.8315C19.8245 38.1367 18.9253 37.7007 17.917 37.7007H11.704C9.85095 37.7007 8.33856 39.213 8.33856 41.0661V61.4492C8.33856 63.3022 9.85095 64.8146 11.704 64.8146H17.9443C18.7618 64.8146 19.5248 64.5149 20.097 64.0244C21.3505 65.2506 23.0537 66 24.8931 66H31.0925H31.7329H44.4178C46.3798 66 48.1102 65.5231 49.4319 64.6375C51.1214 63.493 52.1705 61.6808 52.4703 59.3646L54.9909 43.6957C55.386 41.2704 54.4868 38.7907 52.6474 37.2238ZM18.0396 61.4492C18.0396 61.5037 17.9988 61.5446 17.9443 61.5446H11.704C11.6495 61.5446 11.6086 61.5037 11.6086 61.4492V41.0661C11.6086 41.0116 11.6495 40.9707 11.704 40.9707H17.9443C17.9988 40.9707 18.0396 41.0116 18.0396 41.0661V61.4492ZM51.7618 43.1916L49.2411 58.8877C49.2411 58.9013 49.2411 58.9286 49.2275 58.9558C49.1185 59.896 48.7642 62.7436 44.4178 62.7436H31.7329H31.0925H24.8931C23.149 62.7436 21.623 61.4356 21.3505 59.7052C21.3369 59.6371 21.3233 59.569 21.3097 59.5145V41.9926L21.405 41.9653C21.4323 41.9653 21.4459 41.9517 21.4732 41.9517C21.5685 41.9244 23.8848 41.2704 26.1874 39.6218C29.3893 37.3464 31.0925 34.2808 31.0925 30.7655V24.1437C31.9917 24.0483 33.2316 24.0892 34.1445 24.7568C35.1255 25.4789 35.616 26.896 35.616 28.9533V37.1965C35.616 38.0958 36.3518 38.8315 37.251 38.8315H41.4203H46.7613H48.2465C49.064 38.8315 49.8679 39.1449 50.5219 39.6899C51.5029 40.5347 51.9661 41.8699 51.7618 43.1916Z" fill="#164883"/>
</svg>
