<svg width="10" height="18" viewBox="0 0 10 18" fill="none" xmlns="http://www.w3.org/2000/svg">
<path d="M4.99988 2.72259C6.01722 2.72259 6.84475 3.58535 6.84475 4.64602C6.84475 5.70579 6.01701 6.56855 4.99988 6.56855C3.98317 6.56855 3.15543 5.70579 3.15543 4.64602C3.15522 3.58513 3.98338 2.72259 4.99988 2.72259ZM4.99988 9.28981C7.45729 9.28981 9.45573 7.20695 9.45573 4.64602C9.45573 2.08375 7.4575 0 4.99988 0C2.54268 0 0.544028 2.08397 0.544028 4.64602C0.544028 7.20695 2.54268 9.28981 4.99988 9.28981ZM6.80252 13.0791C7.71916 12.8614 8.59392 12.4838 9.38982 11.9621C9.68283 11.77 9.8906 11.4643 9.96744 11.1124C10.0443 10.7605 9.98388 10.3911 9.79953 10.0856C9.70836 9.93423 9.58946 9.80304 9.44962 9.69958C9.30978 9.59612 9.15174 9.52242 8.98456 9.48268C8.81737 9.44295 8.64432 9.43796 8.47528 9.46801C8.30625 9.49807 8.14456 9.56256 7.99945 9.65782C6.17399 10.8543 3.82449 10.8535 2.00052 9.65782C1.85544 9.56254 1.69376 9.49802 1.52474 9.46796C1.35571 9.43789 1.18267 9.44287 1.01549 9.48261C0.848315 9.52235 0.690296 9.59606 0.550476 9.69954C0.410656 9.80301 0.291779 9.93422 0.200647 10.0856C0.0162466 10.391 -0.044249 10.7603 0.0324647 11.1122C0.109178 11.4641 0.316819 11.7698 0.609718 11.9621C1.40556 12.4836 2.28015 12.8612 3.19659 13.0791L0.705694 15.6765C0.460908 15.9318 0.323422 16.278 0.323482 16.639C0.323542 17 0.461142 17.3461 0.706014 17.6013C0.950886 17.8566 1.28297 17.9999 1.62921 17.9998C1.97545 17.9998 2.30749 17.8563 2.55227 17.601L4.99945 15.0492L7.44812 17.6012C7.56919 17.7276 7.71298 17.8279 7.87126 17.8964C8.02954 17.9648 8.19921 18 8.37056 18C8.5419 18 8.71157 17.9648 8.86985 17.8964C9.02813 17.8279 9.17192 17.7276 9.29299 17.6012C9.41442 17.475 9.51077 17.3251 9.5765 17.16C9.64224 16.9949 9.67608 16.8178 9.67608 16.6391C9.67608 16.4603 9.64224 16.2833 9.5765 16.1182C9.51077 15.9531 9.41442 15.8031 9.29299 15.6769L6.80252 13.0791Z" fill="#12BEF0"/>
</svg>
