<svg width="66" height="66" viewBox="0 0 66 66" fill="none" xmlns="http://www.w3.org/2000/svg">
<path d="M33 0C14.7748 0 0 14.7746 0 33C0 51.2254 14.7748 66 33 66C51.2252 66 66 51.2254 66 33C66 14.7746 51.2252 0 33 0ZM44.4056 34.7493L27.9056 45.0618C27.5718 45.2702 27.1921 45.375 26.8125 45.375C26.4686 45.375 26.1241 45.2894 25.8124 45.1162C25.1568 44.7526 24.75 44.0627 24.75 43.3125V22.6875C24.75 21.9373 25.1568 21.2474 25.8124 20.8838C26.4681 20.5183 27.2697 20.5404 27.9056 20.9382L44.4056 31.2507C45.0084 31.6284 45.375 32.2891 45.375 33C45.375 33.7109 45.0084 34.3717 44.4056 34.7493Z" fill="#A9F012" fill-opacity="0.8"/>
</svg>
