<svg width="93" height="93" viewBox="0 0 93 93" fill="none" xmlns="http://www.w3.org/2000/svg">
<path d="M80.2604 67.9007C77.6747 60.6302 70.7373 55.6988 62.98 55.6988C53.7722 55.6988 46.078 62.4636 44.8166 71.4412C38.8883 72.3895 34.4105 77.5105 34.4105 83.6431C34.4105 88.8273 38.6361 93 43.7445 93H83.6661C88.8376 93 93 88.7641 93 83.6431C93 75.9932 87.6393 69.4181 80.2604 67.9007ZM83.6661 88.8273H43.7445C40.9065 88.8273 38.573 86.4881 38.573 83.6431C38.573 79.1543 42.2309 75.4874 46.7087 75.4874H46.7717C47.9069 75.4874 48.7899 74.6023 48.8529 73.4643C49.1683 65.8776 55.4119 59.8715 63.0431 59.8715C69.4129 59.8715 75.0258 64.1706 76.7287 70.3032C76.9809 71.1251 77.6747 71.6941 78.4945 71.8205C84.4229 72.5792 88.9006 77.637 88.9006 83.6431C88.8376 86.4881 86.5041 88.8273 83.6661 88.8273Z" fill="#12BEF0"/>
<path d="M27.9146 76.1829H26.0226V68.5962C26.0226 67.4582 25.0766 66.5098 23.9414 66.5098C22.8062 66.5098 21.8602 67.4582 21.8602 68.5962V76.1829H16.1211V68.5962C16.1211 67.4582 15.175 66.5098 14.0398 66.5098C12.9046 66.5098 11.9586 67.4582 11.9586 68.5962V76.1829H4.64282L9.8774 48.4915H80.4496L82.9092 61.4521C83.0984 62.5901 84.2337 63.3487 85.3689 63.0959C86.5041 62.9062 87.2609 61.7682 87.0086 60.6302L84.7382 48.4915H87.1348C88.27 48.4915 89.216 47.5432 89.216 46.4052V37.3012C89.216 36.3528 88.5853 35.5309 87.7024 35.278L54.5921 25.4786V2.08634C54.5921 0.948334 53.6461 0 52.5108 0C51.3756 0 50.4296 0.948334 50.4296 2.08634V25.3521H39.9605V2.08634C39.9605 0.948334 39.0145 0 37.8792 0C36.744 0 35.798 0.948334 35.798 2.08634V25.4786L2.62467 35.278C1.74173 35.5309 1.11106 36.3528 1.11106 37.3012V46.4052C1.11106 47.5432 2.05707 48.4915 3.19228 48.4915H5.58883L0.0389153 77.8899C-0.0872191 78.5221 0.101982 79.1543 0.480386 79.5969C0.858789 80.1026 1.48946 80.3555 2.12013 80.3555H27.8516C28.9868 80.3555 29.9328 79.4072 29.9328 78.2692C29.9958 77.1312 29.0498 76.1829 27.9146 76.1829ZM5.33656 38.8817L36.681 29.588H53.7091L85.0535 38.8817V44.2556H5.33656V38.8817Z" fill="#12BEF0"/>
<path d="M41.7894 39.0714H48.5376C49.6728 39.0714 50.6188 38.123 50.6188 36.985C50.6188 35.847 49.6728 34.8987 48.5376 34.8987H41.7894C40.6542 34.8987 39.7082 35.847 39.7082 36.985C39.7082 38.123 40.6542 39.0714 41.7894 39.0714Z" fill="#12BEF0"/>
</svg>
