<svg width="89" height="89" viewBox="0 0 89 89" fill="none" xmlns="http://www.w3.org/2000/svg">
<path d="M78.9515 77.5162V71.7739H76.0805V15.7904C76.0805 7.08415 68.9964 0 60.2901 0C51.5838 0 44.4997 7.08415 44.4997 15.7904V41.629C44.4997 42.42 43.8551 43.0647 43.0641 43.0647H33.4624C31.0406 42.3799 28.4885 41.9291 25.8386 41.7396V37.3228H12.9195V41.6293H10.0485C4.50748 41.629 0 46.1362 0 51.6772V70.3386C0 74.2961 3.21976 77.5162 7.17755 77.5162H15.2003C16.9085 81.7192 21.0298 84.6937 25.8386 84.6937C30.6474 84.6937 34.7688 81.7196 36.4769 77.5162H48.8063C52.7638 77.5162 55.9838 74.2964 55.9838 70.3386C55.9838 62.8582 52.8501 56.1345 47.6408 51.0758C50.8391 49.8169 53.1129 46.7049 53.1129 43.0644V15.7904C53.1129 11.8329 56.3326 8.61287 60.2904 8.61287C64.2482 8.61287 67.468 11.8326 67.468 15.7904V71.7743H64.597V77.5162H54.5485V89H89V77.5162H78.9515ZM15.7904 40.1934H22.9677V41.629H15.7904V40.1934ZM25.8386 81.8224C21.0886 81.8224 17.2257 77.9596 17.2257 73.2096C17.2257 68.4596 21.0886 64.5967 25.8386 64.5967C30.5886 64.5967 34.4515 68.4596 34.4515 73.2096C34.4515 77.9596 30.5886 81.8224 25.8386 81.8224ZM53.1129 70.3383C53.1129 72.7129 51.1805 74.6449 48.8063 74.6449H37.2235C37.2823 74.1742 37.3224 73.6962 37.3224 73.2093C37.3224 66.8772 32.1707 61.7254 25.8386 61.7254C19.5066 61.7254 14.3548 66.8772 14.3548 73.2093C14.3548 73.6959 14.3949 74.1739 14.4537 74.6449H7.17755C4.8033 74.6449 2.87096 72.7129 2.87096 70.3383V51.6772C2.87096 47.7198 6.09072 44.4997 10.0485 44.4997H22.9677C39.8719 44.4997 53.1129 55.85 53.1129 70.3383ZM60.2901 5.74192C54.7491 5.74192 50.2416 10.2494 50.2416 15.7904V43.0647C50.2416 46.075 47.9059 48.5239 44.9548 48.7607C43.5969 47.717 42.1356 46.7726 40.5851 45.9356H43.0641C45.4383 45.9356 47.3706 44.0036 47.3706 41.629V15.7904C47.3706 8.66769 53.1671 2.87096 60.2901 2.87096C67.4131 2.87096 73.2096 8.66738 73.2096 15.7904V71.7743H70.3386V15.7904C70.3386 10.2494 65.8311 5.74192 60.2901 5.74192ZM67.4677 74.6449H76.0805V77.5159H67.4677V74.6449ZM86.129 86.1287H57.4192V80.3868H86.129V86.1287Z" fill="#12BEF0"/>
<path d="M51.6772 86.1287H48.8063V88.9997H51.6772V86.1287Z" fill="#12BEF0"/>
<path d="M45.9353 86.1287H43.0644V88.9997H45.9353V86.1287Z" fill="#12BEF0"/>
<path d="M40.1934 86.1287H37.3224V88.9997H40.1934V86.1287Z" fill="#12BEF0"/>
<path d="M8.61287 48.8063H5.74192V51.6772H8.61287V48.8063Z" fill="#12BEF0"/>
<path d="M8.61287 54.5482H5.74192V57.4192H8.61287V54.5482Z" fill="#12BEF0"/>
<path d="M25.8386 67.4677C22.6718 67.4677 20.0967 70.0428 20.0967 73.2096C20.0967 76.3764 22.6718 78.9515 25.8386 78.9515C29.0054 78.9515 31.5805 76.3764 31.5805 73.2096C31.5805 70.0428 29.0054 67.4677 25.8386 67.4677ZM25.8386 76.0805C24.2554 76.0805 22.9677 74.7928 22.9677 73.2096C22.9677 71.6263 24.2554 70.3386 25.8386 70.3386C27.4219 70.3386 28.7096 71.6263 28.7096 73.2096C28.7096 74.7928 27.4219 76.0805 25.8386 76.0805Z" fill="#12BEF0"/>
</svg>
