<svg width="81" height="63" viewBox="0 0 81 63" fill="none" xmlns="http://www.w3.org/2000/svg">
<path d="M81 23.7479V9.40422C81 4.21894 76.8071 0 71.6541 0H9.3462C4.19291 0 0 4.21894 0 9.40422V23.7479C0 28.9332 4.19291 33.1521 9.3462 33.1521H71.6541C76.8074 33.1521 81 28.9335 81 23.7479ZM76.6864 23.7479C76.6864 26.5406 74.4299 28.8118 71.6538 28.8118H9.3462C6.57068 28.8118 4.31356 26.5406 4.31356 23.7479V9.40422C4.31356 6.61238 6.57068 4.34034 9.3462 4.34034H71.6541C74.4302 4.34034 76.6867 6.61238 76.6867 9.40422V23.7479H76.6864Z" fill="#12BEF0"/>
<path d="M68.1393 14.4944H12.6215C9.43405 14.4944 6.83966 17.1046 6.83966 20.3121C6.83966 23.5193 9.43405 26.1298 12.6215 26.1298H68.1363C71.324 26.1298 73.9187 23.5193 73.9187 20.3121C73.9187 17.1046 71.3268 14.4944 68.1393 14.4944ZM68.1393 21.7892H12.6215C11.8118 21.7892 11.1535 21.1265 11.1535 20.3121C11.1535 19.4978 11.8118 18.8348 12.6215 18.8348H68.1363C68.9466 18.8348 69.6052 19.4975 69.6052 20.3121C69.6052 21.1268 68.9481 21.7892 68.1393 21.7892Z" fill="#12BEF0"/>
<path d="M47.0301 11.9926H52.7818C53.9738 11.9926 54.9384 11.0205 54.9384 9.8226C54.9384 8.62437 53.9738 7.65228 52.7818 7.65228H47.0301C45.838 7.65228 44.8734 8.62437 44.8734 9.8226C44.8734 11.0205 45.838 11.9926 47.0301 11.9926Z" fill="#12BEF0"/>
<path d="M61.4089 11.9926H67.1606C68.3527 11.9926 69.3172 11.0205 69.3172 9.8226C69.3172 8.62437 68.3527 7.65228 67.1606 7.65228H61.4089C60.2169 7.65228 59.2523 8.62437 59.2523 9.8226C59.2523 11.0205 60.2169 11.9926 61.4089 11.9926Z" fill="#12BEF0"/>
<path d="M20.9784 40.8129C23.4534 39.5326 21.2705 35.7859 18.8019 37.0659C14.8286 39.1233 13.1347 42.4946 14.612 46.8291C16.0652 51.1017 20.8767 55.7953 15.3871 58.9489C12.9711 60.3364 15.1439 64.0864 17.5635 62.6959C21.5558 60.4042 23.3381 56.9397 21.8786 52.434C20.5692 48.3889 15.5998 43.5977 20.9784 40.8129Z" fill="#12BEF0"/>
<path d="M43.9847 40.8129C46.459 39.5326 44.2768 35.7859 41.8082 37.0659C37.8352 39.1233 36.141 42.4946 37.6183 46.8291C39.0715 51.1017 43.8839 55.7953 38.3933 58.9489C35.9773 60.3364 38.1502 64.0864 40.5698 62.6959C44.562 60.4042 46.3438 56.9397 44.8849 52.434C43.5746 48.3889 38.6057 43.5977 43.9847 40.8129Z" fill="#12BEF0"/>
<path d="M66.9906 40.8129C69.465 39.5326 67.2828 35.7859 64.8144 37.0659C60.8406 39.1233 59.147 42.4946 60.6242 46.8291C62.0774 51.1017 66.8895 55.7953 61.3993 58.9489C58.9842 60.3364 61.1562 64.0864 63.5755 62.6959C67.568 60.4042 69.3494 56.9397 67.8908 52.434C66.5805 48.3889 61.6126 43.5977 66.9906 40.8129Z" fill="#12BEF0"/>
</svg>
