<svg width="96" height="96" viewBox="0 0 96 96" fill="none" xmlns="http://www.w3.org/2000/svg">
<path d="M48 24.9829L59.3989 15.4839H74.3226V0H37.1613V15.4839H48V24.9829ZM40.2581 12.3871V3.09677H71.2258V12.3871H58.2785L51.0968 18.372V12.3871H40.2581Z" fill="url(#paint0_linear)"/>
<path d="M43.3548 6.19355H46.4516V9.29032H43.3548V6.19355Z" fill="url(#paint1_linear)"/>
<path d="M49.5484 6.19355H61.9355V9.29032H49.5484V6.19355Z" fill="url(#paint2_linear)"/>
<path d="M65.0323 6.19355H68.129V9.29032H65.0323V6.19355Z" fill="url(#paint3_linear)"/>
<path d="M78.8203 92.9032L77.5683 80.3687C82.7382 79.5514 86.7097 75.0748 86.7097 69.6774V49.5484H80.5161V47.4088C80.5161 45.3039 79.3594 43.4138 77.4995 42.4446C79.3488 40.7457 80.5161 38.3165 80.5161 35.6129V32.5161C80.5161 27.3924 76.3495 23.2258 71.2258 23.2258C66.1021 23.2258 61.9355 27.3924 61.9355 32.5161V35.6129C61.9355 39.6215 64.4917 43.0343 68.0564 44.3347L59.746 52.6452H51.0628C50.8896 50.064 49.1167 47.814 46.6051 47.0958L40.2581 45.2843V42.5186C42.1535 40.8168 43.3548 38.3566 43.3548 35.6129V32.5161C43.3548 27.3924 39.1883 23.2258 34.0645 23.2258C28.9408 23.2258 24.7742 27.3924 24.7742 32.5161V35.6129C24.7742 38.3551 25.9756 40.8153 27.871 42.5186V45.2858L21.5239 47.0973C18.8793 47.8511 17.0323 50.3007 17.0323 53.0527V58.8387H10.8387V68.129H13.9355V92.9032H0V96H96V92.9032H78.8203ZM65.0323 68.129V61.0282L76.004 50.0564C76.7971 49.2634 77.2689 48.1981 77.3747 47.0867C77.3884 47.1948 77.4193 47.2969 77.4193 47.4088V66.5806C77.4193 69.1414 75.3349 71.2258 72.7742 71.2258H60.3871V68.129H65.0323ZM60.3871 80.5161H68.2765L69.5149 92.9032H60.3871V80.5161ZM71.3884 80.5161H74.47L75.7084 92.9032H72.6268L71.3884 80.5161ZM80.5161 66.5806V52.6452H83.6129V69.6774C83.6129 73.9461 80.1396 77.4193 75.871 77.4193H60.3871V74.3226H72.7742C77.0428 74.3226 80.5161 70.8493 80.5161 66.5806ZM65.0323 35.6129V32.5161C65.0323 29.1003 67.81 26.3226 71.2258 26.3226C74.6416 26.3226 77.4193 29.1003 77.4193 32.5161V35.6129C77.4193 39.0287 74.6416 41.8064 71.2258 41.8064C67.81 41.8064 65.0323 39.0287 65.0323 35.6129ZM61.0282 55.7419L71.3589 45.4113C71.6825 45.0877 72.13 44.9032 72.5867 44.9032C73.5438 44.9032 74.3226 45.682 74.3226 46.6391C74.3226 47.0958 74.1381 47.5433 73.8145 47.8669L62.8427 58.8387H46.4516C45.5973 58.8387 44.9032 58.1447 44.9032 57.2903C44.9032 56.436 45.5973 55.7419 46.4516 55.7419H61.0282ZM27.871 32.5161C27.871 29.1003 30.6487 26.3226 34.0645 26.3226C37.4803 26.3226 40.2581 29.1003 40.2581 32.5161V35.6129C40.2581 39.0287 37.4803 41.8064 34.0645 41.8064C30.6487 41.8064 27.871 39.0287 27.871 35.6129V32.5161ZM34.0645 44.9032C35.1517 44.9032 36.1905 44.7051 37.1613 44.3611V46.0244C36.7772 46.6172 35.7104 48 34.0645 48C32.4186 48 31.3518 46.6172 30.9677 46.0244V44.3611C31.9385 44.7051 32.9773 44.9032 34.0645 44.9032ZM20.129 53.0527C20.129 51.6759 21.0537 50.4526 22.3745 50.0746L28.7533 48.2525C29.6515 49.4229 31.3994 51.0968 34.0645 51.0968C36.7296 51.0968 38.4776 49.4229 39.3758 48.251L45.7545 50.0731C46.9408 50.4125 47.7679 51.4438 47.9335 52.6436H46.4516C43.8909 52.6436 41.8064 54.7281 41.8064 57.2888C41.8064 57.8339 41.9176 58.3511 42.0915 58.8372H20.129V53.0527ZM13.9355 61.9355H61.9355V65.0323H13.9355V61.9355ZM17.0323 74.3226H21.6774V71.2258H17.0323V68.129H57.2903V71.2258H24.7742V74.3226H57.2903V92.9032H53.6023L50.5055 86.7097H23.817L20.7203 92.9032H17.0323V74.3226ZM50.1396 92.9032H24.183L25.7313 89.8064H48.5912L50.1396 92.9032Z" fill="url(#paint4_linear)"/>
<defs>
<linearGradient id="paint0_linear" x1="48" y1="0" x2="48" y2="96" gradientUnits="userSpaceOnUse">
<stop stop-color="#12BEF0"/>
<stop offset="1" stop-color="#A9F012"/>
</linearGradient>
<linearGradient id="paint1_linear" x1="48" y1="0" x2="48" y2="96" gradientUnits="userSpaceOnUse">
<stop stop-color="#12BEF0"/>
<stop offset="1" stop-color="#A9F012"/>
</linearGradient>
<linearGradient id="paint2_linear" x1="48" y1="0" x2="48" y2="96" gradientUnits="userSpaceOnUse">
<stop stop-color="#12BEF0"/>
<stop offset="1" stop-color="#A9F012"/>
</linearGradient>
<linearGradient id="paint3_linear" x1="48" y1="0" x2="48" y2="96" gradientUnits="userSpaceOnUse">
<stop stop-color="#12BEF0"/>
<stop offset="1" stop-color="#A9F012"/>
</linearGradient>
<linearGradient id="paint4_linear" x1="48" y1="0" x2="48" y2="96" gradientUnits="userSpaceOnUse">
<stop stop-color="#12BEF0"/>
<stop offset="1" stop-color="#A9F012"/>
</linearGradient>
</defs>
</svg>
