<svg width="107" height="77" viewBox="0 0 107 77" fill="none" xmlns="http://www.w3.org/2000/svg">
<path d="M6.42167 45.2643L9.61423 45.2565L9.64339 57.9471L6.45109 57.9541L6.42167 45.2643Z" fill="url(#paint0_linear)"/>
<path d="M12.8182 48.4237L16.0105 48.4167L16.0327 57.9338L12.8401 57.9416L12.8182 48.4237Z" fill="url(#paint1_linear)"/>
<path d="M19.2133 51.5826L22.4056 51.5756L22.4202 57.9208L19.2279 57.9279L19.2133 51.5826Z" fill="url(#paint2_linear)"/>
<path d="M92.6101 23.2098C92.7854 20.6908 91.4407 18.3088 89.1867 17.1431C87.2073 16.1204 84.8322 16.2083 82.9342 17.3751L81.6899 18.1218L80.8217 16.9667C80.399 16.3851 79.8469 15.9085 79.2094 15.5734C77.6893 14.7946 75.8677 14.872 74.4206 15.7774L72.7079 13.1011C75.117 11.589 78.1533 11.4593 80.6841 12.7598C81.3432 13.1019 81.9489 13.5359 82.4816 14.05C85.1123 12.9156 88.1174 13.0242 90.6583 14.3449C94.0377 16.0934 96.0532 19.6649 95.7912 23.4409L92.6101 23.2098Z" fill="url(#paint3_linear)"/>
<path d="M71.5974 37.9209C68.0211 36.6428 65.8598 33.0255 66.4428 29.2947C66.2336 29.129 66.0336 28.9518 65.8452 28.7631C63.8347 26.7549 63.0502 23.8361 63.7847 21.0995L66.8797 21.9272C66.2889 23.9841 67.188 26.1756 69.0581 27.2365L70.1318 27.8748L69.7631 29.0635C69.2887 30.5519 69.5837 32.1773 70.5524 33.4072C71.5214 34.6363 73.0391 35.3121 74.6079 35.2115L74.8009 38.3774C73.7132 38.4432 72.6229 38.2882 71.5974 37.9209Z" fill="url(#paint4_linear)"/>
<path d="M83.458 40.8684C81.9678 40.3334 80.6717 39.3698 79.7338 38.1008L82.309 36.2234C83.4873 37.8209 85.5376 38.5256 87.4577 37.9951C89.3781 37.464 90.7669 35.8072 90.9447 33.8351C91.0436 32.7769 90.78 31.717 90.1972 30.8258L92.8776 29.1015C94.7396 31.9599 94.5567 35.6803 92.4236 38.3456C90.2898 41.0107 86.6819 42.0257 83.458 40.8684Z" fill="url(#paint5_linear)"/>
<path d="M23.9256 17.6636L23.9013 7.15656L11.1267 7.18359L11.1497 17.6919L0 30.4082L0.10834 77L35.2422 76.9218L35.1341 30.3293L23.9256 17.6636ZM20.7153 10.3342L20.7329 16.6806L14.3392 16.7013L14.3275 10.348L20.7153 10.3342ZM13.4766 19.8697L21.6166 19.8532L30.0211 29.3529L5.1143 29.4053L13.4766 19.8697ZM3.19969 32.5823L31.9508 32.5197L31.9576 35.6938L3.20671 35.7556L3.19969 32.5823ZM32.0397 73.7618L3.29243 73.8274L3.28568 70.6533L32.0327 70.5884L32.0397 73.7618ZM32.0267 67.4122L3.27812 67.4814L3.2711 64.3081L32.0184 64.2424L32.0267 67.4122ZM3.26481 61.135L3.21426 38.9275L31.9593 38.8636L32.0108 61.0705L3.26481 61.135Z" fill="url(#paint6_linear)"/>
<path d="M106.427 34.5791C107.603 31.3602 106.941 27.7607 104.695 25.163C104.883 24.7654 105.041 24.3863 105.178 24.0104C107.383 17.9498 105.677 11.1662 100.862 6.84657C96.0477 2.52719 89.0795 1.53124 83.2338 4.32568C80.9542 1.7399 77.7155 0.183568 74.2595 0.0152271C70.8035 -0.153114 67.4271 1.08005 64.9033 3.43137C64.1446 2.74555 63.2577 2.21385 62.2916 1.86785C58.1448 0.384965 53.5711 2.51596 52.0679 6.6313C51.8177 7.31895 51.6632 8.03766 51.6083 8.76742L30.2267 9.01881L30.2604 12.1919L55.1439 11.9005L54.8394 10.0756C54.7125 9.28056 54.7925 8.46591 55.0718 7.70964C55.9711 5.23802 58.7177 3.95831 61.206 4.85157C62.1615 5.19706 62.9777 5.84094 63.5321 6.6873L64.75 8.51063L66.1164 6.79474C67.9929 4.42682 70.8886 3.08369 73.9211 3.17411C76.9533 3.26526 79.7624 4.77856 81.4925 7.25437L82.3399 8.47113L83.6207 7.71529C88.2577 4.9704 94.1314 5.41697 98.2944 8.83123C102.457 12.2455 104.011 17.8896 102.174 22.9321C101.948 23.5385 101.673 24.1258 101.352 24.6878L100.743 25.7918L101.677 26.6334C103.493 28.2416 104.226 30.7376 103.565 33.0633C102.904 35.3892 100.965 37.1366 98.5708 37.5644L97.2586 37.8074L97.2675 39.1341C97.2756 40.4062 97.0563 41.6699 96.6196 42.8655C95.0737 47.1096 91.0953 50.002 86.5548 50.1822C82.0143 50.3625 77.8159 47.7954 75.9333 43.6876L75.2167 42.125L73.7035 42.9613C70.7313 44.6105 67.1012 44.5675 64.1697 42.848C61.239 41.1288 59.4477 37.9919 59.4666 34.6104L59.4724 32.7281L57.6049 33.0411C56.5447 33.2296 55.4542 33.1412 54.4393 32.7834C52.5135 32.0921 51.0375 30.5245 50.4719 28.5696C49.9058 26.6138 50.3188 24.5079 51.5809 22.9053L53.1192 20.9497L29.9456 15.5684L29.2187 18.6578L47.8513 22.9855C47.7461 23.1767 47.6726 23.3784 47.599 23.5809C45.806 28.5246 48.3811 33.9763 53.3537 35.7671C54.3269 36.114 55.3512 36.2956 56.3849 36.3052C56.8945 40.1893 59.1838 43.6211 62.5865 45.602C65.9886 47.5819 70.1217 47.8879 73.7828 46.4307C76.6361 51.1563 81.9722 53.8279 87.4945 53.2967C93.0157 52.766 97.7365 49.1255 99.6235 43.9438C100.046 42.7893 100.313 41.5838 100.418 40.3599C103.217 39.4654 105.437 37.3288 106.427 34.5791Z" fill="url(#paint7_linear)"/>
<path d="M51.4722 50.2722L54.4761 51.3506L53.3905 54.3343L50.3866 53.2559L51.4722 50.2722Z" fill="url(#paint8_linear)"/>
<path d="M59.941 54.9991L62.9448 56.0775L61.8592 59.0612L58.8553 57.9828L59.941 54.9991Z" fill="url(#paint9_linear)"/>
<path d="M59.1083 47.9533L62.1122 49.0317L61.0266 52.0154L58.0227 50.9371L59.1083 47.9533Z" fill="url(#paint10_linear)"/>
<path d="M51.1824 41.7346L54.1863 42.8129L53.1007 45.7966L50.0968 44.7183L51.1824 41.7346Z" fill="url(#paint11_linear)"/>
<path d="M89.6896 57.2449L92.6935 58.3232L91.6078 61.307L88.604 60.2286L89.6896 57.2449Z" fill="url(#paint12_linear)"/>
<path d="M83.0126 61.5948L86.0165 62.6732L84.9308 65.6569L81.927 64.5786L83.0126 61.5948Z" fill="url(#paint13_linear)"/>
<path d="M78.0905 56.4544L81.0944 57.5328L80.0088 60.5165L77.0049 59.4381L78.0905 56.4544Z" fill="url(#paint14_linear)"/>
<path d="M67.5771 52.6802L70.5809 53.7586L69.4953 56.7423L66.4915 55.6639L67.5771 52.6802Z" fill="url(#paint15_linear)"/>
<path d="M69.9116 60.2652L72.9155 61.3435L71.8298 64.3272L68.826 63.2489L69.9116 60.2652Z" fill="url(#paint16_linear)"/>
<defs>
<linearGradient id="paint0_linear" x1="53.5" y1="0" x2="53.5" y2="77" gradientUnits="userSpaceOnUse">
<stop stop-color="#12BEF0"/>
<stop offset="1" stop-color="#A9F012"/>
</linearGradient>
<linearGradient id="paint1_linear" x1="53.5" y1="0" x2="53.5" y2="77" gradientUnits="userSpaceOnUse">
<stop stop-color="#12BEF0"/>
<stop offset="1" stop-color="#A9F012"/>
</linearGradient>
<linearGradient id="paint2_linear" x1="53.5" y1="0" x2="53.5" y2="77" gradientUnits="userSpaceOnUse">
<stop stop-color="#12BEF0"/>
<stop offset="1" stop-color="#A9F012"/>
</linearGradient>
<linearGradient id="paint3_linear" x1="53.5" y1="0" x2="53.5" y2="77" gradientUnits="userSpaceOnUse">
<stop stop-color="#12BEF0"/>
<stop offset="1" stop-color="#A9F012"/>
</linearGradient>
<linearGradient id="paint4_linear" x1="53.5" y1="0" x2="53.5" y2="77" gradientUnits="userSpaceOnUse">
<stop stop-color="#12BEF0"/>
<stop offset="1" stop-color="#A9F012"/>
</linearGradient>
<linearGradient id="paint5_linear" x1="53.5" y1="0" x2="53.5" y2="77" gradientUnits="userSpaceOnUse">
<stop stop-color="#12BEF0"/>
<stop offset="1" stop-color="#A9F012"/>
</linearGradient>
<linearGradient id="paint6_linear" x1="53.5" y1="0" x2="53.5" y2="77" gradientUnits="userSpaceOnUse">
<stop stop-color="#12BEF0"/>
<stop offset="1" stop-color="#A9F012"/>
</linearGradient>
<linearGradient id="paint7_linear" x1="53.5" y1="0" x2="53.5" y2="77" gradientUnits="userSpaceOnUse">
<stop stop-color="#12BEF0"/>
<stop offset="1" stop-color="#A9F012"/>
</linearGradient>
<linearGradient id="paint8_linear" x1="53.5" y1="0" x2="53.5" y2="77" gradientUnits="userSpaceOnUse">
<stop stop-color="#12BEF0"/>
<stop offset="1" stop-color="#A9F012"/>
</linearGradient>
<linearGradient id="paint9_linear" x1="53.5" y1="0" x2="53.5" y2="77" gradientUnits="userSpaceOnUse">
<stop stop-color="#12BEF0"/>
<stop offset="1" stop-color="#A9F012"/>
</linearGradient>
<linearGradient id="paint10_linear" x1="53.5" y1="0" x2="53.5" y2="77" gradientUnits="userSpaceOnUse">
<stop stop-color="#12BEF0"/>
<stop offset="1" stop-color="#A9F012"/>
</linearGradient>
<linearGradient id="paint11_linear" x1="53.5" y1="0" x2="53.5" y2="77" gradientUnits="userSpaceOnUse">
<stop stop-color="#12BEF0"/>
<stop offset="1" stop-color="#A9F012"/>
</linearGradient>
<linearGradient id="paint12_linear" x1="53.5" y1="0" x2="53.5" y2="77" gradientUnits="userSpaceOnUse">
<stop stop-color="#12BEF0"/>
<stop offset="1" stop-color="#A9F012"/>
</linearGradient>
<linearGradient id="paint13_linear" x1="53.5" y1="0" x2="53.5" y2="77" gradientUnits="userSpaceOnUse">
<stop stop-color="#12BEF0"/>
<stop offset="1" stop-color="#A9F012"/>
</linearGradient>
<linearGradient id="paint14_linear" x1="53.5" y1="0" x2="53.5" y2="77" gradientUnits="userSpaceOnUse">
<stop stop-color="#12BEF0"/>
<stop offset="1" stop-color="#A9F012"/>
</linearGradient>
<linearGradient id="paint15_linear" x1="53.5" y1="0" x2="53.5" y2="77" gradientUnits="userSpaceOnUse">
<stop stop-color="#12BEF0"/>
<stop offset="1" stop-color="#A9F012"/>
</linearGradient>
<linearGradient id="paint16_linear" x1="53.5" y1="0" x2="53.5" y2="77" gradientUnits="userSpaceOnUse">
<stop stop-color="#12BEF0"/>
<stop offset="1" stop-color="#A9F012"/>
</linearGradient>
</defs>
</svg>
