<svg width="88" height="94" viewBox="0 0 88 94" fill="none" xmlns="http://www.w3.org/2000/svg">
<path d="M78.5714 65.8H76.1106C74.3847 65.8016 72.6829 66.202 71.1386 66.9703C68.8916 68.0838 66.2512 68.0838 64.0043 66.9703C63.108 66.5318 62.1567 66.2156 61.1757 66.0303L64.2384 42.3H67.5714C68.4392 42.3 69.1429 41.5985 69.1429 40.7333V34.4667C69.1429 33.6015 68.4392 32.9 67.5714 32.9H61.2857V28.2C61.2857 27.7844 61.1199 27.3861 60.8253 27.0924L53.4286 19.7181V14.852L55.8109 12.9532L59.8793 21.067L62.6921 19.6664L58.3204 10.951L60.2643 9.4H66C66.8678 9.4 67.5714 8.69853 67.5714 7.83333V1.56667C67.5714 0.701475 66.8678 0 66 0H50.2857C42.4789 0.0094 36.1523 6.3168 36.1429 14.1C36.1429 14.9652 36.8465 15.6667 37.7143 15.6667H40.8571V19.7181L36.6033 23.959C36.3086 24.2528 36.1429 24.6511 36.1429 25.0667V32.9H33V20.3667C32.9976 20.1726 32.9587 19.9809 32.8853 19.8011C32.8566 19.7402 32.824 19.6811 32.7879 19.6241C32.7501 19.542 32.7059 19.4629 32.6559 19.3875L26.7143 11.985V1.56667C26.7143 0.701475 26.0107 0 25.1429 0H15.7143C14.8465 0 14.1429 0.701475 14.1429 1.56667V11.985L8.20129 19.3875C8.1512 19.4629 8.107 19.542 8.06929 19.6241C8.03314 19.6811 8.00054 19.7402 7.97186 19.8011C7.89839 19.9809 7.8595 20.1726 7.85714 20.3667V32.9H1.57143C0.703607 32.9 0 33.6015 0 34.4667V40.7333C0 41.5985 0.703607 42.3 1.57143 42.3H4.90443L11.0126 89.5005C11.1137 90.2819 11.7812 90.8669 12.5714 90.8667H49.5629C51.3451 92.8583 53.8943 93.998 56.5714 94H59.0323C60.7581 93.9984 62.46 93.598 64.0043 92.8297C66.2512 91.7162 68.8916 91.7162 71.1386 92.8297C72.6829 93.598 74.3847 93.9984 76.1106 94H78.5714C83.7766 93.9949 87.9949 89.7894 88 84.6V75.2C87.9949 70.0106 83.7766 65.8051 78.5714 65.8ZM61.2857 3.13333H64.4286V6.26667H61.2857V3.13333ZM66 36.0333V39.1667H44V36.0333H66ZM39.3973 12.5333C40.1856 7.14106 44.8199 3.14019 50.2857 3.13333H58.1429V7.08133L51.3056 12.5333H39.3973ZM50.2857 15.6667V18.8H44V15.6667H50.2857ZM39.2857 25.7153L43.0791 21.9333H51.2066L58.1429 28.8486V32.9H39.2857V25.7153ZM40.8571 36.0333V47C40.8538 47.5967 41.1909 48.1433 41.7261 48.41L51.1547 53.11C51.6146 53.336 51.963 53.7376 52.1211 54.2239C52.284 54.7458 52.2274 55.3112 51.964 55.7906C51.5118 56.6951 50.4099 57.0629 49.5026 56.6119C49.5012 56.6113 49.4998 56.6105 49.4984 56.6099L43.1184 53.4296C42.3386 53.0497 41.3977 53.372 41.0166 54.1495C40.9123 54.3626 40.8577 54.5964 40.8571 54.8333V70.5C40.8571 72.2306 39.4501 73.6333 37.7143 73.6333V59.5333H34.5714V73.6333H31.4286V59.5333H28.2857V73.6333H25.1429V59.5333H22V73.6333C20.2642 73.6333 18.8571 72.2306 18.8571 70.5V36.0333H40.8571ZM17.2857 3.13333H23.5714V10.9667H17.2857V3.13333ZM16.4686 14.1H24.3886L28.16 18.8H12.6971L16.4686 14.1ZM11 21.9333H29.8571V32.9H11V21.9333ZM3.14286 39.1667V36.0333H15.7143V39.1667H3.14286ZM47.1429 75.2V84.6C47.1456 85.6681 47.3316 86.7277 47.6929 87.7333H13.9527L8.07243 42.3H15.7143V70.5C15.7143 73.961 18.5285 76.7667 22 76.7667H37.7143C41.1858 76.7667 44 73.961 44 70.5V57.3682L48.1046 59.4143C50.5849 60.6347 53.5879 59.6195 54.812 57.1467C54.8171 57.1365 54.822 57.1262 54.8271 57.116C55.4359 55.913 55.5394 54.5177 55.1147 53.2385C54.6959 51.9587 53.7786 50.9008 52.569 50.3025L44 46.0318V42.3H61.0704L58.0281 65.8H56.5714C51.3663 65.8051 47.148 70.0106 47.1429 75.2ZM84.8571 84.6C84.8571 88.061 82.0429 90.8667 78.5714 90.8667H76.1106C74.8729 90.8649 73.6525 90.5776 72.545 90.0269C69.412 88.475 65.7309 88.475 62.5979 90.0269C61.4904 90.5776 60.27 90.8649 59.0323 90.8667H56.5714C53.0999 90.8667 50.2857 88.061 50.2857 84.6V82.1873C52.009 83.7397 54.2489 84.5994 56.5714 84.6H59.0323C60.7581 84.5984 62.46 84.198 64.0043 83.4297C66.2512 82.3162 68.8916 82.3162 71.1386 83.4297C72.6829 84.198 74.3847 84.5984 76.1106 84.6H78.5714C80.894 84.5994 83.1339 83.7397 84.8571 82.1873V84.6ZM78.5714 81.4667H76.1106C74.8729 81.4649 73.6525 81.1776 72.545 80.6269C69.412 79.075 65.7309 79.075 62.5979 80.6269C61.4904 81.1776 60.27 81.4649 59.0323 81.4667H56.5714C53.0999 81.4667 50.2857 78.661 50.2857 75.2C50.2857 71.739 53.0999 68.9333 56.5714 68.9333H59.0323C60.27 68.9351 61.4904 69.2224 62.5979 69.7731C65.7311 71.3241 69.4118 71.3241 72.545 69.7731C73.6525 69.2224 74.8729 68.9351 76.1106 68.9333H78.5714C82.0429 68.9333 84.8571 71.739 84.8571 75.2C84.8571 78.661 82.0429 81.4667 78.5714 81.4667Z" fill="url(#paint0_linear)"/>
<path d="M80.1429 72.0667H77V75.2H80.1429V72.0667Z" fill="url(#paint1_linear)"/>
<path d="M64.4286 72.0667H61.2857V75.2H64.4286V72.0667Z" fill="url(#paint2_linear)"/>
<path d="M58.1429 73.6333H55V76.7667H58.1429V73.6333Z" fill="url(#paint3_linear)"/>
<path d="M73.8571 73.6333H70.7143V76.7667H73.8571V73.6333Z" fill="url(#paint4_linear)"/>
<defs>
<linearGradient id="paint0_linear" x1="44" y1="0" x2="44" y2="94" gradientUnits="userSpaceOnUse">
<stop stop-color="#12BEF0"/>
<stop offset="1" stop-color="#A9F012"/>
</linearGradient>
<linearGradient id="paint1_linear" x1="44" y1="0" x2="44" y2="94" gradientUnits="userSpaceOnUse">
<stop stop-color="#12BEF0"/>
<stop offset="1" stop-color="#A9F012"/>
</linearGradient>
<linearGradient id="paint2_linear" x1="44" y1="0" x2="44" y2="94" gradientUnits="userSpaceOnUse">
<stop stop-color="#12BEF0"/>
<stop offset="1" stop-color="#A9F012"/>
</linearGradient>
<linearGradient id="paint3_linear" x1="44" y1="0" x2="44" y2="94" gradientUnits="userSpaceOnUse">
<stop stop-color="#12BEF0"/>
<stop offset="1" stop-color="#A9F012"/>
</linearGradient>
<linearGradient id="paint4_linear" x1="44" y1="0" x2="44" y2="94" gradientUnits="userSpaceOnUse">
<stop stop-color="#12BEF0"/>
<stop offset="1" stop-color="#A9F012"/>
</linearGradient>
</defs>
</svg>
