<svg width="84" height="84" viewBox="0 0 84 84" fill="none" xmlns="http://www.w3.org/2000/svg">
<path d="M43.2294 62.3281L26.3036 79.2539C25.6746 79.8829 24.8741 80.226 23.9592 80.226C23.1014 80.226 22.2437 79.8829 21.6147 79.2539L4.74609 62.3281C3.48809 61.0701 3.48809 58.9544 4.74609 57.6964L57.6964 4.74609C58.9544 3.48809 61.0701 3.48809 62.3281 4.74609L79.1967 21.6147C79.8257 22.2437 80.1688 23.0443 80.1688 23.9592C80.1688 24.8169 79.8257 25.6746 79.1967 26.3036L62.3281 43.2294C61.5848 43.9728 61.5848 45.1736 62.3281 45.917C63.0715 46.6603 64.2723 46.6603 65.0157 45.917L81.9415 28.9912C83.2566 27.676 84 25.9033 84 23.9592C84 22.0722 83.2566 20.2995 81.9415 18.9272L65.0157 2.05854C62.2709 -0.686181 57.7536 -0.686181 55.0089 2.05854L2.05854 55.0089C-0.686181 57.7536 -0.686181 62.2709 2.05854 65.0157L18.9272 81.8843C20.2423 83.1995 22.015 83.9428 23.9592 83.9428C25.8462 83.9428 27.6188 83.1995 28.9912 81.8843L45.917 64.9585C46.6603 64.2151 46.6603 63.0143 45.917 62.2709C45.1736 61.5848 43.9728 61.5848 43.2294 62.3281Z" fill="#12BEF0"/>
<path d="M54.2083 44.373L56.7243 41.857C57.6392 40.9421 58.1538 39.6841 58.1538 38.4261C58.1538 37.111 57.6392 35.9101 56.7243 34.9952L54.2083 32.4792L60.4411 26.2464C61.1845 25.5031 61.1845 24.3022 60.4411 23.5589C59.6978 22.8155 58.4969 22.8155 57.7536 23.5589L51.5208 29.7345L49.0048 27.2185C48.0899 26.3036 46.8319 25.789 45.5739 25.789C44.2587 25.789 43.0579 26.3036 42.143 27.2185L27.2757 42.0858C26.3608 43.0007 25.8462 44.2587 25.8462 45.5167C25.8462 46.8319 26.3608 48.0327 27.2757 48.9476L29.7917 51.4636L23.5589 57.7536C22.8155 58.4969 22.8155 59.6978 23.5589 60.4411C23.902 60.7842 24.4166 61.0129 24.8741 61.0129C25.3315 61.0129 25.8462 60.8414 26.1892 60.4411L32.4221 54.2083L34.9381 56.7243C35.853 57.6392 37.111 58.1538 38.369 58.1538C39.6841 58.1538 40.885 57.6392 41.7999 56.7243L44.3159 54.2083L73.5357 83.4282C73.8788 83.7713 74.3935 84 74.8509 84C75.3084 84 75.823 83.8285 76.1661 83.4282C76.9095 82.6848 76.9095 81.484 76.1661 80.7406L41.1137 45.5739L45.5739 41.1137L80.7406 76.2805C81.484 77.0238 82.6848 77.0238 83.4282 76.2805C84.1715 75.5371 84.1715 74.3363 83.4282 73.5929L54.2083 44.373ZM44.2587 37.0538L37.0538 44.2587C36.3104 45.002 36.3104 46.2029 37.0538 46.9462L41.6855 51.5779L39.1695 54.0939C38.7692 54.4942 38.0259 54.4942 37.6256 54.0939L29.9061 46.3172C29.6773 46.0885 29.563 45.8598 29.563 45.5739C29.563 45.288 29.6773 45.002 29.9061 44.8305L44.7733 29.9632C45.002 29.7345 45.2308 29.6202 45.5167 29.6202C45.8026 29.6202 46.0885 29.7345 46.26 29.9632L53.9796 37.6828C54.2083 37.9115 54.3227 38.1402 54.3227 38.4261C54.3227 38.712 54.2083 38.998 53.9796 39.1695L51.4636 41.6855L46.8319 37.0538C46.2029 36.3104 45.002 36.3104 44.2587 37.0538Z" fill="#12BEF0"/>
<path d="M22.5868 25.2743C22.9299 25.6174 23.4445 25.8462 23.902 25.8462C24.3594 25.8462 24.8741 25.6746 25.2172 25.2743C25.9605 24.531 25.9605 23.3302 25.2172 22.5868L3.25936 0.571818C2.516 -0.171545 1.31518 -0.171545 0.571818 0.571818C-0.171545 1.31518 -0.171545 2.516 0.571818 3.25936L22.5868 25.2743Z" fill="#12BEF0"/>
<path d="M7.60517 40.256C7.94827 40.599 8.4629 40.8278 8.92035 40.8278C9.37781 40.8278 9.89244 40.6562 10.2355 40.256C10.9789 39.5126 10.9789 38.3118 10.2355 37.5684L3.25936 30.5351C2.516 29.7917 1.31518 29.7917 0.571818 30.5351C-0.171545 31.2784 -0.171545 32.4792 0.571818 33.2226L7.60517 40.256Z" fill="#12BEF0"/>
<path d="M15.096 32.7651C15.4391 33.1082 15.9537 33.337 16.4112 33.337C16.8686 33.337 17.3833 33.1654 17.7263 32.7651C18.4697 32.0218 18.4697 30.821 17.7263 30.0776L3.25936 15.5534C2.516 14.8101 1.31518 14.8101 0.571818 15.5534C-0.171545 16.2968 -0.171545 17.4976 0.571818 18.241L15.096 32.7651Z" fill="#12BEF0"/>
<path d="M30.0776 17.7835C30.4207 18.1266 30.9353 18.3553 31.3928 18.3553C31.8502 18.3553 32.3649 18.1838 32.708 17.7835C33.4513 17.0402 33.4513 15.8393 32.708 15.096L18.241 0.571818C17.4976 -0.171545 16.2968 -0.171545 15.5534 0.571818C14.8101 1.31518 14.8101 2.516 15.5534 3.25936L30.0776 17.7835Z" fill="#12BEF0"/>
<path d="M37.5684 10.2927C37.9115 10.6358 38.4261 10.8645 38.8836 10.8645C39.341 10.8645 39.8557 10.693 40.1988 10.2927C40.9421 9.54935 40.9421 8.34854 40.1988 7.60517L33.2226 0.571818C32.4792 -0.171545 31.2784 -0.171545 30.5351 0.571818C29.7917 1.31518 29.7917 2.516 30.5351 3.25936L37.5684 10.2927Z" fill="#12BEF0"/>
</svg>
