<svg width="89" height="95" viewBox="0 0 89 95" fill="none" xmlns="http://www.w3.org/2000/svg">
<path d="M87.5276 95H70.7004C69.9117 95 69.2806 94.3596 69.2806 93.559V88.6222C69.2806 88.0618 69.5962 87.5815 70.0694 87.3413L68.3604 85.927L68.3078 85.9537C68.4393 86.514 68.4919 87.0744 68.4919 87.6615C68.4919 91.691 65.2579 95 61.2614 95C57.2913 95 54.0573 91.7177 54.0573 87.6615C54.0573 87.2879 54.0836 86.9143 54.1362 86.5407H19.3513C18.6677 91.3174 14.6186 95 9.72821 95C4.36455 95 0 90.5702 0 85.1264C0 84.566 0.0525849 84.0056 0.131462 83.4719V42.1896C0.131462 41.389 0.762482 40.7486 1.55126 40.7486H3.70724V38.9607H3.02363C2.23486 38.9607 1.60384 38.3202 1.60384 37.5197V31.9424C1.60384 29.2205 3.99645 27.2458 7.30931 27.2458C10.6222 27.2458 13.0148 29.2205 13.0148 31.9424V37.5197C13.0148 38.3202 12.3838 38.9607 11.595 38.9607H10.9114V40.7486H17.6422C18.2207 40.7486 18.7202 41.0955 18.9569 41.6292L24.7412 55.8258H28.7903C27.1338 55.1053 25.6089 53.8778 25.2934 51.7697C25.2934 51.743 25.2934 51.743 25.2934 51.7163L25.2408 51.316C24.3731 43.6306 23.374 34.9312 24.5046 27.4059C24.7938 25.5646 25.9244 23.9635 27.7123 22.8961C28.5536 22.389 29.5264 22.0154 30.5256 21.802C27.7911 20.5211 25.4774 17.4256 25.3459 10.5674C25.3459 10.5407 25.3459 10.4874 25.3459 10.4607C25.3459 10.434 25.3459 10.4073 25.3459 10.3806C25.3459 10.2739 25.3459 10.1404 25.3459 10.0337V7.07163C25.3196 2.42837 29.8419 0 34.2854 0C38.2555 0 42.2783 1.92135 43.0934 5.63062H47.7734C48.5622 5.63062 49.1932 6.27107 49.1932 7.07163C49.1932 9.28652 47.2739 11.9551 44.9075 11.9551H43.0671C43.0145 14.1166 42.7778 16.3048 41.9102 18.1728C40.8322 20.4944 39.018 21.9087 36.5202 22.4157C37.7823 23.0562 40.0697 24.5506 43.2511 26.632C44.9075 27.7261 46.4588 28.7402 47.4053 29.3006L57.3702 30.7683C58.6322 30.9551 59.7365 31.6222 60.5253 32.6629C61.2877 33.7037 61.6295 34.9845 61.4455 36.2654C61.3403 37.066 61.0248 37.8132 60.5778 38.4537L63.3648 37.6798C64.101 37.4663 64.8635 37.8933 65.1002 38.6404L75.1702 72.0239L83.8204 87.2079H87.5802C88.369 87.2079 89 87.8483 89 88.6489V93.5857C88.9211 94.3596 88.2901 95 87.5276 95ZM72.0939 92.1447H86.1078V90.0632H82.979C82.9527 90.0632 82.9527 90.0632 82.9264 90.0632H72.0939V92.1447ZM57.265 85.7935C57.0021 86.3806 56.8706 87.0211 56.8706 87.6615C56.8706 90.1166 58.8425 92.118 61.2614 92.118C63.6804 92.118 65.6523 90.1166 65.6523 87.6615C65.6523 86.9944 65.4945 86.3006 65.2053 85.7135C65.2053 85.7135 65.2053 85.6868 65.179 85.6868C64.4165 84.139 62.9179 83.2051 61.2352 83.2051C59.6313 83.2051 58.1589 84.0857 57.3702 85.5267C57.3439 85.5801 57.3176 85.6067 57.2913 85.6601C57.3176 85.7135 57.2913 85.7402 57.265 85.7935ZM2.91846 83.8722C2.83959 84.2725 2.81329 84.6994 2.81329 85.1264C2.81329 88.9958 5.9158 92.1447 9.72821 92.1447C13.5406 92.1447 16.6431 88.9958 16.6431 85.1264C16.6431 84.8862 16.6431 84.6728 16.6168 84.4593C16.275 80.8567 13.3303 78.1081 9.72821 78.1081C6.38907 78.1081 3.54948 80.5098 2.94476 83.8188C2.91846 83.8455 2.91846 83.8455 2.91846 83.8722ZM74.3288 87.2079H80.4812L73.9344 75.7331L70.3586 83.9256L74.3288 87.2079ZM19.3513 83.6854H55.2142C56.5551 81.6039 58.8162 80.323 61.2877 80.323C63.6541 80.323 65.7838 81.4438 67.1247 83.3385L67.6242 83.1784L72.3043 72.4775L62.7338 40.7753L57.8171 42.1629L66.704 71.6503C66.8092 71.9705 66.7829 72.3441 66.6514 72.6376L64.4428 77.6545C64.2062 78.1615 63.7066 78.5084 63.1545 78.5084H38.8603C38.0715 78.5084 37.4405 77.868 37.4405 77.0674V58.7079H23.6106C22.8219 58.7079 22.1908 58.0674 22.1908 57.2669V57.1334L16.6957 43.6039H2.94476V78.0014C4.70635 76.2669 7.09897 75.2261 9.72821 75.2261C14.6186 75.2261 18.6677 78.8287 19.3513 83.6854ZM56.6603 75.6531H62.2343L63.8381 71.9705L54.6883 41.6025C54.5832 41.2289 54.6095 40.8287 54.7935 40.5084C54.8461 40.4284 54.8987 40.3216 54.9776 40.2683L45.2493 38.8272C44.592 38.7472 43.961 38.5337 43.3826 38.2135L38.9128 35.625C38.9391 39.868 39.3335 44.2444 39.7805 48.2205L48.7988 49.6615C50.6919 49.9551 52.2168 51.3694 52.6901 53.264L57.5542 71.3301C58.0012 72.8778 57.6068 74.4789 56.6603 75.6531ZM40.2801 75.6531H49.2458C48.8251 75.1461 48.5359 74.5323 48.3518 73.8652L44.2765 58.7346L40.2801 58.0941V75.6531ZM28.0541 51.3961C28.2644 52.677 29.9734 53.5843 33.1548 54.0913L45.5911 56.066C46.1433 56.1461 46.5903 56.5463 46.7217 57.1067L51.06 73.1447C51.3492 74.2121 52.4272 74.8258 53.4526 74.5323C54.5043 74.2388 55.109 73.1447 54.8198 72.0772L49.9294 53.9846V53.9579C49.7453 53.184 49.1143 52.5969 48.3256 52.4635L38.2292 50.8357C37.5982 50.7289 37.125 50.2219 37.0461 49.5815C36.5202 44.7781 35.9418 39.2542 36.047 33.9705L30.9462 30.9551C30.2626 30.5548 30.026 29.7008 30.4204 29.007C30.8148 28.3132 31.6561 28.073 32.3397 28.4733L38.0978 31.809C38.1767 31.8624 38.2818 31.889 38.3607 31.9691L44.8024 35.7051C45.039 35.8385 45.3019 35.9452 45.5911 35.9719C45.6174 35.9719 45.6437 35.9719 45.6437 35.9719L56.371 37.5463C56.8969 37.6264 57.3965 37.493 57.8171 37.1728C58.2378 36.8525 58.5007 36.3989 58.5796 35.8652C58.6585 35.3315 58.527 34.7978 58.2115 34.3708C57.896 33.9438 57.449 33.677 56.9232 33.5969L46.7217 32.1025C46.6165 32.1025 46.5377 32.0758 46.4325 32.0225C46.3273 31.9958 46.2485 31.9424 46.1696 31.889C45.1968 31.3287 43.4877 30.2079 41.6999 29.007C39.2284 27.3792 35.8366 25.1643 34.969 24.8174C33.26 24.1503 30.7885 24.3904 29.1058 25.3778C28.3696 25.8048 27.4493 26.6053 27.2653 27.8596C26.1873 35.0112 27.1601 43.4972 28.0278 50.9958L28.0541 51.3961ZM6.52053 40.7753H8.09808V38.9874H6.52053V40.7753ZM4.41713 36.1053H10.1752V31.9691C10.1752 30.5281 8.28213 30.1278 7.30931 30.1278C6.31019 30.1278 4.44343 30.5014 4.44343 31.9691V36.1053H4.41713ZM28.2118 11.9551C28.6851 18.9199 31.8665 19.7739 34.2854 19.7739C38.8866 19.7739 40.0697 16.8118 40.2275 11.9551H28.2118ZM44.8812 9.07303C45.1442 9.07303 45.4597 8.83286 45.7489 8.48595H41.8313C41.0425 8.48595 40.4115 7.84551 40.4115 7.04494C40.4115 4.16292 37.2301 2.82865 34.2591 2.82865C31.288 2.82865 28.1066 4.13624 28.1066 7.04494V9.07303H44.8812ZM24.2679 70.6362H5.62659C4.83781 70.6362 4.20679 69.9958 4.20679 69.1952V65.8596C4.20679 65.059 4.83781 64.4185 5.62659 64.4185H24.2417C25.0304 64.4185 25.6614 65.059 25.6614 65.8596V69.1952C25.6614 69.9958 25.0304 70.6362 24.2679 70.6362ZM7.04638 67.7809H22.8482V67.3006H7.04638V67.7809Z" fill="#202020"/>
<path d="M87.5276 95H70.7004C69.9117 95 69.2806 94.3596 69.2806 93.559V88.6222C69.2806 88.0618 69.5962 87.5815 70.0694 87.3413L68.3604 85.927L68.3078 85.9537C68.4393 86.514 68.4919 87.0744 68.4919 87.6615C68.4919 91.691 65.2579 95 61.2614 95C57.2913 95 54.0573 91.7177 54.0573 87.6615C54.0573 87.2879 54.0836 86.9143 54.1362 86.5407H19.3513C18.6677 91.3174 14.6186 95 9.72821 95C4.36455 95 0 90.5702 0 85.1264C0 84.566 0.0525849 84.0056 0.131462 83.4719V42.1896C0.131462 41.389 0.762482 40.7486 1.55126 40.7486H3.70724V38.9607H3.02363C2.23486 38.9607 1.60384 38.3202 1.60384 37.5197V31.9424C1.60384 29.2205 3.99645 27.2458 7.30931 27.2458C10.6222 27.2458 13.0148 29.2205 13.0148 31.9424V37.5197C13.0148 38.3202 12.3838 38.9607 11.595 38.9607H10.9114V40.7486H17.6422C18.2207 40.7486 18.7202 41.0955 18.9569 41.6292L24.7412 55.8258H28.7903C27.1338 55.1053 25.6089 53.8778 25.2934 51.7697C25.2934 51.743 25.2934 51.743 25.2934 51.7163L25.2408 51.316C24.3731 43.6306 23.374 34.9312 24.5046 27.4059C24.7938 25.5646 25.9244 23.9635 27.7123 22.8961C28.5536 22.389 29.5264 22.0154 30.5256 21.802C27.7911 20.5211 25.4774 17.4256 25.3459 10.5674C25.3459 10.5407 25.3459 10.4874 25.3459 10.4607C25.3459 10.434 25.3459 10.4073 25.3459 10.3806C25.3459 10.2739 25.3459 10.1404 25.3459 10.0337V7.07163C25.3196 2.42837 29.8419 0 34.2854 0C38.2555 0 42.2783 1.92135 43.0934 5.63062H47.7734C48.5622 5.63062 49.1932 6.27107 49.1932 7.07163C49.1932 9.28652 47.2739 11.9551 44.9075 11.9551H43.0671C43.0145 14.1166 42.7778 16.3048 41.9102 18.1728C40.8322 20.4944 39.018 21.9087 36.5202 22.4157C37.7823 23.0562 40.0697 24.5506 43.2511 26.632C44.9075 27.7261 46.4588 28.7402 47.4053 29.3006L57.3702 30.7683C58.6322 30.9551 59.7365 31.6222 60.5253 32.6629C61.2877 33.7037 61.6295 34.9845 61.4455 36.2654C61.3403 37.066 61.0248 37.8132 60.5778 38.4537L63.3648 37.6798C64.101 37.4663 64.8635 37.8933 65.1002 38.6404L75.1702 72.0239L83.8204 87.2079H87.5802C88.369 87.2079 89 87.8483 89 88.6489V93.5857C88.9211 94.3596 88.2901 95 87.5276 95ZM72.0939 92.1447H86.1078V90.0632H82.979C82.9527 90.0632 82.9527 90.0632 82.9264 90.0632H72.0939V92.1447ZM57.265 85.7935C57.0021 86.3806 56.8706 87.0211 56.8706 87.6615C56.8706 90.1166 58.8425 92.118 61.2614 92.118C63.6804 92.118 65.6523 90.1166 65.6523 87.6615C65.6523 86.9944 65.4945 86.3006 65.2053 85.7135C65.2053 85.7135 65.2053 85.6868 65.179 85.6868C64.4165 84.139 62.9179 83.2051 61.2352 83.2051C59.6313 83.2051 58.1589 84.0857 57.3702 85.5267C57.3439 85.5801 57.3176 85.6067 57.2913 85.6601C57.3176 85.7135 57.2913 85.7402 57.265 85.7935ZM2.91846 83.8722C2.83959 84.2725 2.81329 84.6994 2.81329 85.1264C2.81329 88.9958 5.9158 92.1447 9.72821 92.1447C13.5406 92.1447 16.6431 88.9958 16.6431 85.1264C16.6431 84.8862 16.6431 84.6728 16.6168 84.4593C16.275 80.8567 13.3303 78.1081 9.72821 78.1081C6.38907 78.1081 3.54948 80.5098 2.94476 83.8188C2.91846 83.8455 2.91846 83.8455 2.91846 83.8722ZM74.3288 87.2079H80.4812L73.9344 75.7331L70.3586 83.9256L74.3288 87.2079ZM19.3513 83.6854H55.2142C56.5551 81.6039 58.8162 80.323 61.2877 80.323C63.6541 80.323 65.7838 81.4438 67.1247 83.3385L67.6242 83.1784L72.3043 72.4775L62.7338 40.7753L57.8171 42.1629L66.704 71.6503C66.8092 71.9705 66.7829 72.3441 66.6514 72.6376L64.4428 77.6545C64.2062 78.1615 63.7066 78.5084 63.1545 78.5084H38.8603C38.0715 78.5084 37.4405 77.868 37.4405 77.0674V58.7079H23.6106C22.8219 58.7079 22.1908 58.0674 22.1908 57.2669V57.1334L16.6957 43.6039H2.94476V78.0014C4.70635 76.2669 7.09897 75.2261 9.72821 75.2261C14.6186 75.2261 18.6677 78.8287 19.3513 83.6854ZM56.6603 75.6531H62.2343L63.8381 71.9705L54.6883 41.6025C54.5832 41.2289 54.6095 40.8287 54.7935 40.5084C54.8461 40.4284 54.8987 40.3216 54.9776 40.2683L45.2493 38.8272C44.592 38.7472 43.961 38.5337 43.3826 38.2135L38.9128 35.625C38.9391 39.868 39.3335 44.2444 39.7805 48.2205L48.7988 49.6615C50.6919 49.9551 52.2168 51.3694 52.6901 53.264L57.5542 71.3301C58.0012 72.8778 57.6068 74.4789 56.6603 75.6531ZM40.2801 75.6531H49.2458C48.8251 75.1461 48.5359 74.5323 48.3518 73.8652L44.2765 58.7346L40.2801 58.0941V75.6531ZM28.0541 51.3961C28.2644 52.677 29.9734 53.5843 33.1548 54.0913L45.5911 56.066C46.1433 56.1461 46.5903 56.5463 46.7217 57.1067L51.06 73.1447C51.3492 74.2121 52.4272 74.8258 53.4526 74.5323C54.5043 74.2388 55.109 73.1447 54.8198 72.0772L49.9294 53.9846V53.9579C49.7453 53.184 49.1143 52.5969 48.3256 52.4635L38.2292 50.8357C37.5982 50.7289 37.125 50.2219 37.0461 49.5815C36.5202 44.7781 35.9418 39.2542 36.047 33.9705L30.9462 30.9551C30.2626 30.5548 30.026 29.7008 30.4204 29.007C30.8148 28.3132 31.6561 28.073 32.3397 28.4733L38.0978 31.809C38.1767 31.8624 38.2818 31.889 38.3607 31.9691L44.8024 35.7051C45.039 35.8385 45.3019 35.9452 45.5911 35.9719C45.6174 35.9719 45.6437 35.9719 45.6437 35.9719L56.371 37.5463C56.8969 37.6264 57.3965 37.493 57.8171 37.1728C58.2378 36.8525 58.5007 36.3989 58.5796 35.8652C58.6585 35.3315 58.527 34.7978 58.2115 34.3708C57.896 33.9438 57.449 33.677 56.9232 33.5969L46.7217 32.1025C46.6165 32.1025 46.5377 32.0758 46.4325 32.0225C46.3273 31.9958 46.2485 31.9424 46.1696 31.889C45.1968 31.3287 43.4877 30.2079 41.6999 29.007C39.2284 27.3792 35.8366 25.1643 34.969 24.8174C33.26 24.1503 30.7885 24.3904 29.1058 25.3778C28.3696 25.8048 27.4493 26.6053 27.2653 27.8596C26.1873 35.0112 27.1601 43.4972 28.0278 50.9958L28.0541 51.3961ZM6.52053 40.7753H8.09808V38.9874H6.52053V40.7753ZM4.41713 36.1053H10.1752V31.9691C10.1752 30.5281 8.28213 30.1278 7.30931 30.1278C6.31019 30.1278 4.44343 30.5014 4.44343 31.9691V36.1053H4.41713ZM28.2118 11.9551C28.6851 18.9199 31.8665 19.7739 34.2854 19.7739C38.8866 19.7739 40.0697 16.8118 40.2275 11.9551H28.2118ZM44.8812 9.07303C45.1442 9.07303 45.4597 8.83286 45.7489 8.48595H41.8313C41.0425 8.48595 40.4115 7.84551 40.4115 7.04494C40.4115 4.16292 37.2301 2.82865 34.2591 2.82865C31.288 2.82865 28.1066 4.13624 28.1066 7.04494V9.07303H44.8812ZM24.2679 70.6362H5.62659C4.83781 70.6362 4.20679 69.9958 4.20679 69.1952V65.8596C4.20679 65.059 4.83781 64.4185 5.62659 64.4185H24.2417C25.0304 64.4185 25.6614 65.059 25.6614 65.8596V69.1952C25.6614 69.9958 25.0304 70.6362 24.2679 70.6362ZM7.04638 67.7809H22.8482V67.3006H7.04638V67.7809Z" fill="#12BEF0"/>
</svg>
