<svg width="96" height="102" viewBox="0 0 96 102" fill="none" xmlns="http://www.w3.org/2000/svg">
<path d="M60.6639 15.061L63.9746 14.0135L60.6639 12.9989L59.615 8.08908L58.566 12.9989L55.747 14.0135L58.566 15.061L59.615 17.8759L60.6639 15.061Z" fill="url(#paint0_linear)"/>
<path d="M75.7096 55.7139L72.235 57.0232L75.7096 58.2997L76.988 61.7693L78.2664 58.2997L82.3638 57.0232L78.2664 55.7139L76.988 49.6912L75.7096 55.7139Z" fill="url(#paint1_linear)"/>
<path d="M92.7221 38.4315H41.2913C40.3735 38.4315 39.6524 39.1516 39.6524 40.0681V69.985C39.6524 70.9015 40.3735 71.6216 41.2913 71.6216H92.7221V80.9501H41.2913C40.3735 80.9501 39.6524 81.6702 39.6524 82.5867V98.2653H31.392V49.5276C31.4248 49.1675 31.4248 48.8075 31.392 48.4474V10.7076H39.6524V27.4663C39.6524 28.3828 40.3735 29.1029 41.2913 29.1029H92.7221V38.4315ZM23.6561 64.7479C23.0005 63.2095 21.8532 61.9657 20.3454 61.2456L14.9368 58.5943L15.1662 57.7105C16.543 58.2015 18.1164 58.2342 19.5586 57.776L26.6062 55.5175C27.1307 55.3538 27.6224 55.1247 28.114 54.8301V75.3203L23.6561 64.7479ZM26.9012 83.6669C26.5406 84.5506 25.8523 85.238 24.9672 85.6308C24.5083 85.8272 24.0494 85.9254 23.5905 85.9254C22.1482 85.9254 20.837 85.0743 20.247 83.7323L14.7401 70.6396C14.5762 70.2796 14.314 69.985 13.9534 69.7886L9.10205 67.3992L12.1505 60.8528C12.1833 60.8855 12.2489 60.9183 12.2816 60.951L18.8703 64.1914C19.657 64.5842 20.2798 65.2389 20.6076 66.0244L26.8684 80.8847C27.2618 81.7684 27.2618 82.7504 26.9012 83.6669ZM3.36567 61.3765L8.02033 43.4395C8.34812 42.1302 9.39706 41.1482 10.7082 40.8209C10.9705 40.7554 11.2655 40.7227 11.5277 40.7227C11.7244 40.7227 11.9211 40.7554 12.1505 40.7882C12.4128 40.9191 12.6422 41.0173 12.9044 41.1482L11.9866 53.5209L6.18469 65.9262L5.29965 65.5007C3.75902 64.7479 2.93954 63.0131 3.36567 61.3765ZM13.7895 29.1684L13.1667 37.5805C11.8883 36.6967 11.036 35.2238 11.036 33.5544C11.0032 31.6233 12.1505 29.9539 13.7895 29.1684ZM20.7715 33.5544C20.7715 36.0748 18.8375 38.1696 16.3791 38.3988L17.1002 28.8411C19.1981 29.3648 20.7715 31.2632 20.7715 33.5544ZM19.657 46.7454L23.4266 45.567C23.7872 45.4688 24.1478 45.4034 24.5083 45.4034C26.0817 45.4034 27.4585 46.418 27.9502 47.9237C28.0157 48.1528 28.0813 48.382 28.0813 48.6111V49.4294C27.9174 50.8041 26.9996 52.0152 25.59 52.4734L18.5425 54.7319C17.3952 55.092 16.1496 54.8629 15.199 54.11L15.9529 44.0286L17.9197 46.3199C18.3458 46.7454 19.0342 46.9418 19.657 46.7454ZM96 40.0681V27.4663C96 26.5498 95.2789 25.8297 94.361 25.8297H42.9303V9.07103C42.9303 8.15454 42.2092 7.43444 41.2913 7.43444H29.753C28.8352 7.43444 28.114 8.15454 28.114 9.07103V43.0794C27.0651 42.4248 25.8195 42.0647 24.5411 42.0647C23.82 42.0647 23.1316 42.1629 22.4432 42.392L19.7225 43.2431L18.1164 41.3446C21.5582 40.3954 24.0822 37.2204 24.0822 33.489C24.0822 29.4957 21.1648 26.157 17.3624 25.4697L19.1325 1.77184C19.1981 0.855344 18.5097 0.0697799 17.6247 0.00431624C16.7068 -0.0611474 15.9201 0.626221 15.8546 1.50998L14.0845 25.5351C10.4788 26.3862 7.79087 29.6266 7.79087 33.4562C7.79087 35.0601 8.24979 36.5658 9.06927 37.8096C7.03695 38.5951 5.46354 40.3299 4.9063 42.4902L0.218854 60.5255C-0.600629 63.6677 0.939999 66.9736 3.85736 68.4138L11.9538 72.4071L17.1985 84.9434C18.2803 87.4965 20.7715 89.1658 23.5577 89.1658C24.4755 89.1658 25.3606 88.9694 26.2128 88.6421C26.9012 88.3475 27.524 87.9548 28.0813 87.4638V99.9019C28.0813 100.818 28.8024 101.538 29.7202 101.538H41.2913C42.2092 101.538 42.9303 100.818 42.9303 99.9019V84.2233H94.361C95.2789 84.2233 96 83.5032 96 82.5867V69.985C96 69.0685 95.2789 68.3484 94.361 68.3484H42.9303V41.7047H94.361C95.2461 41.7047 96 40.9846 96 40.0681Z" fill="url(#paint2_linear)"/>
<defs>
<linearGradient id="paint0_linear" x1="48" y1="0" x2="48" y2="101.538" gradientUnits="userSpaceOnUse">
<stop stop-color="#12BEF0"/>
<stop offset="1" stop-color="#A9F012"/>
</linearGradient>
<linearGradient id="paint1_linear" x1="48" y1="0" x2="48" y2="101.538" gradientUnits="userSpaceOnUse">
<stop stop-color="#12BEF0"/>
<stop offset="1" stop-color="#A9F012"/>
</linearGradient>
<linearGradient id="paint2_linear" x1="48" y1="0" x2="48" y2="101.538" gradientUnits="userSpaceOnUse">
<stop stop-color="#12BEF0"/>
<stop offset="1" stop-color="#A9F012"/>
</linearGradient>
</defs>
</svg>
