<svg width="105" height="89" viewBox="0 0 105 89" fill="none" xmlns="http://www.w3.org/2000/svg">
<path d="M36.9506 33.7339C36.4428 33.8774 36.0365 34.1932 35.8673 34.5952L34.1745 38.4423L32.4817 34.5952C32.3124 34.1932 31.94 33.9061 31.466 33.7339L26.9294 32.2984L31.466 30.8629C32.0077 30.6906 32.414 30.2887 32.5494 29.8294L34.1745 23.3984L35.7995 29.8294C35.935 30.3461 36.3751 30.7481 36.9506 30.8916L42.2321 32.2984L36.9506 33.7339ZM38.9142 28.4513L35.8334 16.221C35.6641 15.5606 34.987 15.0726 34.1745 15.0726C33.362 15.0726 32.6848 15.5606 32.5156 16.221L29.4686 28.48L21.5126 30.9777C20.8354 31.1787 20.3953 31.7242 20.3953 32.3271C20.3953 32.93 20.8354 33.4755 21.5126 33.6765L29.604 36.2316L32.6171 43.0932C32.8541 43.6674 33.4974 44.0406 34.2083 44.0406C34.9193 44.0406 35.5625 43.6674 35.7995 43.0932L38.7788 36.2603L48.3937 33.7052C49.1047 33.5042 49.5787 32.9587 49.5787 32.3271C49.5787 31.6955 49.1047 31.15 48.3937 30.949L38.9142 28.4513Z" fill="#12BEF0"/>
<path d="M60.04 15.8477C60.5817 15.6755 60.988 15.2735 61.1234 14.8142L62.7485 8.38322L64.3735 14.8142C64.5089 15.331 64.9491 15.7329 65.5246 15.8764L70.806 17.2832L65.4907 18.6613C64.9829 18.8048 64.5766 19.1206 64.4074 19.5226L62.7146 23.3697L61.0218 19.5226C60.8525 19.1206 60.4801 18.8335 60.0062 18.6613L55.4695 17.2258L60.04 15.8477ZM50.0527 18.6039L58.1441 21.159L61.1572 28.0206C61.3942 28.5948 62.0375 28.9681 62.7485 28.9681C63.4594 28.9681 64.1027 28.5948 64.3397 28.0206L67.3189 21.1877L76.9339 18.6326C77.6448 18.4316 78.1188 17.8861 78.1188 17.2545C78.1188 16.6229 77.6448 16.0774 76.9339 15.8764L67.4543 13.35L64.3735 1.14839C64.2042 0.488064 63.5271 0 62.7146 0C61.9021 0 61.225 0.488064 61.0557 1.14839L57.9748 13.4361L50.0188 15.9339C49.3417 16.1348 48.9016 16.6803 48.9016 17.2832C48.9354 17.8574 49.3756 18.4029 50.0527 18.6039Z" fill="#12BEF0"/>
<path d="M14.2336 69.7071H45.8885L44.5681 86.129H4.44943L14.2336 69.7071ZM1.70714 89H46.1593C47.0395 89 47.7844 88.4258 47.8521 87.6506L49.4094 68.3577C49.4433 67.9558 49.274 67.5826 48.9693 67.2668C48.6646 66.9797 48.1906 66.8074 47.7166 66.8074H13.218C12.5747 66.8074 11.9992 67.1232 11.6945 67.5826L0.18365 86.8755C-0.087193 87.3061 -0.0533376 87.8516 0.251361 88.2823C0.589915 88.7416 1.1316 89 1.70714 89Z" fill="#12BEF0"/>
<path d="M82.3169 52.7684L87.0228 60.8358H58.9228L58.3811 52.7684H82.3169ZM57.2977 63.6781H89.7312C90.6792 63.6781 91.424 63.0465 91.424 62.2426C91.424 61.9842 91.3224 61.7258 91.187 61.4961L84.8899 50.6726C84.619 50.1845 84.0096 49.8687 83.3664 49.8687H56.5529C56.0789 49.8687 55.6388 50.041 55.3341 50.3281C55.0294 50.6152 54.8601 50.9884 54.8601 51.3903L55.605 62.3287C55.6727 63.1039 56.4175 63.6781 57.2977 63.6781Z" fill="#12BEF0"/>
<path d="M60.4463 86.129L59.3629 69.7071H91.0177L100.565 86.129H60.4463ZM93.5907 67.64C93.3199 67.1519 92.7105 66.8361 92.0672 66.8361H57.5686C57.0946 66.8361 56.6545 67.0084 56.3498 67.2955C56.0451 67.5826 55.8758 67.9558 55.8758 68.3577L57.1623 87.6506C57.23 88.3971 57.941 89 58.8551 89H103.307C104.255 89 105 88.3684 105 87.5645C105 87.3061 104.898 87.0477 104.763 86.8181L93.5907 67.64Z" fill="#12BEF0"/>
<path d="M23.1715 52.7684H47.1073L46.464 60.8358H18.364L23.1715 52.7684ZM14.1659 62.989C14.4706 63.4197 15.0123 63.6781 15.6217 63.6781H48.0552C48.9354 63.6781 49.6803 63.1039 49.748 62.3287L50.6282 51.3903C50.6621 50.9884 50.4928 50.6152 50.1881 50.2994C49.8834 50.0123 49.4094 49.84 48.9354 49.84H22.122C21.4787 49.84 20.9032 50.1558 20.5985 50.6152L14.0982 61.5535C13.8274 62.0416 13.8612 62.5871 14.1659 62.989Z" fill="#12BEF0"/>
</svg>
