<svg width="67" height="67" viewBox="0 0 67 67" fill="none" xmlns="http://www.w3.org/2000/svg">
<g clip-path="url(#clip0)">
<path d="M51.504 12.8248C55.0267 12.8248 57.8889 9.94886 57.8889 6.41241C57.8889 2.87595 55.0267 0 51.504 0C47.9813 0 45.1191 2.88971 45.1191 6.41241C45.1191 9.9351 47.9813 12.8248 51.504 12.8248ZM51.504 3.31629C53.1965 3.31629 54.5863 4.7061 54.5863 6.42617C54.5863 8.14623 53.2103 9.53605 51.504 9.53605C49.7977 9.53605 48.4216 8.13247 48.4216 6.41241C48.4216 4.69234 49.7977 3.31629 51.504 3.31629Z" fill="#164883"/>
<path d="M13.8552 54.1752C10.3325 54.1752 7.47031 57.0511 7.47031 60.5876C7.47031 64.1241 10.3325 67 13.8552 67C17.3779 67 20.2401 64.1241 20.2401 60.5876C20.2401 57.0511 17.3641 54.1752 13.8552 54.1752ZM13.8552 63.6975C12.1627 63.6975 10.7728 62.3077 10.7728 60.5876C10.7728 58.8813 12.1489 57.4777 13.8552 57.4777C15.5615 57.4777 16.9376 58.8675 16.9376 60.5876C16.9238 62.2939 15.5477 63.6975 13.8552 63.6975Z" fill="#164883"/>
<path d="M29.6385 28.4155C29.955 28.732 30.3816 28.8971 30.8082 28.8971C31.2347 28.8971 31.6476 28.732 31.9778 28.4155C32.6246 27.7687 32.6246 26.7229 31.9778 26.0762L28.5377 22.6361L31.9778 19.1959C32.6246 18.5492 32.6246 17.5034 31.9778 16.8566C31.3311 16.2099 30.2853 16.2099 29.6385 16.8566L26.1984 20.2968L22.7583 16.8566C22.1115 16.2099 21.0657 16.2099 20.419 16.8566C19.7722 17.5034 19.7722 18.5492 20.419 19.1959L23.8591 22.6361L20.419 26.0762C19.7722 26.7229 19.7722 27.7687 20.419 28.4155C20.7355 28.732 21.162 28.8971 21.5886 28.8971C22.0152 28.8971 22.428 28.732 22.7583 28.4155L26.1984 24.9754L29.6385 28.4155Z" fill="#164883"/>
<path d="M57.2834 43.3457C56.6367 42.6989 55.5909 42.6989 54.9441 43.3457L51.504 46.7858L48.0639 43.3457C47.4171 42.6989 46.3713 42.6989 45.7246 43.3457C45.0778 43.9924 45.0778 45.0382 45.7246 45.6849L49.1647 49.1251L45.7246 52.5652C45.0778 53.212 45.0778 54.2578 45.7246 54.9045C46.0411 55.221 46.4676 55.3861 46.8942 55.3861C47.3208 55.3861 47.7336 55.221 48.0639 54.9045L51.504 51.4644L54.9441 54.9045C55.2606 55.221 55.6872 55.3861 56.1138 55.3861C56.5404 55.3861 56.9532 55.221 57.2834 54.9045C57.9302 54.2578 57.9302 53.212 57.2834 52.5652L53.8433 49.1251L57.2834 45.6849C57.9302 45.0244 57.9302 43.9924 57.2834 43.3457Z" fill="#164883"/>
<path d="M37.716 51.8634C37.0692 51.2167 36.0234 51.2167 35.3767 51.8634L31.9365 55.3035L28.4964 51.8634C27.8497 51.2167 26.8039 51.2167 26.1571 51.8634C25.5104 52.5102 25.5104 53.556 26.1571 54.2027L29.5972 57.6428L26.1571 61.083C25.5104 61.7297 25.5104 62.7755 26.1571 63.4223C26.4736 63.7388 26.9002 63.9039 27.3268 63.9039C27.7533 63.9039 28.1662 63.7388 28.4964 63.4223L31.9365 59.9821L35.3767 63.4223C35.6932 63.7388 36.1197 63.9039 36.5463 63.9039C36.9729 63.9039 37.3857 63.7388 37.716 63.4223C38.3627 62.7755 38.3627 61.7297 37.716 61.083L34.2758 57.6428L37.716 54.2027C38.3489 53.556 38.3489 52.5102 37.716 51.8634Z" fill="#164883"/>
<path d="M27.024 39.4514C27.9322 39.4514 28.6753 38.7084 28.6753 37.8002C28.6753 36.892 27.9322 36.1489 27.024 36.1489C26.1158 36.1489 25.3728 36.892 25.3728 37.8002C25.3728 38.7084 26.1021 39.4514 27.024 39.4514Z" fill="#164883"/>
<path d="M14.7909 44.3226C15.0661 44.5015 15.3826 44.5978 15.6991 44.5978C16.2358 44.5978 16.7587 44.3364 17.0752 43.8548C17.5705 43.0979 17.3641 42.0659 16.6073 41.5705C15.8505 41.0752 14.8184 41.2816 14.3231 42.0384C13.8139 42.7952 14.0203 43.8273 14.7909 44.3226Z" fill="#164883"/>
<path d="M19.9511 37.2635C19.1117 37.635 18.7402 38.612 19.1117 39.4377C19.3869 40.0569 19.9924 40.4147 20.6254 40.4147C20.8456 40.4147 21.0795 40.3734 21.2997 40.277C22.139 39.9055 22.5106 38.9285 22.139 38.1029C21.7536 37.2635 20.7768 36.892 19.9511 37.2635Z" fill="#164883"/>
<path d="M33.5603 39.4514C34.4722 39.4514 35.2115 38.7121 35.2115 37.8002C35.2115 36.8882 34.4722 36.1489 33.5603 36.1489C32.6483 36.1489 31.909 36.8882 31.909 37.8002C31.909 38.7121 32.6483 39.4514 33.5603 39.4514Z" fill="#164883"/>
<path d="M13.8552 50.7763C14.2955 50.7763 14.7221 50.5975 15.0248 50.2947C15.3276 49.992 15.5065 49.5654 15.5065 49.1251C15.5065 48.6847 15.3276 48.2582 15.0248 47.9554C14.7221 47.6527 14.2955 47.4738 13.8552 47.4738C13.4149 47.4738 12.9883 47.6527 12.6856 47.9554C12.3828 48.2582 12.2039 48.6847 12.2039 49.1251C12.2039 49.5654 12.3828 49.992 12.6856 50.2947C12.9883 50.5975 13.4149 50.7763 13.8552 50.7763Z" fill="#164883"/>
<path d="M59.0448 23.4204L52.6599 17.0355C52.0131 16.3888 50.9673 16.3888 50.3206 17.0355L43.9357 23.4204C43.289 24.0672 43.289 25.113 43.9357 25.7597C44.5825 26.4065 45.6283 26.4065 46.275 25.7597L49.839 22.1957V26.4615C49.839 31.8006 45.4631 36.1351 40.0828 36.1351C39.1746 36.1351 38.4315 36.8782 38.4315 37.7864C38.4315 38.6946 39.1746 39.4377 40.0828 39.4377C47.2795 39.4377 53.1415 33.617 53.1415 26.4615V22.182L56.7055 25.746C57.022 26.0624 57.4486 26.2276 57.8751 26.2276C58.3017 26.2276 58.7145 26.0624 59.0448 25.746C59.6915 25.113 59.6915 24.0672 59.0448 23.4204Z" fill="#A9F012"/>
</g>
<defs>
<clipPath id="clip0">
<rect width="67" height="67" fill="white"/>
</clipPath>
</defs>
</svg>
