<svg width="70" height="70" viewBox="0 0 70 70" fill="none" xmlns="http://www.w3.org/2000/svg">
<g clip-path="url(#clip0)">
<rect width="70" height="70" fill="white"/>
<path d="M23.3333 0C13.6684 0 5.83334 7.83504 5.83334 17.5V30.3333C5.83845 34.8415 9.49186 38.4949 14 38.5H15.1667V36.1667H14C10.78 36.1629 8.17047 33.5533 8.16668 30.3333V17.5C8.16668 9.12362 14.957 2.33333 23.3333 2.33333C31.7097 2.33333 38.5 9.12362 38.5 17.5V30.3333C38.4962 33.5533 35.8867 36.1629 32.6667 36.1667H31.5V38.5H32.6667C37.1748 38.4949 40.8282 34.8415 40.8333 30.3333V17.5C40.8333 7.83504 32.9983 0 23.3333 0Z" fill="#164883"/>
<path d="M9.61449 54.9838L10.4673 53.641L8.49682 52.3903L7.64399 53.7343C5.06464 57.799 5.25611 63.0327 8.12582 66.8978V70H10.4592V66.5C10.4593 66.235 10.3692 65.9778 10.2037 65.7708C7.72332 62.6701 7.48663 58.3362 9.61449 54.9838Z" fill="#164883"/>
<path d="M64.1667 0H49C45.78 0.00379167 43.1704 2.61333 43.1667 5.83333V17.5C43.1704 20.72 45.78 23.3295 49 23.3333H51.3333V28C51.3332 28.4718 51.6173 28.8973 52.0532 29.078C52.1948 29.1371 52.3466 29.1671 52.5 29.1667C52.8094 29.1667 53.1061 29.0436 53.3248 28.8248L58.8163 23.3333H64.1667C67.3867 23.3295 69.9962 20.72 70 17.5V5.83333C69.9962 2.61333 67.3867 0.00379167 64.1667 0ZM67.6667 17.5C67.6667 19.433 66.0997 21 64.1667 21H58.3333C58.0239 21 57.7272 21.1231 57.5085 21.3418L53.6667 25.1837V22.1667C53.6667 21.5224 53.1443 21 52.5 21H49C47.067 21 45.5 19.433 45.5 17.5V5.83333C45.5 3.90031 47.067 2.33333 49 2.33333H64.1667C66.0997 2.33333 67.6667 3.90031 67.6667 5.83333V17.5Z" fill="#A9F012"/>
<path d="M57.1667 5.83334H49V8.16668H57.1667V5.83334Z" fill="#A9F012"/>
<path d="M64.1667 5.83334H59.5V8.16668H64.1667V5.83334Z" fill="#A9F012"/>
<path d="M64.1667 10.5H49V12.8333H64.1667V10.5Z" fill="#A9F012"/>
<path d="M57.1667 15.1667H49V17.5H57.1667V15.1667Z" fill="#A9F012"/>
<path d="M39.0227 53.7343L38.1698 52.3903L36.1993 53.641L37.0521 54.985C39.1802 58.337 38.9435 62.6706 36.463 65.7708C36.2975 65.9778 36.2073 66.235 36.2075 66.5V70H38.5408V66.8978C41.4105 63.0327 41.602 57.799 39.0227 53.7343Z" fill="#164883"/>
<path d="M68.8333 39.6667H58.3333C53.956 39.6718 50.3612 43.1272 50.183 47.5008L46.6667 53.8312V49C46.6616 44.4919 43.0081 40.8384 38.5 40.8333H34.2358L34.2043 40.8088L34.1833 40.8333H31.5C30.2113 40.8333 29.1667 39.7887 29.1667 38.5V35.7548C32.7715 33.6735 34.9945 29.8292 35 25.6667V16.3333C34.9982 14.4003 34.5173 12.4979 33.6 10.7963C33.3061 10.255 32.642 10.0352 32.0833 10.2947L12.3363 19.586C11.9274 19.7785 11.6665 20.1899 11.6667 20.6418V25.6667C11.6722 29.8292 13.8951 33.6735 17.5 35.7548V38.5C17.5 39.7887 16.4554 40.8333 15.1667 40.8333H8.16667C3.65852 40.8384 0.00510417 44.4919 0 49V70H2.33333V49C2.33712 45.78 4.94667 43.1705 8.16667 43.1667H11.879L22.3848 57.8457C22.6007 58.1474 22.9472 58.3284 23.3182 58.3333H23.3333C23.7005 58.3333 24.0463 58.1604 24.2667 57.8667L35.35 43.1667H38.5C41.72 43.1705 44.3295 45.78 44.3333 49V58.3333C44.3339 58.9776 44.8567 59.4996 45.501 59.499C45.9242 59.4985 46.314 59.2691 46.5197 58.8992L52.0193 49H58.7078L47.3328 70H49.987L61.3667 49H61.8333C66.3415 48.9949 69.9949 45.3415 70 40.8333C70 40.189 69.4776 39.6667 68.8333 39.6667ZM14 25.6667V21.3827L32.0145 12.9057C32.4454 13.9971 32.6667 15.16 32.6667 16.3333V25.6667C32.6667 30.8213 28.488 35 23.3333 35C18.1787 35 14 30.8213 14 25.6667ZM23.3578 55.1973L19.7575 50.1667H27.1495L23.3578 55.1973ZM28.9147 47.8333H18.0833L14.7432 43.1667H15.1667C17.744 43.1667 19.8333 41.0773 19.8333 38.5V36.7955C22.1115 37.5126 24.5551 37.5126 26.8333 36.7955V38.5C26.8333 41.0773 28.9227 43.1667 31.5 43.1667H32.4333L28.9147 47.8333ZM61.8333 46.6667H52.6167C53.1745 43.9523 55.5622 42.0031 58.3333 42H67.55C66.9922 44.7144 64.6045 46.6636 61.8333 46.6667Z" fill="#164883"/>
</g>
<defs>
<clipPath id="clip0">
<rect width="70" height="70" fill="white"/>
</clipPath>
</defs>
</svg>
