<svg width="18" height="11" viewBox="0 0 18 11" fill="none" xmlns="http://www.w3.org/2000/svg">
<path fill-rule="evenodd" clip-rule="evenodd" d="M17.587 0.744816C17.7122 0.315527 17.587 0 16.9915 0H15.0223C14.5215 0 14.2908 0.272539 14.1657 0.573158C14.1657 0.573158 13.1642 3.08478 11.7455 4.71625C11.2865 5.18853 11.0779 5.33862 10.8276 5.33862C10.7024 5.33862 10.5212 5.18853 10.5212 4.75924V0.744816C10.5212 0.229553 10.3759 0 9.95858 0H6.8641C6.55128 0 6.36308 0.239106 6.36308 0.465763C6.36308 0.95425 7.07228 1.06686 7.14542 2.4407V5.42474C7.14542 6.07895 7.03064 6.19763 6.78027 6.19763C6.11271 6.19763 4.48895 3.67458 3.52573 0.787803C3.33697 0.226658 3.14764 0 2.64437 0H0.675158C0.112526 0 0 0.272539 0 0.573158C0 1.10984 0.667702 3.77184 3.10854 7.29242C4.73595 9.6965 7.02839 11 9.11463 11C10.3665 11 10.5212 10.7105 10.5212 10.2119V8.39474C10.5212 7.81579 10.6398 7.70029 11.036 7.70029C11.3283 7.70029 11.8289 7.85053 12.9973 9.00972C14.3325 10.3834 14.5525 11 15.3036 11H17.2728C17.8354 11 18.1167 10.7105 17.9544 10.1392C17.7769 9.56985 17.1394 8.74399 16.2935 7.7647C15.8346 7.20645 15.146 6.60535 14.9376 6.30488C14.6454 5.91843 14.7288 5.74678 14.9376 5.40346C14.9376 5.40346 17.3366 1.92572 17.587 0.744961V0.744816Z" fill="#12BEF0"/>
</svg>
